<svg xmlns="http://www.w3.org/2000/svg" viewBox="0 0 17 17" width="17" height="17">
	<style>
		tspan { white-space:pre }
		.shp0 { opacity: 0;fill: #ffffff } 
		.shp1 { fill: #afb4c0 } 
	</style>
	<g id="-e-icon/location">
		<path id="Rectangle" class="shp0" d="M1,17h16v-16h-16z" />
		<path id="Shape" class="shp1" d="M13.24,2.78c1.13,1.14 1.76,2.69 1.76,4.3c0,4.41 -5.44,9.92 -6,9.92c-0.56,0 -6,-5.51 -6,-9.92c0,-1.61 0.63,-3.16 1.76,-4.3c1.13,-1.14 2.65,-1.78 4.24,-1.78c1.59,0 3.12,0.64 4.24,1.78zM9,9.67c0.71,0 1.39,-0.28 1.89,-0.78c0.5,-0.5 0.78,-1.18 0.78,-1.89c0,-1.08 -0.65,-2.05 -1.65,-2.46c-1,-0.41 -2.14,-0.18 -2.91,0.58c-0.76,0.76 -0.99,1.91 -0.58,2.91c0.41,1 1.39,1.65 2.46,1.65z" />
	</g>
</svg>