<svg xmlns="http://www.w3.org/2000/svg" viewBox="0 0 15 15" width="15" height="15">
	<style>
		tspan { white-space:pre }
		.shp0 { fill: #afb4c0 } 
	</style>
	<g id="-e-ic_time">
		<path id="Path" class="shp0" d="M9.04,14.24c2.4,-0.42 4.43,-2.03 5.38,-4.27h-3.79c-0.3,1.5 -0.83,2.94 -1.59,4.27z" />
		<path id="Path" class="shp0" d="M7.07,13.63c0.15,0.27 0.43,0.44 0.74,0.44c0.31,0 0.59,-0.17 0.74,-0.44c0.62,-1.15 1.07,-2.38 1.34,-3.66h-4.15c0.27,1.28 0.72,2.51 1.34,3.66z" />
		<path id="Path" class="shp0" d="M6.59,14.24c-0.75,-1.33 -1.29,-2.77 -1.59,-4.27h-3.79c0.95,2.25 2.98,3.86 5.38,4.27z" />
		<path id="Path" class="shp0" d="M10.75,5.11c0.2,1.37 0.2,2.77 0,4.14h3.93c0.41,-1.35 0.41,-2.79 0,-4.14z" />
		<path id="Path" class="shp0" d="M10.02,9.25c0.21,-1.37 0.21,-2.77 0,-4.14h-4.41c-0.21,1.37 -0.21,2.77 0,4.14z" />
		<path id="Path" class="shp0" d="M4.88,9.25c-0.2,-1.37 -0.2,-2.77 0,-4.14h-3.93c-0.41,1.35 -0.41,2.79 0,4.14z" />
		<path id="Path" class="shp0" d="M9.04,0.13c0.75,1.33 1.29,2.77 1.59,4.27h3.79c-0.95,-2.25 -2.98,-3.86 -5.38,-4.27z" />
		<path id="Path" class="shp0" d="M7.07,0.74c-0.62,1.15 -1.07,2.38 -1.34,3.66h4.15c-0.27,-1.28 -0.72,-2.51 -1.34,-3.66c-0.15,-0.27 -0.43,-0.44 -0.74,-0.44c-0.31,0 -0.59,0.17 -0.74,0.44z" />
		<path id="Path" class="shp0" d="M1.22,4.4h3.79c0.3,-1.5 0.83,-2.94 1.59,-4.27c-2.4,0.42 -4.43,2.03 -5.38,4.27z" />
	</g>
</svg>