<svg xmlns="http://www.w3.org/2000/svg" viewBox="0 0 39 25" width="39" height="25">
	<style>
		tspan { white-space:pre }
		.shp0 { fill: #f9f9f9 } 
	</style>
	<g id="-e-ic_settings">
		<path id="Shape" class="shp0" d="M38.87,5.99c0,0.49 -0.4,0.89 -0.89,0.89h-8.38c-0.46,2.51 -2.64,4.32 -5.19,4.32c-2.54,0 -4.72,-1.82 -5.19,-4.32h-18.21c-0.49,0 -0.89,-0.4 -0.89,-0.89c0,-0.49 0.4,-0.89 0.89,-0.89h18.21c0.46,-2.51 2.64,-4.32 5.19,-4.32c2.54,0 4.72,1.82 5.19,4.32h8.38c0.49,0 0.89,0.4 0.89,0.89zM27.92,5.99c0,-1.94 -1.57,-3.51 -3.5,-3.51c-1.93,0 -3.5,1.57 -3.5,3.51c0,1.94 1.57,3.51 3.5,3.51c1.93,0 3.5,-1.57 3.5,-3.51z" />
		<path id="Shape" class="shp0" d="M37.98,18.25c0.49,0 0.89,0.4 0.89,0.89c0,0.49 -0.4,0.89 -0.89,0.89h-18.21c-0.46,2.51 -2.64,4.32 -5.19,4.32c-2.54,0 -4.72,-1.82 -5.19,-4.32h-8.38c-0.32,0 -0.61,-0.17 -0.77,-0.44c-0.16,-0.27 -0.16,-0.61 0,-0.89c0.16,-0.27 0.45,-0.44 0.77,-0.44h8.38c0.46,-2.51 2.64,-4.32 5.19,-4.32c2.54,0 4.72,1.82 5.19,4.32zM17.06,21.62c0.66,-0.66 1.03,-1.55 1.03,-2.48c0,-1.94 -1.57,-3.51 -3.5,-3.51c-1.93,0 -3.5,1.57 -3.5,3.51c0,1.94 1.57,3.51 3.5,3.51c0.93,0 1.82,-0.37 2.48,-1.03z" />
	</g>
</svg>