<?xml version="1.0" encoding="UTF-8"?>
<svg width="24px" height="24px" viewBox="0 0 24 24" version="1.1" xmlns="http://www.w3.org/2000/svg" xmlns:xlink="http://www.w3.org/1999/xlink">
    <!-- Generator: Sketch 51.3 (57544) - http://www.bohemiancoding.com/sketch -->
    <title>icon/active</title>
    <desc>Created with Sketch.</desc>
    <defs></defs>
    <g id="icon/active" stroke="none" stroke-width="1" fill="none" fill-rule="evenodd">
        <rect id="Rectangle" fill="#FFFFFF" fill-rule="nonzero" opacity="0" x="0" y="0" width="24" height="24"></rect>
        <path d="M12,0 C9.61305116,-1.41448944e-06 7.32386514,0.961521742 5.63603743,2.67304505 C3.94820972,4.38456836 2.99999861,6.70589252 3,9.126352 C3,15.738264 11.1647528,24 12,24 C12.8352472,24 21,15.738264 21,9.126352 C21.0000014,6.70589252 20.0517903,4.38456836 18.3639626,2.67304505 C16.6761349,0.961521742 14.3869488,-1.41448944e-06 12,0 Z M12.0000611,13 C10.3822353,13.0000011 8.92371049,12.025447 8.30459485,10.5307711 C7.68547921,9.0360951 8.02769706,7.31564828 9.17167267,6.17167267 C10.3156483,5.02769706 12.0360951,4.68547921 13.5307711,5.30459485 C15.025447,5.92371049 16.0000011,7.38223532 16,9.00006114 C16.0000007,10.0609111 15.57858,11.0783116 14.8284458,11.8284458 C14.0783116,12.57858 13.0609111,13.0000007 12.0000611,13 Z" id="Shape" fill="#5165FF" fill-rule="nonzero"></path>
    </g>
</svg>