<?xml version="1.0" encoding="UTF-8"?>
<svg width="24px" height="24px" viewBox="0 0 24 24" version="1.1" xmlns="http://www.w3.org/2000/svg" xmlns:xlink="http://www.w3.org/1999/xlink">
    <!-- Generator: Sketch 51.3 (57544) - http://www.bohemiancoding.com/sketch -->
    <title>icon/electicity</title>
    <desc>Created with Sketch.</desc>
    <defs></defs>
    <g id="icon/electicity" stroke="none" stroke-width="1" fill="none" fill-rule="evenodd">
        <rect id="Rectangle" fill="#FFFFFF" fill-rule="nonzero" opacity="0" x="0" y="0" width="24" height="24"></rect>
        <g id="Group-8" transform="translate(-3.000000, -4.000000)" fill-rule="nonzero">
            <path d="M14.589977,16.0023757 C13.4239774,17.4907195 12.3673073,19.7207858 11.9715427,23.0650045 C11.5757781,26.4092231 10.469045,25.9161637 9.21046159,23.7093854 C7.95187822,21.5026071 -0.270369358,3.81696774 7.80288178,2.75184483 C15.8761329,1.68672192 23.095522,8.08474014 23.9100658,9.45633966 C24.7246096,10.8279392 25.0882228,12.4499451 22.7365226,12.9586473 C22.4388135,13.0230455 22.079532,13.0571021 21.6472268,13.0533034 C17.8000033,13.0194967 15.7559766,14.5140319 14.589977,16.0023757 Z" id="Path-7" fill="#4492FE" transform="translate(14.413510, 14.051020) rotate(-112.000000) translate(-14.413510, -14.051020) "></path>
            <path d="M13.7497482,25.5643642 L21.4633656,16.6762975 L17.5976748,15.5884426 C17.4370728,15.5432472 17.3441986,15.3757022 17.3909732,15.215553 L19.4224014,8.26024077 L12.5323159,16.3382413 L16.4029856,17.4278971 C16.5714122,17.4753119 16.6636856,17.6562145 16.6031889,17.8203968 L13.7497482,25.5643642 Z M22.0812672,16.2268776 C22.2930262,16.2864693 22.3707603,16.5461532 22.2265726,16.7122944 L13.1276103,27.1966338 C12.9090281,27.4484966 12.5042373,27.2091949 12.6195395,26.8962756 L15.9279748,17.9174961 L11.9187051,16.7888221 C11.7080373,16.7295157 11.6297237,16.4718756 11.7717502,16.3053624 L19.8747621,6.80531559 C20.0846261,6.55926902 20.4816453,6.77368472 20.3909808,7.08410666 L18.0518498,15.092948 L22.0812672,16.2268776 Z" id="Stroke-1" fill="#0A0A0A"></path>
        </g>
    </g>
</svg>