<?xml version="1.0" encoding="UTF-8"?>
<svg width="24px" height="24px" viewBox="0 0 24 24" version="1.1" xmlns="http://www.w3.org/2000/svg" xmlns:xlink="http://www.w3.org/1999/xlink">
    <!-- Generator: Sketch 51.3 (57544) - http://www.bohemiancoding.com/sketch -->
    <title>icon/email</title>
    <desc>Created with Sketch.</desc>
    <defs></defs>
    <g id="icon/email" stroke="none" stroke-width="1" fill="none" fill-rule="evenodd">
        <rect id="Rectangle" fill="#FFFFFF" fill-rule="nonzero" opacity="0" x="0" y="0" width="24" height="24"></rect>
        <path d="M1.71428571,3 C0.764571429,3 0,3.76457129 0,4.71428541 L0,17.2857146 C0,18.2354287 0.764571429,19 1.71428571,19 L22.2857143,19 C23.2354286,19 24,18.2354287 24,17.2857146 L24,4.71428541 C24,3.76457129 23.2354286,3 22.2857143,3 L1.71428571,3 Z M3.52528151,6.002536 C3.70779594,5.98646299 3.86509569,6.04812239 3.97937377,6.14974263 L11.6630719,12.8959213 C12.1452849,13.319362 12.8357684,13.3193897 13.3191211,12.8959213 L21.0206262,6.14974263 C21.2420596,5.95476036 21.6259496,5.97332746 21.8264135,6.18870583 C22.0268774,6.4040842 22.0077883,6.7774769 21.7863549,6.97245917 L17.0763942,11.1032816 L21.7774372,15.0089682 C22.0292421,15.1889305 22.0761671,15.5851026 21.873025,15.8160274 C21.6698545,16.0469523 21.26018,16.0631361 21.0384617,15.8489771 L16.2216591,11.8567179 L14.0848213,13.727284 C13.1820216,14.5182702 11.7998295,14.5111482 10.8973717,13.7186933 L8.77834094,11.856801 L3.9615383,15.8490602 C3.73982002,16.0632193 3.33014549,16.0470354 3.12697496,15.8161105 C2.92383291,15.5851857 2.97075787,15.1890136 3.22256283,15.0090513 L7.92360585,11.1120109 L3.21364509,6.97254231 C3.04717119,6.83220828 2.97722537,6.59283124 3.0429545,6.38831602 C3.10865513,6.1838285 3.30629838,6.02578645 3.52528151,6.00261914 L3.52528151,6.002536 Z" id="Shape" fill="#A4AFD0" fill-rule="nonzero"></path>
    </g>
</svg>