<?xml version="1.0" encoding="UTF-8"?>
<svg width="24px" height="24px" viewBox="0 0 24 24" version="1.1" xmlns="http://www.w3.org/2000/svg" xmlns:xlink="http://www.w3.org/1999/xlink">
    <!-- Generator: Sketch 51.3 (57544) - http://www.bohemiancoding.com/sketch -->
    <title>icon/favorites</title>
    <desc>Created with Sketch.</desc>
    <defs></defs>
    <g id="icon/favorites" stroke="none" stroke-width="1" fill="none" fill-rule="evenodd">
        <rect id="Rectangle" fill="#FFFFFF" fill-rule="nonzero" opacity="0" x="0" y="0" width="24" height="24"></rect>
        <path d="M11.2830573,22.8828947 C11.4858686,23.0390351 11.7642383,23.0390351 11.9670497,22.8828947 C13.392731,21.7922011 18.9258905,17.4072328 21.8772802,12.8745234 C23.5950397,10.23639 23.8181788,6.93721288 21.8740794,4.47958866 C20.7159675,2.9957297 18.995353,2.09536807 17.1491804,2.00714774 C15.3030078,1.91892741 13.508884,2.65133541 12.2224212,4.01837907 L11.6935948,4.57547893 C11.6755592,4.59448163 11.6508507,4.6051934 11.6250535,4.6051934 C11.5992563,4.6051934 11.5745478,4.59448163 11.5565122,4.57547893 L11.0276703,4.01837907 C9.74121319,2.65133227 7.94709176,1.9189217 6.10092096,2.00714213 C4.25475016,2.09536257 2.53413833,2.99572688 1.37603272,4.47958866 C-0.56807953,6.93721288 -0.344914635,10.23639 1.37284229,12.8745234 C4.3242165,17.4072328 9.857376,21.7922011 11.2830573,22.8828947 Z" id="Path" fill="#EBEBEB"></path>
    </g>
</svg>