<?xml version="1.0" encoding="UTF-8"?>
<svg width="24px" height="24px" viewBox="0 0 24 24" version="1.1" xmlns="http://www.w3.org/2000/svg" xmlns:xlink="http://www.w3.org/1999/xlink">
    <!-- Generator: Sketch 51.3 (57544) - http://www.bohemiancoding.com/sketch -->
    <title>icon/fax</title>
    <desc>Created with Sketch.</desc>
    <defs></defs>
    <g id="icon/fax" stroke="none" stroke-width="1" fill="none" fill-rule="evenodd">
        <rect id="Rectangle" fill="#FFFFFF" fill-rule="nonzero" opacity="0" x="0" y="0" width="24" height="24"></rect>
        <g id="Group" transform="translate(0.000000, 3.000000)" fill="#A4AFD0">
            <g>
                <rect id="Rectangle" x="4.96551724" y="0" width="14.0689655" height="8.02222222"></rect>
                <path d="M21.9016552,6.33333333 L21.1034483,6.33333333 L21.1034483,10.1333333 L2.89655172,10.1333333 L2.89655172,6.33333333 L2.09834483,6.33333333 C0.944275862,6.33333333 0,7.29684444 0,8.47442222 L0,16.8589111 C0,18.0364889 0.944275862,19 2.09834483,19 L21.9012414,19 C23.0557241,19 24,18.0364889 24,16.8589111 L24,8.47442222 C24,7.29684444 23.0557241,6.33333333 21.9016552,6.33333333 Z M2.89655172,17.1 C2.32510345,17.1 1.86206897,16.6271111 1.86206897,16.0444444 C1.86206897,15.4617778 2.32510345,14.9888889 2.89655172,14.9888889 C3.468,14.9888889 3.93103448,15.4617778 3.93103448,16.0444444 C3.93103448,16.6271111 3.468,17.1 2.89655172,17.1 Z" id="Shape" fill-rule="nonzero"></path>
            </g>
        </g>
    </g>
</svg>