<svg xmlns="http://www.w3.org/2000/svg" width="24" height="24" viewBox="0 0 24 24">
    <g fill="none" fill-rule="nonzero">
        <path fill="#FF7192" d="M11.883.548C9.35 1.39-1.896 5.614 5.458 12.78c2.416 2.354 1.501 8.317 6.425 7.887 6.708-1.116 1.906-6.827 3.908-10.94 1.106-2.273 9.705-4.438 4.543-8.26-2.38-1.762-5.92-1.762-8.451-.92z"/>
        <path fill="#000" d="M18 19.576l-.083 2.026a2.412 2.412 0 0 1-2.41 2.312H8.356a2.412 2.412 0 0 1-2.412-2.412v-8.69a2.94 2.94 0 0 1 2.94-2.94h1.648V8.766h-1.23a.3.3 0 0 1-.3-.3V6.759a.3.3 0 0 1 .3-.3h5.506a.3.3 0 0 1 .3.3v1.707a.3.3 0 0 1-.3.3h-1.23v1.106h1.76a2.94 2.94 0 0 1 2.94 2.94l-.003.122-.272 6.598v.044H18zm-.6 0H13.28c-1.682 0-3.053-1.276-3.053-2.86 0-1.585 1.371-2.86 3.053-2.86h4.357l.04-.947.001-.097a2.34 2.34 0 0 0-2.34-2.34H8.884a2.34 2.34 0 0 0-2.34 2.34v8.69c0 1.001.811 1.812 1.812 1.812h7.151c.972 0 1.77-.766 1.81-1.737l.083-2.001zm.025-.6l.186-4.52H13.28c-1.36 0-2.453 1.016-2.453 2.26 0 1.243 1.093 2.26 2.453 2.26h4.146zm-6.893-10.81h3.976V7.059H9.602v1.107h.93zm.6.6v1.106h1.847V8.766h-1.847z"/>
    </g>
</svg>
