<svg xmlns="http://www.w3.org/2000/svg" width="24" height="24" viewBox="0 0 24 24">
    <g fill="none" fill-rule="nonzero">
        <path fill="#D876FE" d="M7.367 9.078c6.844.559 1.821-3.152 5.812-6.687 3.285-2.909 6.111-.534 6.987.629 4.15 5.506 2.13 7.676-3.679 10.963-3.057 1.73-1.521 7.047-8.67 6.348C1.67 19.7-5.952 5.987 7.366 9.078z"/>
        <path fill="#000" d="M18.806 6.994h-8.54l-2.673 8.903a.3.3 0 0 1-.287.214h-.821a.3.3 0 0 1-.295-.353l1.578-8.764H5.832a.3.3 0 0 1-.3-.3V4.82a.3.3 0 0 1 .3-.3H23.72a.3.3 0 0 1 .3.3v1.874a.3.3 0 0 1-.3.3h-2.417l1.578 8.764a.3.3 0 0 1-.295.353h-.821a.3.3 0 0 1-.287-.214l-2.672-8.903zm-12.674-.6H23.42V5.12H6.132v1.274zm3.507.6H8.378l-1.534 8.517h.238L9.64 6.994zm12.588 8.517l-1.534-8.517h-1.26l2.555 8.517h.24z"/>
    </g>
</svg>
