<?xml version="1.0" encoding="UTF-8"?>
<svg width="24px" height="24px" viewBox="0 0 24 24" version="1.1" xmlns="http://www.w3.org/2000/svg" xmlns:xlink="http://www.w3.org/1999/xlink">
    <!-- Generator: Sketch 51.3 (57544) - http://www.bohemiancoding.com/sketch -->
    <title>icon/insta</title>
    <desc>Created with Sketch.</desc>
    <defs></defs>
    <g id="icon/insta" stroke="none" stroke-width="1" fill="none" fill-rule="evenodd">
        <rect id="Rectangle" fill="#FFFFFF" fill-rule="nonzero" opacity="0" x="0" y="0" width="24" height="24"></rect>
        <g id="Instagram_simple_icon" fill="#000000">
            <path d="M11.9999285,2.16220593 C15.2040568,2.16220593 15.5835545,2.17444789 16.8490389,2.23218039 C18.0190178,2.28557819 18.654356,2.4810208 19.077248,2.64535836 C19.5984602,2.83772952 20.0699333,3.14446783 20.4570056,3.5430225 C20.8555571,3.93009787 21.162293,4.40157475 21.3546626,4.92279112 C21.5189989,5.3456388 21.7144876,5.98102973 21.7678373,7.15101788 C21.8255694,8.41641708 21.8378112,8.79591776 21.8378112,12.0001667 C21.8378112,15.2044157 21.8255694,15.5838211 21.7678373,16.8493156 C21.71444,18.0193037 21.5189513,18.654647 21.3546626,19.0775423 C20.9509614,20.1240829 20.1237803,20.9512706 19.077248,21.3549751 C18.6544036,21.5193126 18.0190178,21.7148029 16.8490389,21.768153 C15.5838879,21.8258855 15.2043902,21.8381275 11.9999285,21.8381275 C8.79546686,21.8381275 8.4161121,21.8258855 7.15081821,21.768153 C5.98083935,21.7147553 5.3455011,21.519265 4.92260914,21.3549751 C4.40139618,21.1626054 3.92992273,20.8558669 3.54285147,20.4573109 C3.14430122,20.0702345 2.83756554,19.598758 2.64519445,19.0775423 C2.4808582,18.6546946 2.28536951,18.0193037 2.23201977,16.8493156 C2.17428773,15.583964 2.16204587,15.2044157 2.16204587,12.0001667 C2.16204587,8.79591776 2.17428773,8.41651235 2.23201977,7.15101788 C2.28541714,5.98102973 2.4808582,5.34568644 2.64519445,4.92279112 C2.83758556,4.40154878 3.14435485,3.93005429 3.54294674,3.54297487 C3.93002006,3.14442145 4.4014929,2.83768334 4.9227044,2.64531072 C5.34554873,2.48097316 5.98093461,2.28548292 7.15091348,2.23213276 C8.41630263,2.17440026 8.7958003,2.1621583 12.0000238,2.1621583 L11.9999285,2.16220593 Z M12.0000238,4.23075575e-17 C8.74102154,4.23075575e-17 8.33222916,0.0138138818 7.05250226,0.0722132578 C5.77520468,0.130517366 4.90293642,0.333343257 4.13965406,0.630008276 C3.33896013,0.931323868 2.61362861,1.40367092 2.01423851,2.01411159 C1.40366511,2.61346888 0.931189917,3.33880899 0.629765106,4.13954402 C0.333340611,4.90288008 0.130516329,5.77515526 0.0724508529,7.05246298 C0.0138137721,8.33220004 0,8.74099567 0,12.0000238 C0,15.259052 0.0138137721,15.6678476 0.0724508529,16.9475847 C0.130754498,18.2248924 0.333578779,19.0971676 0.630241443,19.860456 C0.931556016,20.6611556 1.40389913,21.3864926 2.01433377,21.9858884 C2.61372193,22.5963315 3.33905401,23.0686789 4.13974933,23.3699917 C4.90307932,23.6666567 5.77534758,23.8694826 7.05259753,23.9277867 C8.33251496,23.9861861 8.74116445,24 12.0001191,24 C15.2590737,24 15.6679137,23.9861861 16.9476406,23.9277867 C18.2249382,23.8694826 19.0972065,23.6666567 19.8604888,23.3699917 C21.4723533,22.7465793 22.7465892,21.4723332 23.3699967,19.860456 C23.6666594,19.0971199 23.8694837,18.2248447 23.9277873,16.9475847 C23.9861862,15.6676571 24,15.2590043 24,12.0000238 C24,8.74104331 23.9861862,8.33220004 23.9277873,7.05246298 C23.8694837,5.77515526 23.6666594,4.90288008 23.3699967,4.13959166 C23.0686863,3.33888998 22.5963426,2.61355215 21.9859044,2.01415923 C21.3865021,1.40359685 20.6611177,0.931149637 19.8603459,0.629770106 C19.0970159,0.333343257 18.2247477,0.130517366 16.9474501,0.0724514281 C15.6677232,0.0138138818 15.2589308,0 11.9999285,0 L12.0000238,4.23075575e-17 Z" id="Shape" fill-rule="nonzero"></path>
            <path d="M12,6 C8.6862915,6 6,8.6862915 6,12 C6,15.3137085 8.6862915,18 12,18 C15.3137085,18 18,15.3137085 18,12 C18,8.6862915 15.3137085,6 12,6 Z M12,15.894701 C9.84902205,15.8946754 8.10532826,14.150947 8.10534534,11.9999691 C8.10536242,9.84899113 9.84908389,8.10529042 12.0000618,8.10529896 C14.1510398,8.1053075 15.8947474,9.84902205 15.8947474,12 C15.8947218,14.1509915 14.1509915,15.894701 12,15.894701 Z" id="Shape" fill-rule="nonzero"></path>
            <circle id="Oval" cx="18.5" cy="5.5" r="1.5"></circle>
        </g>
    </g>
</svg>