<?xml version="1.0" encoding="UTF-8"?>
<svg width="24px" height="24px" viewBox="0 0 24 24" version="1.1" xmlns="http://www.w3.org/2000/svg" xmlns:xlink="http://www.w3.org/1999/xlink">
    <!-- Generator: Sketch 51.3 (57544) - http://www.bohemiancoding.com/sketch -->
    <title>icon/menu</title>
    <desc>Created with Sketch.</desc>
    <defs></defs>
    <g id="icon/menu" stroke="none" stroke-width="1" fill="none" fill-rule="evenodd">
        <rect id="Rectangle" fill="#FFFFFF" fill-rule="nonzero" opacity="0" x="0" y="0" width="24" height="24"></rect>
        <g id="Group" transform="translate(0.000000, 3.000000)" fill="#000000" fill-rule="nonzero">
            <path d="M1.28571429,0 C0.575635714,0 0,0.575613875 0,1.28571337 C0,1.99577 0.575635714,2.57142673 1.28571429,2.57142673 L22.7142857,2.57142673 C23.4243643,2.57142673 24,1.99577 24,1.28571337 C24,0.575613875 23.4243643,0 22.7142857,0 L1.28571429,0 Z M1.28571429,7.71428878 C0.575635714,7.71428878 0,8.28990694 0,9.00000643 C0,9.71006306 0.575635714,10.2857198 1.28571429,10.2857198 L22.7142857,10.2857198 C23.4243643,10.2857198 24,9.71006306 24,9.00000643 C24,8.28990694 23.4243643,7.71428878 22.7142857,7.71428878 L1.28571429,7.71428878 Z M1.28571429,15.4285733 C0.575635714,15.4285733 0,16.0041871 0,16.7142866 C0,17.4243433 0.575635714,18 1.28571429,18 L22.7142857,18 C23.4243643,18 24,17.4243433 24,16.7142866 C24,16.0041871 23.4243643,15.4285733 22.7142857,15.4285733 L1.28571429,15.4285733 Z" id="Shape"></path>
        </g>
    </g>
</svg>