<?xml version="1.0" encoding="UTF-8"?>
<svg width="24px" height="24px" viewBox="0 0 24 24" version="1.1" xmlns="http://www.w3.org/2000/svg" xmlns:xlink="http://www.w3.org/1999/xlink">
    <!-- Generator: Sketch 51.3 (57544) - http://www.bohemiancoding.com/sketch -->
    <title>icon/metal</title>
    <desc>Created with Sketch.</desc>
    <defs></defs>
    <g id="icon/metal" stroke="none" stroke-width="1" fill="none" fill-rule="evenodd">
        <rect id="Rectangle" fill="#FFFFFF" fill-rule="nonzero" opacity="0" x="0" y="0" width="24" height="24"></rect>
        <path d="M1.64625869,21.0946677 C-0.545589975,14.1835311 0.667236983,11.2686467 5.28473957,12.3500146 C12.2109934,13.9720664 11.8628319,7.48862436 9.30202119,3.94752744 C6.74121052,0.406430522 12.3748472,-2.14103651 17.853584,2.57655152 C23.3323208,7.29413955 27.1162503,24.0593486 20.4376757,23.999842 C13.7591011,23.9403354 12.6187933,16.596572 7.8285044,21.0946677 C4.63497847,24.0933982 2.5742299,24.0933982 1.64625869,21.0946677 Z" id="Path-6" fill="#A3F799" fill-rule="nonzero"></path>
        <path d="M18.336548,9.15038313 L15.1028057,4.60369286 L3.89719426,4.60369286 L0.663451978,9.15038313 L9.5,20.2157926 L18.336548,9.15038313 Z M9.26557638,20.8837546 L0.0534551635,9.34804032 C-0.0301000693,9.24340977 -0.0342005419,9.09607513 0.0434059121,8.98695928 L3.49795137,4.12981643 C3.5542293,4.0506888 3.64532436,4.00369286 3.74242424,4.00369286 L15.2575758,4.00369286 C15.3546756,4.00369286 15.4457707,4.0506888 15.5020486,4.12981643 L18.9565941,8.98695928 C19.0342005,9.09607513 19.0301001,9.24340977 18.9465448,9.34804032 L9.73442362,20.8837546 C9.614323,21.0341485 9.385677,21.0341485 9.26557638,20.8837546 Z" id="Stroke-1" fill="#0A0A0A" fill-rule="nonzero"></path>
        <path d="M0.287878788,9.46083571 C0.122193363,9.46083571 -0.0121212121,9.32652114 -0.0121212121,9.16083571 C-0.0121212121,8.99515029 0.122193363,8.86083571 0.287878788,8.86083571 L18.7121212,8.86083571 C18.8778066,8.86083571 19.0121212,8.99515029 19.0121212,9.16083571 C19.0121212,9.32652114 18.8778066,9.46083571 18.7121212,9.46083571 L0.287878788,9.46083571 Z" id="Stroke-3" fill="#0A0A0A" fill-rule="nonzero"></path>
        <path d="M9.78739015,20.7826134 C9.73985867,20.9413346 9.57265784,21.0314716 9.41393664,20.9839401 C9.25521544,20.9364087 9.16507837,20.7692078 9.21260985,20.6104866 L12.6671553,9.07477235 C12.7146868,8.91605116 12.8818876,8.82591408 13.0406088,8.87344556 C13.19933,8.92097705 13.2894671,9.08817788 13.2419356,9.24689907 L9.78739015,20.7826134 Z" id="Stroke-5" fill="#0A0A0A" fill-rule="nonzero"></path>
        <path d="M9.78739015,20.6104866 C9.83492163,20.7692078 9.74478456,20.9364087 9.58606336,20.9839401 C9.42734216,21.0314716 9.26014133,20.9413346 9.21260985,20.7826134 L5.7580644,9.24689907 C5.71053291,9.08817788 5.80066999,8.92097705 5.95939119,8.87344556 C6.11811238,8.82591408 6.28531321,8.91605116 6.33284469,9.07477235 L9.78739015,20.6104866 Z" id="Stroke-7" fill="#0A0A0A" fill-rule="nonzero"></path>
        <path d="M3.4713521,4.43222261 C3.40036708,4.2825136 3.46418549,4.10360574 3.61389449,4.03262072 C3.7636035,3.9616357 3.94251136,4.0254541 4.01349638,4.17516311 L6.31652668,9.03230597 C6.3875117,9.18201497 6.3236933,9.36092283 6.17398429,9.43190785 C6.02427529,9.50289287 5.84536743,9.43907447 5.77438241,9.28936546 L3.4713521,4.43222261 Z" id="Stroke-9" fill="#0A0A0A" fill-rule="nonzero"></path>
        <path d="M6.28992742,9.33471214 C6.19389812,9.46973079 6.00659676,9.50133789 5.87157812,9.40530859 C5.73655947,9.30927929 5.70495237,9.12197792 5.80098167,8.98695928 L9.25552712,4.12981643 C9.35155643,3.99479779 9.53885779,3.96319068 9.67387643,4.05921998 C9.80889507,4.15524928 9.84050218,4.34255065 9.74447288,4.47756929 L6.28992742,9.33471214 Z" id="Stroke-11" fill="#0A0A0A" fill-rule="nonzero"></path>
        <path d="M9.25552712,4.47756929 C9.15949782,4.34255065 9.19110493,4.15524928 9.32612357,4.05921998 C9.46114221,3.96319068 9.64844357,3.99479779 9.74447288,4.12981643 L13.1990183,8.98695928 C13.2950476,9.12197792 13.2634405,9.30927929 13.1284219,9.40530859 C12.9934032,9.50133789 12.8061019,9.46973079 12.7100726,9.33471214 L9.25552712,4.47756929 Z" id="Stroke-13" fill="#0A0A0A" fill-rule="nonzero"></path>
        <path d="M13.2256176,9.28936546 C13.1546326,9.43907447 12.9757247,9.50289287 12.8260157,9.43190785 C12.6763067,9.36092283 12.6124883,9.18201497 12.6834733,9.03230597 L14.9865036,4.17516311 C15.0574886,4.0254541 15.2363965,3.9616357 15.3861055,4.03262072 C15.5358145,4.10360574 15.5996329,4.2825136 15.5286479,4.43222261 L13.2256176,9.28936546 Z" id="Stroke-15" fill="#0A0A0A" fill-rule="nonzero"></path>
    </g>
</svg>