<?xml version="1.0" encoding="UTF-8"?>
<svg width="149px" height="24px" viewBox="0 0 149 24" version="1.1" xmlns="http://www.w3.org/2000/svg" xmlns:xlink="http://www.w3.org/1999/xlink">
    <!-- Generator: Sketch 51.3 (57544) - http://www.bohemiancoding.com/sketch -->
    <title>icon/no rating</title>
    <desc>Created with Sketch.</desc>
    <defs></defs>
    <g id="icon/no-rating" stroke="none" stroke-width="1" fill="none" fill-rule="evenodd">
        <rect id="Rectangle" fill="#FFFFFF" fill-rule="nonzero" opacity="0" x="0" y="0" width="149" height="24"></rect>
        <path d="M43.0959082,0.146336753 C42.9801172,0.227507921 42.877548,0.325065757 42.7882005,0.43901026 L39.7880503,8.48753169 L30.7875995,8.48753169 C30.6193219,8.49096146 30.465468,8.53974037 30.326038,8.63386844 C30.1964241,8.71503961 30.0938549,8.81259744 30.0183302,8.92654195 C29.9938899,9.1090818 29.9938899,9.27980802 30.0183302,9.43872058 C30.0924525,9.58601005 30.1950218,9.70795734 30.326038,9.80456247 L37.2494616,14.9263488 L34.7877999,23.0480386 C34.7655632,23.1943754 34.7655632,23.3407121 34.7877999,23.4870489 C34.8649271,23.6356722 34.9674964,23.7576195 35.0955076,23.8528908 C35.2207142,23.9443512 35.3489257,23.9931302 35.4801422,23.9992275 C35.6716582,24.0064682 35.8255121,23.9576892 35.9417038,23.8528908 L43.4805429,19.243283 L51.019382,23.8528908 C51.187259,23.9580703 51.3411128,24.0068492 51.4809436,23.9992275 C51.6626434,23.9940829 51.8164972,23.945304 51.9425051,23.8528908 C52.0717183,23.7574289 52.1486453,23.6354816 52.1732859,23.4870489 C52.2472079,23.3412838 52.2472079,23.194947 52.1732859,23.0480386 L49.7116242,14.9263488 L56.7119748,9.80456247 C56.8427906,9.70948169 56.9197175,9.58753439 56.9427555,9.43872058 C57.0190815,9.29162166 57.0190815,9.14528491 56.9427555,8.99971032 C56.9189162,8.84937217 56.8419893,8.72742488 56.7119748,8.63386844 C56.573346,8.53935929 56.4194922,8.49058037 56.2504132,8.48753169 L47.2499624,8.48753169 L44.2498122,0.43901026 C44.2253719,0.326209012 44.1484449,0.228651177 44.0190314,0.146336753 C43.880002,0.0527803133 43.7261481,0.0040013956 43.5574698,0 C43.402414,0.00381085295 43.2485601,0.0525897707 43.0959082,0.146336753 Z M13.0959082,0.146336753 C12.9801172,0.227507921 12.877548,0.325065757 12.7882005,0.43901026 L9.78805028,8.48753169 L0.787599539,8.48753169 C0.619321881,8.49096146 0.465468022,8.53974037 0.326037963,8.63386844 C0.1964241,8.71503961 0.0938548605,8.81259744 0.0183302449,8.92654195 C-0.00611008163,9.1090818 -0.00611008163,9.27980802 0.0183302449,9.43872058 C0.0924525467,9.58601005 0.195021786,9.70795734 0.326037963,9.80456247 L7.24946161,14.9263488 L4.78779987,23.0480386 C4.76556318,23.1943754 4.76556318,23.3407121 4.78779987,23.4870489 C4.86492713,23.6356722 4.96749637,23.7576195 5.09550759,23.8528908 C5.22071418,23.9443512 5.34892573,23.9931302 5.48014223,23.9992275 C5.67165824,24.0064682 5.82551209,23.9576892 5.94170381,23.8528908 L13.4805429,19.243283 L21.019382,23.8528908 C21.187259,23.9580703 21.3411128,24.0068492 21.4809436,23.9992275 C21.6626434,23.9940829 21.8164972,23.945304 21.9425051,23.8528908 C22.0717183,23.7574289 22.1486453,23.6354816 22.1732859,23.4870489 C22.2472079,23.3412838 22.2472079,23.194947 22.1732859,23.0480386 L19.7116242,14.9263488 L26.7119748,9.80456247 C26.8427906,9.70948169 26.9197175,9.58753439 26.9427555,9.43872058 C27.0190815,9.29162166 27.0190815,9.14528491 26.9427555,8.99971032 C26.9189162,8.84937217 26.8419893,8.72742488 26.7119748,8.63386844 C26.573346,8.53935929 26.4194922,8.49058037 26.2504132,8.48753169 L17.2499624,8.48753169 L14.2498122,0.43901026 C14.2253719,0.326209012 14.1484449,0.228651177 14.0190314,0.146336753 C13.880002,0.0527803133 13.7261481,0.0040013956 13.5574698,0 C13.402414,0.00381085295 13.2485601,0.0525897707 13.0959082,0.146336753 Z M105.095908,0.146336753 C104.980117,0.227507921 104.877548,0.325065757 104.788201,0.43901026 L101.78805,8.48753169 L92.7875995,8.48753169 C92.6193219,8.49096146 92.465468,8.53974037 92.326038,8.63386844 C92.1964241,8.71503961 92.0938549,8.81259744 92.0183302,8.92654195 C91.9938899,9.1090818 91.9938899,9.27980802 92.0183302,9.43872058 C92.0924525,9.58601005 92.1950218,9.70795734 92.326038,9.80456247 L99.2494616,14.9263488 L96.7877999,23.0480386 C96.7655632,23.1943754 96.7655632,23.3407121 96.7877999,23.4870489 C96.8649271,23.6356722 96.9674964,23.7576195 97.0955076,23.8528908 C97.2207142,23.9443512 97.3489257,23.9931302 97.4801422,23.9992275 C97.6716582,24.0064682 97.8255121,23.9576892 97.9417038,23.8528908 L105.480543,19.243283 L113.019382,23.8528908 C113.187259,23.9580703 113.341113,24.0068492 113.480944,23.9992275 C113.662643,23.9940829 113.816497,23.945304 113.942505,23.8528908 C114.071718,23.7574289 114.148645,23.6354816 114.173286,23.4870489 C114.247208,23.3412838 114.247208,23.194947 114.173286,23.0480386 L111.711624,14.9263488 L118.711975,9.80456247 C118.842791,9.70948169 118.919718,9.58753439 118.942756,9.43872058 C119.019081,9.29162166 119.019081,9.14528491 118.942756,8.99971032 C118.918916,8.84937217 118.841989,8.72742488 118.711975,8.63386844 C118.573346,8.53935929 118.419492,8.49058037 118.250413,8.48753169 L109.249962,8.48753169 L106.249812,0.43901026 C106.225372,0.326209012 106.148445,0.228651177 106.019031,0.146336753 C105.880002,0.0527803133 105.726148,0.0040013956 105.55747,0 C105.402414,0.00381085295 105.24856,0.0525897707 105.095908,0.146336753 Z M135.095908,0.146336753 C134.980117,0.227507921 134.877548,0.325065757 134.788201,0.43901026 L131.78805,8.48753169 L122.7876,8.48753169 C122.619322,8.49096146 122.465468,8.53974037 122.326038,8.63386844 C122.196424,8.71503961 122.093855,8.81259744 122.01833,8.92654195 C121.99389,9.1090818 121.99389,9.27980802 122.01833,9.43872058 C122.092453,9.58601005 122.195022,9.70795734 122.326038,9.80456247 L129.249462,14.9263488 L126.7878,23.0480386 C126.765563,23.1943754 126.765563,23.3407121 126.7878,23.4870489 C126.864927,23.6356722 126.967496,23.7576195 127.095508,23.8528908 C127.220714,23.9443512 127.348926,23.9931302 127.480142,23.9992275 C127.671658,24.0064682 127.825512,23.9576892 127.941704,23.8528908 L135.480543,19.243283 L143.019382,23.8528908 C143.187259,23.9580703 143.341113,24.0068492 143.480944,23.9992275 C143.662643,23.9940829 143.816497,23.945304 143.942505,23.8528908 C144.071718,23.7574289 144.148645,23.6354816 144.173286,23.4870489 C144.247208,23.3412838 144.247208,23.194947 144.173286,23.0480386 L141.711624,14.9263488 L148.711975,9.80456247 C148.842791,9.70948169 148.919718,9.58753439 148.942756,9.43872058 C149.019081,9.29162166 149.019081,9.14528491 148.942756,8.99971032 C148.918916,8.84937217 148.841989,8.72742488 148.711975,8.63386844 C148.573346,8.53935929 148.419492,8.49058037 148.250413,8.48753169 L139.249962,8.48753169 L136.249812,0.43901026 C136.225372,0.326209012 136.148445,0.228651177 136.019031,0.146336753 C135.880002,0.0527803133 135.726148,0.0040013956 135.55747,0 C135.402414,0.00381085295 135.24856,0.0525897707 135.095908,0.146336753 Z M74.0959082,0.146336753 C73.9801172,0.227507921 73.877548,0.325065757 73.7882005,0.43901026 L70.7880503,8.48753169 L61.7875995,8.48753169 C61.6193219,8.49096146 61.465468,8.53974037 61.326038,8.63386844 C61.1964241,8.71503961 61.0938549,8.81259744 61.0183302,8.92654195 C60.9938899,9.1090818 60.9938899,9.27980802 61.0183302,9.43872058 C61.0924525,9.58601005 61.1950218,9.70795734 61.326038,9.80456247 L68.2494616,14.9263488 L65.7877999,23.0480386 C65.7655632,23.1943754 65.7655632,23.3407121 65.7877999,23.4870489 C65.8649271,23.6356722 65.9674964,23.7576195 66.0955076,23.8528908 C66.2207142,23.9443512 66.3489257,23.9931302 66.4801422,23.9992275 C66.6716582,24.0064682 66.8255121,23.9576892 66.9417038,23.8528908 L74.4805429,19.243283 L82.019382,23.8528908 C82.187259,23.9580703 82.3411128,24.0068492 82.4809436,23.9992275 C82.6626434,23.9940829 82.8164972,23.945304 82.9425051,23.8528908 C83.0717183,23.7574289 83.1486453,23.6354816 83.1732859,23.4870489 C83.2472079,23.3412838 83.2472079,23.194947 83.1732859,23.0480386 L80.7116242,14.9263488 L87.7119748,9.80456247 C87.8427906,9.70948169 87.9197175,9.58753439 87.9427555,9.43872058 C88.0190815,9.29162166 88.0190815,9.14528491 87.9427555,8.99971032 C87.9189162,8.84937217 87.8419893,8.72742488 87.7119748,8.63386844 C87.573346,8.53935929 87.4194922,8.49058037 87.2504132,8.48753169 L78.2499624,8.48753169 L75.2498122,0.43901026 C75.2253719,0.326209012 75.1484449,0.228651177 75.0190314,0.146336753 C74.880002,0.0527803133 74.7261481,0.0040013956 74.5574698,0 C74.402414,0.00381085295 74.2485601,0.0525897707 74.0959082,0.146336753 Z" id="Shape" fill="#EBEBEB" fill-rule="nonzero"></path>
    </g>
</svg>