<?xml version="1.0" encoding="UTF-8"?>
<svg width="24px" height="24px" viewBox="0 0 24 24" version="1.1" xmlns="http://www.w3.org/2000/svg" xmlns:xlink="http://www.w3.org/1999/xlink">
    <!-- Generator: Sketch 51.3 (57544) - http://www.bohemiancoding.com/sketch -->
    <title>icon/printing</title>
    <desc>Created with Sketch.</desc>
    <defs></defs>
    <g id="icon/printing" stroke="none" stroke-width="1" fill="none" fill-rule="evenodd">
        <rect id="Rectangle" fill="#FFFFFF" fill-rule="nonzero" opacity="0" x="0" y="0" width="24" height="24"></rect>
        <path d="M17.0342843,5.62374506 C16.3781038,1.78252989 10.0486073,4.37657949 8.01990685,5.16488814 C2.95514629,7.13294339 -2.92266852,13.0046547 1.6176962,18.6862035 C2.88555414,20.2727273 3.58074981,21.5763346 4.57127851,20.8484848 C5.51151327,20.1575915 4.24568135,17.2247489 6.40928209,16.9655598 C10.2552259,16.504834 14.2946115,18.1270447 18.0361197,17.1618068 C20.5657465,16.5092113 24.4684054,15.6167454 23.9420195,10.6056081 C23.4156336,5.59447072 17.6904649,9.46496023 17.0342843,5.62374506 Z" id="Path-3" fill="#FFDF78" fill-rule="nonzero"></path>
        <g id="Group-11" transform="translate(5.000000, 2.000000)" fill="#000000" fill-rule="nonzero">
            <path d="M7.38731364,6.00664242 C7.55299906,6.00664242 7.68731364,6.140957 7.68731364,6.30664242 C7.68731364,6.47232785 7.55299906,6.60664242 7.38731364,6.60664242 C5.60082545,6.60664242 4.53776818,7.9705985 4.53776818,9.98112727 C4.53776818,10.7173481 4.22608965,11.2667213 3.5437773,11.9758683 C3.4279825,12.0962172 3.01808181,12.5050973 2.98045239,12.5433083 C2.00863598,13.5301438 1.59563182,14.2820877 1.59563182,15.4721273 C1.59563182,18.0130125 3.91428087,19.4120061 7.38731364,19.4120061 C7.55299906,19.4120061 7.68731364,19.5463206 7.68731364,19.7120061 C7.68731364,19.8776915 7.55299906,20.0120061 7.38731364,20.0120061 C3.62589209,20.0120061 0.995631818,18.424997 0.995631818,15.4721273 C0.995631818,14.0946719 1.48119004,13.2106311 2.55294761,12.1223099 C2.59442487,12.0801916 3.000733,11.6748951 3.11141158,11.5598636 C3.69623661,10.952038 3.93776818,10.5263078 3.93776818,9.98112727 C3.93776818,7.66735769 5.23211736,6.00664242 7.38731364,6.00664242 Z" id="Stroke-1"></path>
            <path d="M7.38731364,6.60664242 C7.22162821,6.60664242 7.08731364,6.47232785 7.08731364,6.30664242 C7.08731364,6.140957 7.22162821,6.00664242 7.38731364,6.00664242 C9.54250991,6.00664242 10.8368591,7.66735769 10.8368591,9.98112727 C10.8368591,10.5263078 11.0783907,10.952038 11.6632157,11.5598636 C11.7738943,11.6748951 12.1802024,12.0801916 12.2216797,12.1223099 C13.2934372,13.2106311 13.7789955,14.0946719 13.7789955,15.4721273 C13.7789955,18.424997 11.1487352,20.0120061 7.38731364,20.0120061 C7.22162821,20.0120061 7.08731364,19.8776915 7.08731364,19.7120061 C7.08731364,19.5463206 7.22162821,19.4120061 7.38731364,19.4120061 C10.8603464,19.4120061 13.1789955,18.0130125 13.1789955,15.4721273 C13.1789955,14.2820877 12.7659913,13.5301438 11.7941749,12.5433083 C11.7565455,12.5050973 11.3466448,12.0962172 11.23085,11.9758683 C10.5485376,11.2667213 10.2368591,10.7173481 10.2368591,9.98112727 C10.2368591,7.9705985 9.17380183,6.60664242 7.38731364,6.60664242 Z" id="Stroke-3"></path>
            <path d="M6.40141911,7.77748898 C6.52564575,7.66785595 6.71522647,7.67968641 6.8248595,7.80391305 C6.93449254,7.92813969 6.92266208,8.11772041 6.79843544,8.22735344 C6.72003111,8.29654717 6.59139876,8.43934024 6.46120647,8.64311873 C6.21245154,9.03247282 6.08118394,9.46837225 6.12513122,9.93962585 C6.14051564,10.1045955 6.01925287,10.2508013 5.85428324,10.2661858 C5.68931361,10.2815702 5.54310775,10.1603074 5.52772333,9.99533778 C5.4701559,9.37803304 5.63999124,8.81406199 5.95558925,8.32008431 C6.11904402,8.06424302 6.28405873,7.88106237 6.40141911,7.77748898 Z" id="Stroke-5"></path>
            <path d="M7.68691523,4.71518522 C8.11040425,4.7015544 8.60778558,4.62552529 9.08680384,4.44878509 C9.46516516,4.30918362 9.78910835,4.11745693 10.0445133,3.86860082 C10.2994853,3.62016659 10.4955,3.30565836 10.6381556,2.93840934 C10.8173823,2.47701292 10.8951675,1.99790296 10.9098329,1.58918597 C10.4863717,1.60283559 9.98900608,1.67891609 9.50999717,1.85576028 C9.13164181,1.99544442 8.80770147,2.18728039 8.55223215,2.43633857 C8.29732969,2.68470507 8.10135423,2.99906412 7.95870881,3.3661034 C7.77941052,3.82745375 7.70159113,4.30651403 7.68691523,4.71518522 Z M9.29449584,5.01169186 C8.62977304,5.25695024 7.95198269,5.3309539 7.41194118,5.31558024 C7.38064016,5.31452657 7.38064016,5.31452657 7.37127848,5.31403768 C7.21858183,5.30583407 7.09649163,5.18409208 7.08785194,5.03141948 C7.08733521,5.02201285 7.08733521,5.02201285 7.08624306,4.99120492 C7.07038647,4.46239769 7.14665224,3.79925068 7.39945863,3.14875752 C7.57148871,2.70610891 7.81270018,2.31918798 8.1334532,2.0066594 C8.45375957,1.69439127 8.84955396,1.46000367 9.30219406,1.29289452 C9.9669619,1.04747041 10.6447907,0.973411251 11.1848346,0.98878455 C11.2161105,0.989837349 11.2161105,0.989837349 11.225467,0.990325958 C11.3781657,0.998529676 11.5002568,1.1202748 11.5088938,1.27294966 C11.5094104,1.28235682 11.5094104,1.28235682 11.5105025,1.31317193 C11.5263545,1.84199573 11.4501271,2.50515623 11.1974425,3.15566096 C11.0254047,3.59855046 10.784146,3.98565324 10.4632321,4.29833857 C10.1429215,4.61043611 9.74712998,4.84468643 9.29449584,5.01169186 Z" id="Stroke-7"></path>
            <path d="M5.03123282,2.38183467 C4.88943549,2.29613067 4.84396285,2.1117044 4.92966684,1.96990707 C5.01537084,1.82810973 5.19979711,1.78263709 5.34159445,1.86834109 C5.42059315,1.91608884 5.55248695,2.00449201 5.71983772,2.13135362 C5.99668235,2.34121793 6.2732891,2.58490157 6.53216763,2.86069793 C7.12265179,3.48977051 7.5344139,4.19084543 7.6821393,4.95809527 C7.71346483,5.12079244 7.60696706,5.27807892 7.44426989,5.30940445 C7.28157271,5.34072998 7.12428623,5.23423221 7.0929607,5.07153504 C6.96940763,4.42983043 6.61378781,3.82434456 6.09469821,3.2713322 C5.8605058,3.02183521 5.60882226,2.80010829 5.3573766,2.60949788 C5.2077532,2.49607465 5.09311154,2.4192349 5.03123282,2.38183467 Z" id="Stroke-9"></path>
        </g>
    </g>
</svg>