
<svg width="37px" height="40px" viewBox="0 0 37 40" version="1.1" xmlns="http://www.w3.org/2000/svg" xmlns:xlink="http://www.w3.org/1999/xlink">
    <!-- Generator: Sketch 51.3 (57544) - http://www.bohemiancoding.com/sketch -->
    <desc>Created with Sketch.</desc>
    <defs></defs>
    <g id="Final-concept" stroke="none" stroke-width="1" fill="none" fill-rule="evenodd">
        <g id="main-paig_1" transform="translate(-670.000000, -458.000000)">
            <g id="categories" transform="translate(653.000000, 125.000000)">
                <g id="#2" transform="translate(0.000000, 309.000000)">
                    <g id="icon/printing" transform="translate(16.000000, 24.000000)">
                        <rect id="Rectangle" fill="#FFFFFF" fill-rule="nonzero" opacity="0" x="0" y="0" width="40" height="40"></rect>
                        <path d="M26.180951,0.445950924 C17.2533267,3.00663135 9.36359365,22.1973197 9.19706701,26.7653803 C9.1066904,29.2445381 9.1066904,36.543625 14.9059917,38.7602979 C23.4030916,42.0081532 39.1254932,39.0237068 36.8114722,26.7653803 C35.6619719,20.6760017 34.2234916,22.2517137 31.2762091,12.8147623 C29.283137,6.43311254 35.1085754,-2.1147295 26.180951,0.445950924 Z" id="Path-4" fill="#7460F8" fill-rule="nonzero"></path>
                        <g id="Group-5" stroke-width="1" fill-rule="evenodd" transform="translate(1.666667, 3.333333)" fill="#0A0A0A">
                            <path d="M25.208708,33.9699091 L24.0565992,9.91309091 L2.20985415,9.91309091 L1.05774531,33.9699091 L25.208708,33.9699091 Z M25.7332267,34.9699091 L0.533226667,34.9699091 C0.247693115,34.9699091 0.0201401957,34.7311976 0.0337990729,34.4459909 L1.23379907,9.38917274 C1.2465639,9.12263441 1.46638285,8.91309091 1.73322667,8.91309091 L24.5332267,8.91309091 C24.8000705,8.91309091 25.0198894,9.12263441 25.0326543,9.38917274 L26.2326543,34.4459909 C26.2463131,34.7311976 26.0187602,34.9699091 25.7332267,34.9699091 Z" id="Stroke-1" fill-rule="nonzero"></path>
                            <path d="M19.39888,11.534303 C19.39888,11.8104454 19.1750224,12.034303 18.89888,12.034303 C18.6227376,12.034303 18.39888,11.8104454 18.39888,11.534303 L18.39888,6.26309091 C18.39888,3.37396397 16.04204,1.03051515 13.1335467,1.03051515 C10.2241373,1.03051515 7.86714667,3.37381438 7.86714667,6.26309091 L7.86714667,11.534303 C7.86714667,11.8104454 7.64328904,12.034303 7.36714667,12.034303 C7.09100429,12.034303 6.86714667,11.8104454 6.86714667,11.534303 L6.86714667,6.26309091 C6.86714667,2.82022129 9.67315253,0.0305151515 13.1335467,0.0305151515 C16.5930533,0.0305151515 19.39888,2.82039967 19.39888,6.26309091 L19.39888,11.534303 Z" id="Stroke-3" fill-rule="nonzero"></path>
                        </g>
                    </g>
                </g>
            </g>
        </g>
    </g>
</svg>