<?xml version="1.0" encoding="UTF-8"?>
<svg width="149px" height="24px" viewBox="0 0 149 24" version="1.1" xmlns="http://www.w3.org/2000/svg" xmlns:xlink="http://www.w3.org/1999/xlink">
    <!-- Generator: Sketch 51.3 (57544) - http://www.bohemiancoding.com/sketch -->
    <title>icon/rating</title>
    <desc>Created with Sketch.</desc>
    <defs></defs>
    <g id="icon/rating" stroke="none" stroke-width="1" fill="none" fill-rule="evenodd">
        <rect id="Rectangle" fill="#FFFFFF" fill-rule="nonzero" opacity="0" x="0" y="0" width="149" height="24"></rect>
        <path d="M42.0959082,0.146336753 C41.9801172,0.227507921 41.877548,0.325065757 41.7882005,0.43901026 L38.7880503,8.48753169 L29.7875995,8.48753169 C29.6193219,8.49096146 29.465468,8.53974037 29.326038,8.63386844 C29.1964241,8.71503961 29.0938549,8.81259744 29.0183302,8.92654195 C28.9938899,9.1090818 28.9938899,9.27980802 29.0183302,9.43872058 C29.0924525,9.58601005 29.1950218,9.70795734 29.326038,9.80456247 L36.2494616,14.9263488 L33.7877999,23.0480386 C33.7655632,23.1943754 33.7655632,23.3407121 33.7877999,23.4870489 C33.8649271,23.6356722 33.9674964,23.7576195 34.0955076,23.8528908 C34.2207142,23.9443512 34.3489257,23.9931302 34.4801422,23.9992275 C34.6716582,24.0064682 34.8255121,23.9576892 34.9417038,23.8528908 L42.4805429,19.243283 L50.019382,23.8528908 C50.187259,23.9580703 50.3411128,24.0068492 50.4809436,23.9992275 C50.6626434,23.9940829 50.8164972,23.945304 50.9425051,23.8528908 C51.0717183,23.7574289 51.1486453,23.6354816 51.1732859,23.4870489 C51.2472079,23.3412838 51.2472079,23.194947 51.1732859,23.0480386 L48.7116242,14.9263488 L55.7119748,9.80456247 C55.8427906,9.70948169 55.9197175,9.58753439 55.9427555,9.43872058 C56.0190815,9.29162166 56.0190815,9.14528491 55.9427555,8.99971032 C55.9189162,8.84937217 55.8419893,8.72742488 55.7119748,8.63386844 C55.573346,8.53935929 55.4194922,8.49058037 55.2504132,8.48753169 L46.2499624,8.48753169 L43.2498122,0.43901026 C43.2253719,0.326209012 43.1484449,0.228651177 43.0190314,0.146336753 C42.880002,0.0527803133 42.7261481,0.0040013956 42.5574698,0 C42.402414,0.00381085295 42.2485601,0.0525897707 42.0959082,0.146336753 Z M13.0959082,0.146336753 C12.9801172,0.227507921 12.877548,0.325065757 12.7882005,0.43901026 L9.78805028,8.48753169 L0.787599539,8.48753169 C0.619321881,8.49096146 0.465468022,8.53974037 0.326037963,8.63386844 C0.1964241,8.71503961 0.0938548605,8.81259744 0.0183302449,8.92654195 C-0.00611008163,9.1090818 -0.00611008163,9.27980802 0.0183302449,9.43872058 C0.0924525467,9.58601005 0.195021786,9.70795734 0.326037963,9.80456247 L7.24946161,14.9263488 L4.78779987,23.0480386 C4.76556318,23.1943754 4.76556318,23.3407121 4.78779987,23.4870489 C4.86492713,23.6356722 4.96749637,23.7576195 5.09550759,23.8528908 C5.22071418,23.9443512 5.34892573,23.9931302 5.48014223,23.9992275 C5.67165824,24.0064682 5.82551209,23.9576892 5.94170381,23.8528908 L13.4805429,19.243283 L21.019382,23.8528908 C21.187259,23.9580703 21.3411128,24.0068492 21.4809436,23.9992275 C21.6626434,23.9940829 21.8164972,23.945304 21.9425051,23.8528908 C22.0717183,23.7574289 22.1486453,23.6354816 22.1732859,23.4870489 C22.2472079,23.3412838 22.2472079,23.194947 22.1732859,23.0480386 L19.7116242,14.9263488 L26.7119748,9.80456247 C26.8427906,9.70948169 26.9197175,9.58753439 26.9427555,9.43872058 C27.0190815,9.29162166 27.0190815,9.14528491 26.9427555,8.99971032 C26.9189162,8.84937217 26.8419893,8.72742488 26.7119748,8.63386844 C26.573346,8.53935929 26.4194922,8.49058037 26.2504132,8.48753169 L17.2499624,8.48753169 L14.2498122,0.43901026 C14.2253719,0.326209012 14.1484449,0.228651177 14.0190314,0.146336753 C13.880002,0.0527803133 13.7261481,0.0040013956 13.5574698,0 C13.402414,0.00381085295 13.2485601,0.0525897707 13.0959082,0.146336753 Z M104.095908,0.146336753 C103.980117,0.227507921 103.877548,0.325065757 103.788201,0.43901026 L100.78805,8.48753169 L91.7875995,8.48753169 C91.6193219,8.49096146 91.465468,8.53974037 91.326038,8.63386844 C91.1964241,8.71503961 91.0938549,8.81259744 91.0183302,8.92654195 C90.9938899,9.1090818 90.9938899,9.27980802 91.0183302,9.43872058 C91.0924525,9.58601005 91.1950218,9.70795734 91.326038,9.80456247 L98.2494616,14.9263488 L95.7877999,23.0480386 C95.7655632,23.1943754 95.7655632,23.3407121 95.7877999,23.4870489 C95.8649271,23.6356722 95.9674964,23.7576195 96.0955076,23.8528908 C96.2207142,23.9443512 96.3489257,23.9931302 96.4801422,23.9992275 C96.6716582,24.0064682 96.8255121,23.9576892 96.9417038,23.8528908 L104.480543,19.243283 L112.019382,23.8528908 C112.187259,23.9580703 112.341113,24.0068492 112.480944,23.9992275 C112.662643,23.9940829 112.816497,23.945304 112.942505,23.8528908 C113.071718,23.7574289 113.148645,23.6354816 113.173286,23.4870489 C113.247208,23.3412838 113.247208,23.194947 113.173286,23.0480386 L110.711624,14.9263488 L117.711975,9.80456247 C117.842791,9.70948169 117.919718,9.58753439 117.942756,9.43872058 C118.019081,9.29162166 118.019081,9.14528491 117.942756,8.99971032 C117.918916,8.84937217 117.841989,8.72742488 117.711975,8.63386844 C117.573346,8.53935929 117.419492,8.49058037 117.250413,8.48753169 L108.249962,8.48753169 L105.249812,0.43901026 C105.225372,0.326209012 105.148445,0.228651177 105.019031,0.146336753 C104.880002,0.0527803133 104.726148,0.0040013956 104.55747,0 C104.402414,0.00381085295 104.24856,0.0525897707 104.095908,0.146336753 Z M133.095908,0.146336753 C132.980117,0.227507921 132.877548,0.325065757 132.788201,0.43901026 L129.78805,8.48753169 L120.7876,8.48753169 C120.619322,8.49096146 120.465468,8.53974037 120.326038,8.63386844 C120.196424,8.71503961 120.093855,8.81259744 120.01833,8.92654195 C119.99389,9.1090818 119.99389,9.27980802 120.01833,9.43872058 C120.092453,9.58601005 120.195022,9.70795734 120.326038,9.80456247 L127.249462,14.9263488 L124.7878,23.0480386 C124.765563,23.1943754 124.765563,23.3407121 124.7878,23.4870489 C124.864927,23.6356722 124.967496,23.7576195 125.095508,23.8528908 C125.220714,23.9443512 125.348926,23.9931302 125.480142,23.9992275 C125.671658,24.0064682 125.825512,23.9576892 125.941704,23.8528908 L133.480543,19.243283 L141.019382,23.8528908 C141.187259,23.9580703 141.341113,24.0068492 141.480944,23.9992275 C141.662643,23.9940829 141.816497,23.945304 141.942505,23.8528908 C142.071718,23.7574289 142.148645,23.6354816 142.173286,23.4870489 C142.247208,23.3412838 142.247208,23.194947 142.173286,23.0480386 L139.711624,14.9263488 L146.711975,9.80456247 C146.842791,9.70948169 146.919718,9.58753439 146.942756,9.43872058 C147.019081,9.29162166 147.019081,9.14528491 146.942756,8.99971032 C146.918916,8.84937217 146.841989,8.72742488 146.711975,8.63386844 C146.573346,8.53935929 146.419492,8.49058037 146.250413,8.48753169 L137.249962,8.48753169 L134.249812,0.43901026 C134.225372,0.326209012 134.148445,0.228651177 134.019031,0.146336753 C133.880002,0.0527803133 133.726148,0.0040013956 133.55747,0 C133.402414,0.00381085295 133.24856,0.0525897707 133.095908,0.146336753 Z M73.0959082,0.146336753 C72.9801172,0.227507921 72.877548,0.325065757 72.7882005,0.43901026 L69.7880503,8.48753169 L60.7875995,8.48753169 C60.6193219,8.49096146 60.465468,8.53974037 60.326038,8.63386844 C60.1964241,8.71503961 60.0938549,8.81259744 60.0183302,8.92654195 C59.9938899,9.1090818 59.9938899,9.27980802 60.0183302,9.43872058 C60.0924525,9.58601005 60.1950218,9.70795734 60.326038,9.80456247 L67.2494616,14.9263488 L64.7877999,23.0480386 C64.7655632,23.1943754 64.7655632,23.3407121 64.7877999,23.4870489 C64.8649271,23.6356722 64.9674964,23.7576195 65.0955076,23.8528908 C65.2207142,23.9443512 65.3489257,23.9931302 65.4801422,23.9992275 C65.6716582,24.0064682 65.8255121,23.9576892 65.9417038,23.8528908 L73.4805429,19.243283 L81.019382,23.8528908 C81.187259,23.9580703 81.3411128,24.0068492 81.4809436,23.9992275 C81.6626434,23.9940829 81.8164972,23.945304 81.9425051,23.8528908 C82.0717183,23.7574289 82.1486453,23.6354816 82.1732859,23.4870489 C82.2472079,23.3412838 82.2472079,23.194947 82.1732859,23.0480386 L79.7116242,14.9263488 L86.7119748,9.80456247 C86.8427906,9.70948169 86.9197175,9.58753439 86.9427555,9.43872058 C87.0190815,9.29162166 87.0190815,9.14528491 86.9427555,8.99971032 C86.9189162,8.84937217 86.8419893,8.72742488 86.7119748,8.63386844 C86.573346,8.53935929 86.4194922,8.49058037 86.2504132,8.48753169 L77.2499624,8.48753169 L74.2498122,0.43901026 C74.2253719,0.326209012 74.1484449,0.228651177 74.0190314,0.146336753 C73.880002,0.0527803133 73.7261481,0.0040013956 73.5574698,0 C73.402414,0.00381085295 73.2485601,0.0525897707 73.0959082,0.146336753 Z" id="Shape" fill="#FDCD17" fill-rule="nonzero"></path>
    </g>
</svg>