<?xml version="1.0" encoding="UTF-8"?>
<svg width="24px" height="24px" viewBox="0 0 24 24" version="1.1" xmlns="http://www.w3.org/2000/svg" xmlns:xlink="http://www.w3.org/1999/xlink">
    <!-- Generator: Sketch 52.5 (67469) - http://www.bohemiancoding.com/sketch -->
    <title>icon/search</title>
    <desc>Created with Sketch.</desc>
    <g id="desktop" stroke="none" stroke-width="1" fill="none" fill-rule="evenodd">
        <g id="3" transform="translate(-1465.000000, -46.000000)">
            <g id="header" transform="translate(321.000000, 41.000000)">
                <g id="icon/search" transform="translate(1141.000000, 2.000000)">
                    <g id="IconSpace_Search_24Px">
                        <polygon points="0 0 30 0 30 30 0 30"></polygon>
                        <path d="M20.5599668,21.4074907 C16.5582904,24.9704692 10.421996,24.8332998 6.58467875,20.9959825 C2.60510708,17.0164109 2.60510708,10.5642504 6.58467875,6.58467875 C10.5642504,2.60510708 17.0164109,2.60510708 20.9959825,6.58467875 C24.8332998,10.421996 24.9704692,16.5582904 21.4074907,20.5599668 C21.4110626,20.5634058 21.4146239,20.5669002 21.4181741,20.5704503 L26.2136238,25.3659 C26.7787729,25.9310491 25.9310491,26.7787729 25.3659,26.2136238 L20.5704503,21.4181741 C20.5669002,21.4146239 20.5634058,21.4110626 20.5599668,21.4074907 Z M20.1482588,20.1482588 C23.6596456,16.636872 23.6596456,10.9437893 20.1482588,7.4324025 C16.636872,3.92101574 10.9437893,3.92101574 7.4324025,7.4324025 C3.92101574,10.9437893 3.92101574,16.636872 7.4324025,20.1482588 C10.9437893,23.6596456 16.636872,23.6596456 20.1482588,20.1482588 Z" fill="#010101" fill-rule="nonzero"></path>
                    </g>
                </g>
            </g>
        </g>
    </g>
</svg>