<?xml version="1.0" encoding="UTF-8"?>
<svg width="24px" height="24px" viewBox="0 0 24 24" version="1.1" xmlns="http://www.w3.org/2000/svg" xmlns:xlink="http://www.w3.org/1999/xlink">
    <!-- Generator: Sketch 51.3 (57544) - http://www.bohemiancoding.com/sketch -->
    <title>icon/share</title>
    <desc>Created with Sketch.</desc>
    <defs></defs>
    <g id="icon/share" stroke="none" stroke-width="1" fill="none" fill-rule="evenodd">
        <rect id="Rectangle" fill="#FFFFFF" fill-rule="nonzero" opacity="0" x="0" y="0" width="24" height="24"></rect>
        <path d="M14.2425822,18.8370027 L23.2058789,10.9103083 C23.3401605,10.8050867 23.3401605,10.5946435 23.2058789,10.4894219 L14.2425822,3.05376171 C14.0747302,2.91346623 13.5711742,3.05376171 13.5711742,3.40450039 L13.5711742,6.91188727 C13.5711742,7.05218275 13.3697518,7.22755209 13.2354702,7.26262596 C2.69436464,9.33198422 0.512288651,16.0310932 0.00873265429,18.6616333 C-0.0584081453,18.9422243 0.277295853,19.1175936 0.478718251,18.9071504 C4.23860303,14.3124736 11.7583726,14.5229168 13.2354702,14.6281384 C13.3697518,14.6281384 13.5711742,14.8385816 13.5711742,14.9788771 L13.5711742,18.486264 C13.5711742,18.7317811 13.9068782,19.1877414 14.2425822,18.8370027 Z" id="Path" fill="#EBEBEB"></path>
    </g>
</svg>