<svg xmlns="http://www.w3.org/2000/svg" width="40" height="40" viewBox="0 0 40 40">
    <g fill="none" fill-rule="nonzero">
        <path fill="#96EBF3" d="M34.157 36.917c-5.726 5.09-14.893 3.002-13.87-4.76 1.535-11.644-8.332-10.154-13.397-5.434-5.065 4.72-9.73-4.203-3.264-13.899C10.092 3.13 24.42-6.63 22.397 6.065c-2.022 12.697 6.773 5.191 14.305 12.45 5.022 4.84 4.173 10.973-2.545 18.402z"/>
        <path fill="#000" d="M14.295 18.89a12.655 12.655 0 0 1 4.096-1.634l-.96-6.098a2.889 2.889 0 0 1-2.79-2.442 2.885 2.885 0 0 1 2.39-3.306 2.885 2.885 0 0 1 3.296 2.406 2.889 2.889 0 0 1-1.907 3.187l.958 6.089a12.83 12.83 0 0 1 1.604-.1c1.717 0 3.355.34 4.85.957l2.808-4.492a2.89 2.89 0 0 1-.47-3.64 2.885 2.885 0 0 1 3.973-.928 2.885 2.885 0 0 1 .909 3.978 2.888 2.888 0 0 1-3.574 1.135l-2.73 4.369a12.853 12.853 0 0 1 7.009 11.465.502.502 0 0 1-.01.1 2.969 2.969 0 0 1-1.79 5.338H10.008a2.969 2.969 0 0 1-1.79-5.338.502.502 0 0 1-.01-.1 12.85 12.85 0 0 1 5.228-10.365l-2.931-2.506a2.89 2.89 0 0 1-3.628-.139 2.885 2.885 0 0 1-.295-4.069 2.885 2.885 0 0 1 4.071-.275 2.888 2.888 0 0 1 .535 3.751l3.107 2.657zm.802.685l1.624 1.388a.5.5 0 0 1-.65.76L14.22 20.14a11.85 11.85 0 0 0-5 9.197H32.746a11.852 11.852 0 0 0-6.53-10.113L24.63 21.76a.5.5 0 0 1-.848-.53l1.512-2.42a11.682 11.682 0 0 0-4.312-.82c-2.143 0-4.154.577-5.885 1.584zm16.86 10.761H10.008a1.969 1.969 0 1 0 0 3.938h21.949a1.969 1.969 0 1 0 0-3.938zm.247-18a1.885 1.885 0 0 0-.59-2.6 1.885 1.885 0 0 0-2.596.61c-.554.887-.289 2.05.59 2.6.88.55 2.042.277 2.596-.61zM19.339 7.973a1.885 1.885 0 0 0-2.15-1.575 1.885 1.885 0 0 0-1.56 2.163 1.885 1.885 0 0 0 2.151 1.575 1.885 1.885 0 0 0 1.56-2.163zm-9.342 5.265a1.885 1.885 0 0 0-2.66.176 1.885 1.885 0 0 0 .196 2.659c.79.686 1.98.606 2.66-.176a1.885 1.885 0 0 0-.196-2.66z"/>
    </g>
</svg>
