<svg xmlns="http://www.w3.org/2000/svg" viewBox="0 0 1970 1014" width="1970" height="1014">
	<defs>
		<clipPath clipPathUnits="userSpaceOnUse" id="cp1">
			<path d="M18,990.3h1920v-920h-1920z" />
		</clipPath>
	</defs>
	<style>
		tspan { white-space:pre }
		.shp0 { fill: #2955ae } 
		.shp1 { fill: #ffffff } 
		.shp2 { opacity: 0.302;fill: #ffffff } 
	</style>
	<g id="#5">
		<g id="bg">
			<path id="Mask" class="shp0" d="M18,990.3h1920v-920h-1920z" />
			<g id="Mask by Mask" clip-path="url(#cp1)">
				<g id="Group 14 Copy" style="opacity: 0.302">
					<path id="Oval" class="shp1" d="M768.49,112.28c23.35,-14.59 11.64,-37.1 -3.13,-60.75c-14.78,-23.65 -57.02,-37.27 -80.37,-22.68c-23.35,14.59 -22.96,52.74 -8.19,76.38c8.81,14.1 6.79,33.98 22.05,35.29c10.33,0.89 60.21,-22.36 69.63,-28.25z" />
					<path id="Shape" class="shp0" d="M757.91,137.76c-34.66,21.66 -80.32,11.1 -101.97,-23.55c-21.66,-34.67 -11.11,-80.31 23.54,-101.96c34.65,-21.65 80.31,-11.13 101.97,23.54c21.65,34.65 11.11,80.32 -23.54,101.97zM688.91,71.16c0.52,-0.36 0.63,-1.06 0.26,-1.6c-0.84,-1.16 -1.64,-2.37 -2.42,-3.6c-2.05,-3.28 -3.79,-6.74 -5.21,-10.33c-1.1,-2.81 -1.85,-5.72 -2.26,-8.69c-0.38,-2.74 -0.19,-5.54 0.56,-8.19c0.41,-1.52 1.37,-2.82 2.71,-3.65c1.33,-0.83 2.92,-1.13 4.47,-0.84c2.71,0.5 5.3,1.56 7.6,3.1c2.49,1.67 4.77,3.62 6.82,5.84c2.62,2.85 4.96,5.94 7.01,9.21c0.77,1.23 1.49,2.49 2.16,3.76c0.29,0.56 0.97,0.77 1.53,0.48c0.55,-0.29 0.76,-0.96 0.47,-1.55c-0.71,-1.32 -1.46,-2.61 -2.25,-3.89c-2.12,-3.39 -4.55,-6.59 -7.26,-9.55c-2.16,-2.33 -4.57,-4.41 -7.22,-6.16c-2.57,-1.73 -5.44,-2.91 -8.47,-3.47c-2.09,-0.38 -4.26,0.03 -6.07,1.16c-1.81,1.13 -3.13,2.9 -3.71,4.96c-0.81,2.96 -1.02,6.06 -0.6,9.14c0.43,3.14 1.23,6.22 2.39,9.18c1.47,3.73 3.28,7.33 5.4,10.72c0.8,1.27 1.63,2.51 2.51,3.73c0.36,0.51 1.07,0.63 1.58,0.27zM729.5,110.25l29.23,-18.26c0.44,-0.28 0.58,-0.88 0.3,-1.33c-0.01,-0.02 -0.04,-0.06 -0.06,-0.1l-36.92,-45.25c-0.31,-0.36 -0.85,-0.45 -1.25,-0.2l-8.57,5.36c0.74,1.21 1.46,2.45 2.11,3.69c0.82,1.56 0.23,3.43 -1.27,4.23c-1.52,0.8 -3.39,0.2 -4.17,-1.31c-0.45,-0.83 -0.93,-1.68 -1.41,-2.5c-0.28,-0.45 -0.87,-0.6 -1.31,-0.33c-0.02,0.01 -8.39,5.24 -8.39,5.24l-8.36,5.22c-0.45,0.28 -0.59,0.88 -0.32,1.32c0.53,0.82 1.09,1.61 1.64,2.38c1.02,1.41 0.69,3.36 -0.69,4.35c-1.4,0.99 -3.33,0.67 -4.32,-0.73c-0.83,-1.13 -1.64,-2.32 -2.39,-3.51l-8.57,5.35c-0.4,0.25 -0.57,0.78 -0.37,1.21l24.48,53.02c0.21,0.47 0.79,0.69 1.26,0.46c0.05,0 0.08,-0.03 0.12,-0.05zM725.43,34.56l7.7,-4.81l-1.64,-2.63l-7.7,4.81zM725.03,29.42l3.65,-2.28l-0.75,-1.2l-3.65,2.28zM738.44,59.9l13.25,16.24l0.73,-0.46c-1,-1.61 -0.52,-3.73 1.11,-4.75c1.61,-1 3.73,-0.51 4.73,1.1l3.56,-2.23l5.02,8.04l-6.47,4.04l-2.64,1.65l3.37,4.15l2.08,-1.3l8.4,-5.25c0.66,-0.41 0.87,-1.28 0.46,-1.93l-8.96,-14.34c-0.8,-1.29 -1.79,-2.46 -2.92,-3.47l-17.94,-15.98c-1.13,-1 -2.12,-2.17 -2.93,-3.47l-4.79,-7.67l-1.64,-2.62l-2.78,1.74l-2.79,1.75l1.64,2.62l4.79,7.67c0.81,1.29 1.43,2.7 1.83,4.16z" />
				</g>
				<g id="Group" style="opacity: 0.302">
					<path id="Shape" class="shp1" d="M48.64,581.28c6.21,-1.66 12.57,-2.49 19.42,-2.58c2.12,-0.57 8.98,18.39 10.64,19.06c1.63,0.41 4.46,1.48 7.94,2.79c5.94,17.18 -0.65,36.04 -15.66,43.27c-15.89,7.66 -35.05,-0.63 -42.9,-18.56c-1.19,-2.73 -2.06,-5.56 -2.61,-8.48c2.25,-2.79 4.08,-5.02 5.2,-6.15c1.15,-1.44 -2.78,-21.17 -0.59,-21.76c6.3,-3.43 12.36,-5.93 18.56,-7.6zM22.61,627.87c7.35,16.79 23.16,26.53 38.76,25.41l-3.49,6.89c-1.17,2.31 -0.32,5.47 1.84,6.88l10.5,6.86c2.17,1.42 4.99,0.65 6.16,-1.65l5.66,-11.19c1.17,-2.31 0.32,-5.47 -1.84,-6.88l-6.51,-4.21c16.4,-7.93 24.41,-27.71 20.02,-46.73c9.27,3.63 20.47,8.15 29.65,11.29c16.24,81.96 -95.76,111.98 -122.67,32.87c6.41,-7.36 13.88,-16.93 20.04,-24.72c0.53,1.76 1.14,3.49 1.88,5.18zM75.93,659.05l-4.2,8.23l-7.71,-5.04l4.15,-8.27z" />
				</g>
				<g id="Group 14" style="opacity: 0.302">
					<path id="Oval" class="shp1" d="M142.93,272.12c25.15,11.2 37.27,-11.09 48.61,-36.57c11.34,-25.47 -0.98,-68.11 -26.14,-79.31c-25.16,-11.2 -56.56,10.45 -67.9,35.93c-6.76,15.19 -24.37,24.63 -16.93,38.02c5.04,9.06 52.2,37.41 62.36,41.93z" />
					<path id="Shape" class="shp0" d="M115.9,277.6c-37.34,-16.62 -54.12,-60.38 -37.5,-97.71c16.63,-37.34 60.36,-54.12 97.7,-37.5c37.33,16.62 54.13,60.35 37.51,97.7c-16.62,37.33 -60.38,54.13 -97.7,37.51zM132.52,183.16c0.59,0.22 1.24,-0.07 1.47,-0.68c0.49,-1.35 1.04,-2.69 1.63,-4.02c1.57,-3.53 3.47,-6.9 5.65,-10.1c1.71,-2.48 3.7,-4.73 5.93,-6.73c2.06,-1.84 4.48,-3.25 7.1,-4.12c1.49,-0.51 3.1,-0.44 4.54,0.2c1.43,0.64 2.57,1.79 3.2,3.24c1.1,2.53 1.67,5.27 1.69,8.04c0.01,3 -0.34,5.98 -1.03,8.92c-0.9,3.76 -2.15,7.43 -3.72,10.96c-0.59,1.33 -1.23,2.63 -1.9,3.9c-0.3,0.55 -0.1,1.23 0.46,1.54c0.55,0.29 1.23,0.1 1.55,-0.47c0.7,-1.33 1.35,-2.67 1.96,-4.04c1.63,-3.65 2.92,-7.46 3.86,-11.36c0.72,-3.1 1.1,-6.26 1.07,-9.43c0,-3.1 -0.63,-6.13 -1.86,-8.96c-0.85,-1.95 -2.4,-3.52 -4.36,-4.39c-1.95,-0.87 -4.15,-0.97 -6.19,-0.31c-2.91,0.99 -5.6,2.55 -7.91,4.62c-2.36,2.11 -4.47,4.5 -6.27,7.12c-2.27,3.31 -4.24,6.82 -5.87,10.47c-0.61,1.37 -1.16,2.75 -1.69,4.16c-0.22,0.58 0.07,1.24 0.66,1.46zM122.82,238.66l31.48,14.02c0.48,0.21 1.05,-0.01 1.26,-0.5c0.01,-0.03 0.03,-0.07 0.05,-0.11l16.87,-55.91c0.12,-0.46 -0.1,-0.95 -0.53,-1.14l-9.23,-4.11c-0.59,1.29 -1.21,2.58 -1.87,3.81c-0.84,1.56 -2.72,2.11 -4.22,1.31c-1.51,-0.81 -2.06,-2.7 -1.25,-4.19c0.44,-0.84 0.87,-1.71 1.28,-2.56c0.22,-0.49 0.01,-1.05 -0.46,-1.27c-0.02,-0.01 -9.03,-4.02 -9.03,-4.02l-9,-4.01c-0.49,-0.22 -1.06,0 -1.27,0.47c-0.38,0.9 -0.72,1.8 -1.05,2.69c-0.6,1.64 -2.4,2.46 -3.99,1.86c-1.61,-0.61 -2.42,-2.38 -1.81,-3.99c0.48,-1.32 1,-2.66 1.58,-3.95l-9.23,-4.11c-0.43,-0.19 -0.96,-0.03 -1.21,0.37l-30.26,49.95c-0.28,0.44 -0.13,1.04 0.32,1.3c0.03,0.04 0.07,0.05 0.11,0.07zM183.29,192.96l8.29,3.69l1.26,-2.84l-8.29,-3.69zM187.33,189.76l3.93,1.75l0.57,-1.29l-3.93,-1.75zM169.55,217.92l-6.05,20.07l0.79,0.35c0.77,-1.73 2.81,-2.51 4.55,-1.74c1.73,0.77 2.5,2.81 1.73,4.54l3.84,1.71l-3.85,8.66l-6.97,-3.1l-2.84,-1.27l-1.56,5.12l2.24,1l9.05,4.03c0.71,0.32 1.54,0.01 1.86,-0.7l6.88,-15.45c0.62,-1.38 1.04,-2.86 1.24,-4.36l3.22,-23.81c0.2,-1.5 0.62,-2.98 1.24,-4.37l3.68,-8.26l1.26,-2.83l-3,-1.33l-3.01,-1.34l-1.26,2.83l-3.68,8.26c-0.62,1.39 -1.44,2.69 -2.42,3.84z" />
				</g>
				<g id="Shape 2">
					<path id="Shape" class="shp2" d="M179.95,465.88c-0.12,-0.01 -0.24,-0.02 -0.36,-0.05c-2.04,-0.36 -3.4,-2.32 -3.04,-4.38c0.36,-2.06 2.31,-3.44 4.35,-3.08c2.04,0.36 3.4,2.32 3.04,4.38c-0.1,0.55 -0.31,1.05 -0.6,1.49l8.43,17.82c3.07,-1.08 6.45,-1.41 9.88,-0.8c3,0.53 5.73,1.72 8.05,3.4c-9.5,-1.1 -18.6,2.44 -24.91,8.94c-1.07,-1.22 -2.03,-2.54 -2.86,-3.94c0.31,-0.46 0.65,-0.91 0.99,-1.34l-13.71,-14.08c-0.5,0.13 -1.04,0.16 -1.59,0.06c-2.04,-0.36 -3.4,-2.32 -3.04,-4.38c0.36,-2.06 2.31,-3.44 4.35,-3.08c2.04,0.36 3.4,2.32 3.04,4.38c-0.02,0.12 -0.05,0.24 -0.08,0.36l13.67,14.04c0.87,-0.74 1.81,-1.4 2.79,-1.97zM205.62,519.51c-3.23,1.22 -6.83,1.61 -10.5,0.96c-8.75,-1.54 -15.14,-8.52 -16.2,-16.75c4.43,5.91 11.09,10.23 19.01,11.63c5.43,0.96 10.77,0.42 15.58,-1.31c-0.04,0.04 -0.08,0.09 -0.12,0.13l6.77,6.78c0.36,0.36 0.36,0.95 -0.01,1.31l-1.32,1.28c-0.38,0.36 -0.97,0.36 -1.33,0l-6.82,-6.83c-0.55,0.42 -1.12,0.81 -1.71,1.17l4.21,8.62c0.22,0.45 0.02,1.01 -0.45,1.23l-1.68,0.78c-0.48,0.22 -1.04,0.02 -1.26,-0.44zM216.57,497.16c0.44,0.08 0.88,0.17 1.32,0.26c0.16,0.68 0.28,1.38 0.37,2.08c-5.15,2.88 -11.4,4.06 -17.8,2.94c-1.33,-0.24 -2.63,-0.56 -3.87,-0.97c5.52,-3.85 12.65,-5.6 19.99,-4.31zM187.27,496.73c5.96,-6.1 14.72,-9.25 23.74,-7.66c1.27,0.22 2.5,0.53 3.69,0.92c0.64,0.93 1.2,1.92 1.67,2.95c-9.08,-1.38 -17.88,1.41 -24.4,6.99c-1.69,-0.9 -3.26,-1.98 -4.7,-3.2zM180.06,493.76c4.38,6.11 11.11,10.6 19.16,12.02c6.5,1.15 12.86,0.12 18.34,-2.55c-0.04,0.37 -0.1,0.74 -0.16,1.11c-0.21,1.2 -0.53,2.35 -0.95,3.45c-5.23,3.18 -11.63,4.55 -18.18,3.39c-8.7,-1.53 -15.64,-7.16 -19.12,-14.51c0.23,-1.01 0.53,-1.98 0.91,-2.91z" />
				</g>
				<g id="Group" style="opacity: 0.302">
					<path id="Shape" class="shp1" d="M244.27,1005.02l-4.69,8.11l-122.11,-70.5l4.68,-8.11l5.43,3.13l2.34,-4.06l9.5,5.48l28.89,-50.04l-5.43,-3.13l3.12,-5.41l14.8,-13.1l6.78,3.92l3.9,-6.76l20.35,11.75l4.68,-8.11l37.99,21.93l-4.68,8.11l20.35,11.75l-3.9,6.76l6.78,3.92l-3.94,19.36l-3.12,5.41l-5.43,-3.13l-28.89,50.04l9.5,5.48l-2.34,4.06zM244.71,925.93l6.78,3.92l6.25,-10.82l-6.78,-3.92zM232.5,918.88l6.78,3.92l6.25,-10.82l-6.78,-3.92zM220.29,911.83l6.78,3.92l6.25,-10.82l-6.78,-3.92zM195.86,897.73l6.78,3.92l6.25,-10.82l-6.78,-3.92zM183.65,890.68l6.78,3.92l6.25,-10.82l-6.78,-3.92zM171.71,883.79l6.51,3.76l6.25,-10.82l-2.85,-1.65zM211.74,914.11l-6.78,-3.92l-5.43,-3.13l-6.78,-3.92l-5.43,-3.13l-6.78,-3.92l-5.43,-3.13l-1.56,2.7l9.5,5.48l-27.33,47.33l27.14,15.67l27.33,-47.34l0.78,-1.35zM221.1,897.88l-6.78,-3.92l-6.25,10.82l6.78,3.92zM253.8,938.39l-5.43,-3.13l-6.78,-3.92l-5.43,-3.13l-6.78,-3.92l-5.43,-3.13l-6.78,-3.92l-0.78,1.35l-0.78,1.35l-27.33,47.33l27.14,15.67l27.33,-47.34l9.5,5.48zM263.43,936.74l2.58,-12.93l-2.85,-1.64l-6.25,10.82z" />
					<path id="Rectangle" class="shp1" d="M204.66,945.63l6.93,4l1.5,-2.6l-6.93,-4z" />
					<path id="Rectangle" class="shp1" d="M186.47,935.13l6.93,4l1.5,-2.6l-6.93,-4z" />
				</g>
				<g id="Group" style="opacity: 0.302">
					<path id="Shape" class="shp1" d="M391.27,128.45c6.21,-1.66 12.57,-2.49 19.42,-2.58c2.12,-0.57 8.98,18.39 10.64,19.06c1.63,0.41 4.46,1.48 7.94,2.79c5.94,17.18 -0.65,36.04 -15.66,43.27c-15.89,7.66 -35.05,-0.63 -42.9,-18.56c-1.19,-2.73 -2.06,-5.56 -2.62,-8.48c2.25,-2.79 4.08,-5.02 5.2,-6.15c1.15,-1.44 -2.78,-21.17 -0.59,-21.76c6.3,-3.43 12.36,-5.93 18.56,-7.6zM365.24,175.05c7.35,16.79 23.16,26.53 38.76,25.41l-3.49,6.89c-1.17,2.31 -0.32,5.47 1.84,6.88l10.5,6.86c2.17,1.42 4.99,0.65 6.16,-1.65l5.66,-11.19c1.17,-2.31 0.32,-5.47 -1.84,-6.88l-6.51,-4.21c16.4,-7.93 24.41,-27.71 20.02,-46.73c9.27,3.63 20.47,8.15 29.65,11.29c16.24,81.96 -95.76,111.98 -122.67,32.87c6.41,-7.36 13.88,-16.93 20.04,-24.72c0.53,1.76 1.14,3.49 1.88,5.18zM418.57,206.23l-4.2,8.23l-7.71,-5.04l4.15,-8.27z" />
				</g>
				<path id="Oval" class="shp2" d="M590.36,963.7c25.71,-9.87 18.51,-34.2 8.52,-60.23c-9.99,-26.03 -48.86,-47.47 -74.56,-37.6c-25.71,9.87 -32.6,47.39 -22.61,73.42c5.96,15.52 0.18,34.65 14.91,38.85c9.97,2.84 63.37,-10.46 73.74,-14.44z" />
				<path id="Shape" class="shp0" d="M575.12,986.69c-38.15,14.65 -80.96,-4.43 -95.61,-42.57c-14.65,-38.16 4.41,-80.95 42.57,-95.6c38.15,-14.64 80.95,4.4 95.6,42.56c14.64,38.14 -4.42,80.97 -42.56,95.61zM520.1,908.16c0.58,-0.26 0.83,-0.92 0.56,-1.52c-0.61,-1.3 -1.16,-2.64 -1.68,-3.99c-1.38,-3.61 -2.43,-7.33 -3.14,-11.14c-0.55,-2.97 -0.73,-5.97 -0.57,-8.96c0.15,-2.76 0.87,-5.47 2.11,-7.94c0.69,-1.41 1.89,-2.5 3.36,-3.07c1.46,-0.56 3.08,-0.55 4.55,0.03c2.56,1.01 4.91,2.54 6.87,4.49c2.13,2.11 3.99,4.47 5.58,7.03c2.02,3.3 3.74,6.77 5.12,10.38c0.52,1.36 0.99,2.73 1.41,4.1c0.18,0.6 0.8,0.94 1.42,0.76c0.59,-0.18 0.93,-0.8 0.76,-1.43c-0.44,-1.44 -0.93,-2.84 -1.47,-4.24c-1.43,-3.73 -3.21,-7.34 -5.31,-10.76c-1.68,-2.7 -3.65,-5.2 -5.91,-7.43c-2.19,-2.19 -4.79,-3.89 -7.65,-5.02c-1.98,-0.78 -4.19,-0.79 -6.18,-0.02c-1.99,0.77 -3.62,2.25 -4.59,4.16c-1.36,2.76 -2.16,5.76 -2.33,8.85c-0.18,3.16 0.02,6.34 0.6,9.47c0.73,3.95 1.82,7.82 3.25,11.55c0.54,1.4 1.12,2.77 1.75,4.14c0.26,0.57 0.93,0.83 1.5,0.56zM552.48,954.26l32.18,-12.35c0.49,-0.19 0.73,-0.75 0.54,-1.25c-0.01,-0.03 -0.03,-0.07 -0.04,-0.11l-27.61,-51.46c-0.24,-0.41 -0.75,-0.6 -1.19,-0.43l-9.44,3.62c0.5,1.33 0.96,2.68 1.37,4.02c0.51,1.69 -0.43,3.41 -2.06,3.91c-1.64,0.5 -3.36,-0.45 -3.85,-2.08c-0.28,-0.91 -0.59,-1.82 -0.9,-2.72c-0.19,-0.5 -0.73,-0.75 -1.22,-0.57c-0.02,0.01 -9.23,3.54 -9.23,3.54l-9.2,3.53c-0.5,0.19 -0.75,0.75 -0.57,1.23c0.37,0.9 0.76,1.79 1.16,2.65c0.73,1.58 0.04,3.43 -1.51,4.13c-1.56,0.71 -3.39,0.02 -4.1,-1.54c-0.59,-1.27 -1.17,-2.59 -1.68,-3.91l-9.43,3.62c-0.44,0.17 -0.71,0.66 -0.59,1.11l13.92,56.72c0.11,0.5 0.64,0.83 1.15,0.7c0.05,0.01 0.09,-0.01 0.13,-0.03zM562.92,879.19l8.47,-3.25l-1.11,-2.9l-8.47,3.25zM563.52,874.07l4.02,-1.54l-0.51,-1.32l-4.02,1.54zM570.86,906.55l9.91,18.47l0.8,-0.31c-0.68,-1.77 0.21,-3.76 1.99,-4.45c1.77,-0.68 3.76,0.21 4.43,1.98l3.92,-1.51l3.4,8.85l-7.13,2.74l-2.9,1.11l2.52,4.72l2.29,-0.88l9.25,-3.55c0.73,-0.28 1.09,-1.09 0.82,-1.81l-6.06,-15.79c-0.54,-1.42 -1.29,-2.76 -2.21,-3.96l-14.56,-19.11c-0.92,-1.2 -1.67,-2.54 -2.21,-3.96l-3.24,-8.45l-1.11,-2.89l-3.06,1.18l-3.07,1.18l1.11,2.89l3.24,8.45c0.55,1.42 0.89,2.92 1,4.43z" />
				<g id="Group" style="opacity: 0.302">
					<path id="Shape" class="shp1" d="M907.79,466.11l-4.68,8.11l-122.11,-70.5l4.69,-8.11l5.43,3.13l2.34,-4.06l9.5,5.48l28.89,-50.04l-5.43,-3.13l3.12,-5.41l14.8,-13.1l6.78,3.92l3.9,-6.76l20.35,11.75l4.68,-8.11l37.99,21.93l-4.68,8.11l20.35,11.75l-3.9,6.76l6.78,3.92l-3.94,19.36l-3.12,5.41l-5.43,-3.13l-28.89,50.04l9.5,5.48l-2.34,4.06zM908.23,387.02l6.78,3.92l6.25,-10.82l-6.78,-3.92zM896.02,379.97l6.78,3.92l6.25,-10.82l-6.78,-3.92zM883.81,372.92l6.78,3.92l6.25,-10.82l-6.78,-3.92zM859.39,358.82l6.78,3.92l6.25,-10.82l-6.78,-3.92zM847.18,351.77l6.78,3.92l6.25,-10.82l-6.78,-3.92zM835.24,344.88l6.51,3.76l6.25,-10.82l-2.85,-1.64zM875.26,375.2l-6.78,-3.92l-5.43,-3.13l-6.78,-3.92l-5.43,-3.13l-6.78,-3.92l-5.43,-3.13l-1.56,2.7l9.5,5.48l-27.33,47.34l27.14,15.67l27.33,-47.33l0.78,-1.35zM884.63,358.97l-6.78,-3.92l-6.25,10.82l6.78,3.92zM917.32,399.48l-5.43,-3.13l-6.78,-3.92l-5.43,-3.13l-6.78,-3.92l-5.43,-3.13l-6.78,-3.92l-0.78,1.35l-0.78,1.35l-27.33,47.34l27.14,15.67l27.33,-47.33l9.5,5.48zM926.95,397.83l2.58,-12.93l-2.85,-1.64l-6.25,10.82z" />
					<path id="Rectangle" class="shp1" d="M868.18,406.72l6.93,4l1.5,-2.6l-6.93,-4z" />
					<path id="Rectangle" class="shp1" d="M850,396.22l6.93,4l1.5,-2.6l-6.93,-4z" />
				</g>
				<g id="Group" style="opacity: 0.302">
					<path id="Shape" class="shp1" d="M777.27,543.45c6.21,-1.66 12.57,-2.49 19.42,-2.58c2.12,-0.57 8.98,18.39 10.64,19.06c1.63,0.41 4.46,1.48 7.94,2.79c5.94,17.18 -0.65,36.04 -15.66,43.27c-15.89,7.66 -35.05,-0.63 -42.9,-18.56c-1.19,-2.73 -2.06,-5.56 -2.61,-8.48c2.25,-2.79 4.08,-5.02 5.2,-6.15c1.15,-1.44 -2.78,-21.17 -0.59,-21.76c6.3,-3.43 12.36,-5.93 18.56,-7.6zM751.24,590.05c7.35,16.79 23.16,26.53 38.76,25.41l-3.49,6.89c-1.17,2.31 -0.32,5.47 1.84,6.88l10.5,6.86c2.17,1.42 4.99,0.65 6.16,-1.65l5.66,-11.19c1.17,-2.31 0.32,-5.47 -1.84,-6.88l-6.51,-4.21c16.4,-7.93 24.41,-27.71 20.02,-46.73c9.27,3.63 20.47,8.15 29.65,11.29c16.24,81.96 -95.76,111.98 -122.67,32.87c6.41,-7.36 13.88,-16.93 20.04,-24.72c0.53,1.76 1.14,3.49 1.88,5.18zM804.57,621.23l-4.2,8.23l-7.71,-5.04l4.15,-8.27z" />
				</g>
				<path id="Oval" class="shp2" d="M1137.67,410.69c23.6,-14.18 12.29,-36.89 -2.07,-60.79c-14.36,-23.9 -56.36,-38.26 -79.96,-24.08c-23.6,14.18 -23.88,52.33 -9.52,76.23c8.56,14.25 6.2,34.1 21.43,35.67c10.31,1.07 60.59,-21.3 70.12,-27.03z" />
				<path id="Shape" class="shp0" d="M1126.66,435.97c-35.03,21.05 -80.5,9.7 -101.55,-25.32c-21.05,-35.04 -9.71,-80.49 25.32,-101.54c35.02,-21.04 80.49,-9.73 101.54,25.31c21.04,35.02 9.71,80.5 -25.31,101.55zM1058.83,368.19c0.52,-0.36 0.65,-1.05 0.28,-1.59c-0.82,-1.18 -1.6,-2.39 -2.35,-3.64c-1.99,-3.31 -3.67,-6.8 -5.03,-10.42c-1.05,-2.83 -1.75,-5.75 -2.11,-8.72c-0.33,-2.75 -0.09,-5.54 0.7,-8.18c0.43,-1.51 1.42,-2.79 2.77,-3.6c1.34,-0.81 2.94,-1.08 4.49,-0.76c2.7,0.55 5.27,1.65 7.55,3.23c2.46,1.71 4.71,3.71 6.72,5.96c2.57,2.9 4.86,6.02 6.85,9.33c0.75,1.25 1.45,2.51 2.1,3.79c0.28,0.56 0.95,0.79 1.53,0.51c0.55,-0.28 0.78,-0.95 0.5,-1.54c-0.69,-1.34 -1.41,-2.64 -2.18,-3.93c-2.06,-3.43 -4.44,-6.67 -7.1,-9.68c-2.12,-2.37 -4.5,-4.49 -7.11,-6.29c-2.54,-1.77 -5.39,-3 -8.41,-3.62c-2.08,-0.42 -4.26,-0.05 -6.09,1.05c-1.83,1.1 -3.18,2.84 -3.8,4.89c-0.86,2.95 -1.12,6.05 -0.75,9.12c0.38,3.14 1.12,6.24 2.23,9.22c1.41,3.76 3.15,7.38 5.21,10.81c0.77,1.29 1.59,2.53 2.44,3.77c0.35,0.52 1.05,0.65 1.58,0.29zM1098.73,407.97l29.54,-17.75c0.45,-0.27 0.59,-0.86 0.32,-1.32c-0.01,-0.02 -0.04,-0.06 -0.06,-0.1l-36.12,-45.89c-0.3,-0.36 -0.84,-0.46 -1.24,-0.22l-8.66,5.21c0.72,1.22 1.42,2.47 2.05,3.72c0.79,1.58 0.17,3.44 -1.35,4.2c-1.53,0.77 -3.39,0.14 -4.15,-1.38c-0.44,-0.84 -0.9,-1.69 -1.36,-2.52c-0.27,-0.46 -0.85,-0.62 -1.31,-0.35c-0.02,0.01 -8.48,5.09 -8.48,5.09l-8.45,5.07c-0.46,0.28 -0.61,0.87 -0.34,1.31c0.52,0.82 1.06,1.63 1.6,2.41c0.99,1.43 0.64,3.37 -0.77,4.33c-1.42,0.97 -3.34,0.61 -4.31,-0.8c-0.81,-1.15 -1.6,-2.34 -2.33,-3.56l-8.66,5.2c-0.4,0.24 -0.58,0.77 -0.39,1.2l23.55,53.44c0.2,0.48 0.78,0.71 1.25,0.49c0.05,0 0.08,-0.03 0.12,-0.05zM1095.98,332.23l7.78,-4.67l-1.6,-2.66l-7.78,4.67zM1095.67,327.08l3.69,-2.22l-0.73,-1.21l-3.69,2.22zM1108.54,357.79l12.97,16.47l0.74,-0.44c-0.98,-1.62 -0.45,-3.74 1.19,-4.73c1.63,-0.98 3.74,-0.44 4.71,1.18l3.6,-2.16l4.88,8.12l-6.54,3.93l-2.67,1.6l3.3,4.21l2.1,-1.26l8.49,-5.1c0.67,-0.4 0.89,-1.26 0.49,-1.93l-8.71,-14.5c-0.78,-1.3 -1.75,-2.49 -2.86,-3.52l-17.66,-16.29c-1.12,-1.02 -2.08,-2.21 -2.87,-3.52l-4.66,-7.75l-1.59,-2.65l-2.81,1.69l-2.82,1.7l1.59,2.65l4.66,7.75c0.78,1.31 1.38,2.72 1.75,4.19z" />
				<g id="Group" style="opacity: 0.302">
					<path id="Shape" class="shp1" d="M1207.75,900.85l3.19,11.14l-167.26,47.96l-3.19,-11.14l7.43,-2.13l-1.6,-5.57l13.01,-3.73l-19.7,-68.7l-7.43,2.13l-2.13,-7.43l1.04,-24.41l9.29,-2.66l-2.66,-9.28l27.88,-7.99l-3.19,-11.14l52.04,-14.92l3.19,11.14l27.88,-7.99l2.66,9.28l9.29,-2.66l13.82,20.15l2.13,7.43l-7.43,2.13l19.7,68.7l13.01,-3.73l1.6,5.57zM1137.87,832.48l9.29,-2.66l-4.26,-14.85l-9.29,2.66zM1121.14,837.28l9.29,-2.66l-4.26,-14.85l-9.29,2.66zM1104.42,842.08l9.29,-2.66l-4.26,-14.85l-9.29,2.66zM1070.96,851.67l9.29,-2.66l-4.26,-14.85l-9.29,2.66zM1054.24,856.46l9.29,-2.66l-4.26,-14.85l-9.29,2.66zM1037.88,861.15l8.92,-2.56l-4.26,-14.85l-3.9,1.12zM1099.11,851.63l-9.29,2.66l-7.43,2.13l-9.29,2.66l-7.43,2.13l-9.29,2.66l-7.43,2.13l1.06,3.71l13.01,-3.73l18.63,64.98l37.17,-10.66l-18.63,-64.98l-0.53,-1.86zM1092.72,829.35l-9.29,2.66l4.26,14.85l9.29,-2.66zM1156.72,835.11l-7.43,2.13l-9.29,2.66l-7.43,2.13l-9.29,2.66l-7.43,2.13l-9.29,2.66l0.53,1.86l0.53,1.86l18.63,64.98l37.17,-10.66l-18.63,-64.98l13.01,-3.73zM1163.51,825.13l-9.28,-13.41l-3.9,1.12l4.26,14.85z" />
					<path id="Rectangle" class="shp1" d="M1121.63,885.01l9.61,-2.76l-1.1,-3.84l-9.61,2.76z" />
					<path id="Rectangle" class="shp1" d="M1096.63,892.01l9.61,-2.76l-1.1,-3.84l-9.61,2.76z" />
				</g>
				<g id="Group" style="opacity: 0.302">
					<path id="Shape" class="shp1" d="M1744.63,543.28c6.21,-1.66 12.57,-2.49 19.42,-2.58c2.12,-0.57 8.98,18.39 10.64,19.06c1.63,0.41 4.46,1.48 7.94,2.79c5.94,17.18 -0.65,36.04 -15.66,43.27c-15.89,7.66 -35.05,-0.63 -42.9,-18.56c-1.19,-2.73 -2.06,-5.56 -2.61,-8.48c2.25,-2.79 4.08,-5.02 5.2,-6.15c1.15,-1.44 -2.78,-21.17 -0.59,-21.76c6.3,-3.43 12.36,-5.93 18.56,-7.6zM1718.61,589.87c7.35,16.79 23.16,26.53 38.76,25.41l-3.49,6.89c-1.17,2.31 -0.32,5.47 1.84,6.88l10.5,6.86c2.17,1.42 4.99,0.65 6.16,-1.65l5.66,-11.19c1.17,-2.31 0.32,-5.47 -1.84,-6.88l-6.51,-4.21c16.4,-7.93 24.41,-27.71 20.02,-46.73c9.27,3.63 20.47,8.15 29.65,11.29c16.24,81.97 -95.76,111.98 -122.67,32.87c6.41,-7.36 13.88,-16.93 20.05,-24.72c0.53,1.76 1.14,3.49 1.88,5.18zM1771.93,621.05l-4.2,8.23l-7.71,-5.04l4.15,-8.27z" />
				</g>
				<g id="Group 14" style="opacity: 0.302">
					<path id="Oval" class="shp1" d="M1838.93,234.12c25.15,11.2 37.27,-11.09 48.61,-36.57c11.34,-25.47 -0.98,-68.11 -26.14,-79.31c-25.16,-11.2 -56.56,10.45 -67.9,35.93c-6.76,15.19 -24.37,24.63 -16.93,38.02c5.04,9.06 52.2,37.41 62.36,41.93z" />
					<path id="Shape" class="shp0" d="M1811.9,239.6c-37.34,-16.62 -54.12,-60.38 -37.5,-97.71c16.63,-37.34 60.36,-54.12 97.7,-37.5c37.33,16.62 54.13,60.35 37.51,97.7c-16.62,37.33 -60.38,54.13 -97.7,37.51zM1828.52,145.16c0.59,0.22 1.24,-0.07 1.47,-0.68c0.49,-1.35 1.04,-2.69 1.63,-4.02c1.57,-3.53 3.47,-6.9 5.65,-10.1c1.71,-2.48 3.7,-4.73 5.93,-6.73c2.06,-1.85 4.48,-3.25 7.11,-4.12c1.49,-0.51 3.1,-0.44 4.54,0.2c1.43,0.64 2.57,1.79 3.2,3.24c1.1,2.52 1.67,5.27 1.69,8.03c0.01,3 -0.34,5.98 -1.03,8.92c-0.9,3.76 -2.15,7.43 -3.72,10.96c-0.59,1.33 -1.23,2.63 -1.9,3.9c-0.3,0.55 -0.1,1.23 0.46,1.54c0.55,0.29 1.23,0.1 1.55,-0.47c0.7,-1.33 1.35,-2.67 1.96,-4.04c1.63,-3.65 2.92,-7.46 3.86,-11.36c0.72,-3.1 1.1,-6.26 1.07,-9.43c0,-3.1 -0.63,-6.13 -1.86,-8.96c-0.85,-1.95 -2.4,-3.52 -4.36,-4.39c-1.95,-0.87 -4.15,-0.97 -6.19,-0.31c-2.91,0.99 -5.6,2.55 -7.91,4.62c-2.36,2.11 -4.47,4.5 -6.27,7.12c-2.27,3.31 -4.24,6.82 -5.87,10.47c-0.61,1.37 -1.16,2.75 -1.69,4.16c-0.22,0.58 0.07,1.24 0.66,1.46zM1818.82,200.66l31.48,14.02c0.48,0.21 1.05,-0.01 1.26,-0.5c0.01,-0.02 0.03,-0.06 0.05,-0.1l16.87,-55.91c0.12,-0.46 -0.1,-0.95 -0.53,-1.14l-9.23,-4.11c-0.59,1.29 -1.21,2.58 -1.87,3.81c-0.84,1.56 -2.72,2.11 -4.22,1.31c-1.51,-0.81 -2.06,-2.69 -1.25,-4.19c0.44,-0.84 0.87,-1.71 1.28,-2.56c0.22,-0.49 0.01,-1.05 -0.46,-1.27c-0.02,-0.01 -9.03,-4.02 -9.03,-4.02l-9,-4.01c-0.49,-0.22 -1.06,0 -1.27,0.47c-0.38,0.9 -0.72,1.8 -1.05,2.69c-0.6,1.64 -2.4,2.46 -3.99,1.86c-1.61,-0.61 -2.42,-2.38 -1.81,-3.99c0.48,-1.32 1,-2.66 1.58,-3.95l-9.23,-4.11c-0.43,-0.19 -0.96,-0.03 -1.21,0.37l-30.27,49.95c-0.28,0.44 -0.13,1.04 0.32,1.3c0.03,0.04 0.07,0.05 0.11,0.07zM1879.29,154.96l8.29,3.69l1.26,-2.84l-8.29,-3.69zM1883.33,151.76l3.93,1.75l0.57,-1.29l-3.93,-1.75zM1865.55,179.92l-6.05,20.07l0.79,0.35c0.77,-1.73 2.81,-2.52 4.55,-1.74c1.73,0.77 2.5,2.81 1.73,4.54l3.84,1.71l-3.85,8.66l-6.97,-3.1l-2.84,-1.27l-1.56,5.12l2.24,1l9.05,4.03c0.71,0.32 1.54,0.01 1.86,-0.7l6.88,-15.45c0.62,-1.39 1.04,-2.86 1.24,-4.36l3.22,-23.81c0.2,-1.5 0.62,-2.98 1.24,-4.37l3.68,-8.26l1.26,-2.83l-3,-1.33l-3.01,-1.34l-1.26,2.83l-3.68,8.26c-0.62,1.39 -1.44,2.69 -2.42,3.84z" />
				</g>
				<g id="Shape 2">
					<path id="Shape" class="shp2" d="M1875.95,427.87c-0.12,-0.01 -0.24,-0.02 -0.36,-0.05c-2.04,-0.36 -3.4,-2.32 -3.04,-4.38c0.36,-2.06 2.31,-3.44 4.35,-3.08c2.04,0.36 3.4,2.32 3.04,4.38c-0.1,0.55 -0.31,1.05 -0.6,1.49l8.43,17.81c3.07,-1.08 6.45,-1.41 9.88,-0.8c3,0.53 5.73,1.72 8.05,3.4c-9.5,-1.09 -18.6,2.44 -24.91,8.94c-1.07,-1.22 -2.03,-2.54 -2.86,-3.94c0.31,-0.46 0.64,-0.91 0.99,-1.34l-13.71,-14.08c-0.5,0.13 -1.04,0.16 -1.59,0.06c-2.04,-0.36 -3.4,-2.32 -3.04,-4.38c0.36,-2.06 2.31,-3.44 4.35,-3.08c2.04,0.36 3.4,2.32 3.04,4.38c-0.02,0.12 -0.05,0.24 -0.08,0.36l13.67,14.04c0.87,-0.74 1.81,-1.4 2.79,-1.97zM1901.62,481.51c-3.23,1.21 -6.83,1.61 -10.5,0.96c-8.75,-1.54 -15.14,-8.52 -16.2,-16.75c4.44,5.91 11.09,10.23 19.01,11.63c5.43,0.96 10.77,0.42 15.58,-1.31c-0.04,0.04 -0.08,0.09 -0.12,0.13l6.77,6.78c0.36,0.36 0.36,0.95 -0.01,1.31l-1.32,1.28c-0.38,0.36 -0.97,0.36 -1.33,0l-6.82,-6.83c-0.55,0.42 -1.12,0.81 -1.71,1.17l4.21,8.62c0.22,0.45 0.02,1.01 -0.45,1.23l-1.68,0.78c-0.48,0.22 -1.04,0.02 -1.26,-0.44zM1912.57,459.16c0.44,0.08 0.88,0.17 1.32,0.26c0.16,0.68 0.28,1.38 0.37,2.08c-5.15,2.88 -11.4,4.06 -17.8,2.94c-1.33,-0.23 -2.63,-0.56 -3.87,-0.97c5.52,-3.85 12.65,-5.6 19.99,-4.31zM1883.27,458.73c5.96,-6.1 14.72,-9.25 23.74,-7.66c1.27,0.22 2.5,0.53 3.69,0.92c0.64,0.93 1.2,1.92 1.67,2.95c-9.08,-1.38 -17.88,1.41 -24.4,6.99c-1.69,-0.9 -3.26,-1.98 -4.7,-3.2zM1876.06,455.76c4.38,6.11 11.11,10.6 19.16,12.02c6.5,1.15 12.86,0.12 18.34,-2.55c-0.04,0.37 -0.1,0.74 -0.16,1.11c-0.21,1.2 -0.53,2.35 -0.95,3.45c-5.23,3.18 -11.63,4.55 -18.18,3.39c-8.7,-1.53 -15.64,-7.16 -19.12,-14.51c0.23,-1.01 0.53,-1.98 0.91,-2.91z" />
				</g>
				<g id="Shape 2 Copy">
					<path id="Shape" class="shp2" d="M1538.81,883.26c-0.06,-0.1 -0.12,-0.21 -0.18,-0.31c-0.94,-1.85 -0.19,-4.11 1.67,-5.06c1.86,-0.95 4.14,-0.22 5.08,1.63c0.94,1.85 0.19,4.11 -1.67,5.06c-0.5,0.25 -1.03,0.39 -1.55,0.41l-9.16,17.45c2.71,1.8 5.01,4.31 6.59,7.41c1.38,2.72 2.07,5.61 2.13,8.47c-4.84,-8.25 -13.14,-13.38 -22.13,-14.52c0.33,-1.59 0.81,-3.15 1.42,-4.66c0.56,-0.03 1.11,-0.03 1.67,-0.01l2.99,-19.43c-0.41,-0.32 -0.76,-0.74 -1.01,-1.23c-0.94,-1.85 -0.19,-4.11 1.67,-5.06c1.86,-0.95 4.14,-0.22 5.08,1.63c0.94,1.85 0.19,4.11 -1.67,5.06c-0.11,0.06 -0.22,0.11 -0.33,0.15l-2.98,19.37c1.11,0.25 2.2,0.6 3.25,1.04zM1511.42,936.03c-2.91,-1.85 -5.39,-4.49 -7.08,-7.8c-4.03,-7.91 -2.31,-17.22 3.63,-23.02c-2.05,7.1 -1.5,15.01 2.15,22.18c2.5,4.91 6.14,8.85 10.43,11.65c-0.06,0 -0.12,-0.01 -0.17,-0.01l-1.34,9.48c-0.07,0.5 -0.54,0.86 -1.06,0.78l-1.82,-0.29c-0.52,-0.08 -0.87,-0.56 -0.8,-1.06l1.35,-9.56c-0.67,-0.18 -1.32,-0.4 -1.97,-0.66l-4.35,8.55c-0.23,0.45 -0.79,0.63 -1.25,0.38l-1.63,-0.87c-0.47,-0.25 -0.64,-0.82 -0.41,-1.27zM1535.87,931.33c0.2,0.4 0.4,0.81 0.58,1.21c-0.45,0.54 -0.93,1.06 -1.44,1.54c-5.4,-2.38 -10.1,-6.66 -13.05,-12.45c-0.62,-1.21 -1.13,-2.44 -1.55,-3.68c6.4,2.09 12.09,6.73 15.47,13.37zM1518.57,907.66c8.46,1.09 16.25,6.19 20.4,14.35c0.58,1.15 1.08,2.32 1.48,3.5c-0.36,1.07 -0.81,2.11 -1.35,3.11c-4.36,-8.08 -11.89,-13.43 -20.27,-15.28c-0.3,-1.89 -0.38,-3.8 -0.27,-5.68zM1516.6,900.13c-2.25,7.18 -1.78,15.25 1.93,22.54c2.99,5.88 7.64,10.35 13.07,13.12c-0.32,0.19 -0.65,0.37 -0.98,0.54c-1.08,0.55 -2.2,0.99 -3.33,1.32c-5.69,-2.26 -10.63,-6.55 -13.65,-12.48c-4.01,-7.87 -3.69,-16.8 0.08,-24c0.94,-0.43 1.9,-0.77 2.87,-1.03z" />
				</g>
				<g id="Group" style="opacity: 0.302">
					<path id="Shape" class="shp1" d="M1940.27,967.02l-4.68,8.11l-122.11,-70.5l4.69,-8.11l5.43,3.13l2.34,-4.06l9.5,5.48l28.89,-50.04l-5.43,-3.13l3.12,-5.41l14.8,-13.1l6.78,3.92l3.9,-6.76l20.35,11.75l4.68,-8.11l37.99,21.93l-4.68,8.11l20.35,11.75l-3.9,6.76l6.78,3.92l-3.94,19.36l-3.12,5.41l-5.43,-3.13l-28.89,50.04l9.5,5.48l-2.34,4.06zM1940.71,887.93l6.78,3.92l6.25,-10.82l-6.78,-3.92zM1928.5,880.88l6.78,3.92l6.25,-10.82l-6.78,-3.92zM1916.29,873.83l6.78,3.92l6.25,-10.82l-6.78,-3.92zM1891.86,859.73l6.78,3.92l6.25,-10.82l-6.78,-3.92zM1879.65,852.68l6.78,3.92l6.25,-10.82l-6.78,-3.92zM1867.71,845.79l6.51,3.76l6.25,-10.82l-2.85,-1.64zM1907.74,876.11l-6.78,-3.92l-5.43,-3.13l-6.78,-3.92l-5.43,-3.13l-6.78,-3.92l-5.43,-3.13l-1.56,2.7l9.5,5.48l-27.33,47.34l27.14,15.67l27.33,-47.33l0.78,-1.35zM1917.11,859.88l-6.78,-3.92l-6.25,10.82l6.78,3.92zM1949.8,900.39l-5.43,-3.13l-6.78,-3.92l-5.43,-3.13l-6.78,-3.92l-5.43,-3.13l-6.78,-3.92l-0.78,1.35l-0.78,1.35l-27.33,47.33l27.14,15.67l27.33,-47.33l9.5,5.48zM1959.43,898.74l2.58,-12.93l-2.85,-1.64l-6.25,10.82z" />
					<path id="Rectangle" class="shp1" d="M1900.66,907.63l6.93,4l1.5,-2.6l-6.93,-4z" />
					<path id="Rectangle" class="shp1" d="M1882.47,897.13l6.93,4l1.5,-2.6l-6.93,-4z" />
				</g>
				<g id="Group" style="opacity: 0.302">
					<path id="Shape" class="shp1" d="M1467.67,159.34l1.95,9.17l-137.92,29.32l-1.95,-9.17l6.13,-1.3l-0.97,-4.58l10.73,-2.28l-12.01,-56.52l-6.13,1.3l-1.3,-6.11l2.23,-19.63l7.66,-1.63l-1.62,-7.64l22.99,-4.89l-1.95,-9.17l42.91,-9.12l1.95,9.17l22.99,-4.89l1.62,7.64l7.66,-1.63l10.03,17.03l1.3,6.11l-6.13,1.3l12.01,56.52l10.73,-2.28l0.97,4.58zM1415.08,100.28l7.66,-1.63l-2.6,-12.22l-7.66,1.63zM1401.28,103.21l7.66,-1.63l-2.6,-12.22l-7.66,1.63zM1387.49,106.14l7.66,-1.63l-2.6,-12.22l-7.66,1.63zM1359.91,112l7.66,-1.63l-2.6,-12.22l-7.66,1.63zM1346.12,114.93l7.66,-1.63l-2.6,-12.22l-7.66,1.63zM1332.63,117.8l7.36,-1.56l-2.6,-12.22l-3.22,0.68zM1382.66,113.55l-7.66,1.63l-6.13,1.3l-7.66,1.63l-6.13,1.3l-7.66,1.63l-6.13,1.3l0.65,3.06l10.73,-2.28l11.36,53.46l30.65,-6.51l-11.36,-53.46l-0.32,-1.53zM1378.76,95.22l-7.66,1.63l2.6,12.22l7.66,-1.63zM1430.17,103.45l-6.13,1.3l-7.66,1.63l-6.13,1.3l-7.66,1.63l-6.13,1.3l-7.66,1.63l0.32,1.53l0.32,1.53l11.36,53.46l30.65,-6.51l-11.36,-53.46l10.73,-2.28zM1436.22,95.78l-6.73,-11.34l-3.22,0.68l2.6,12.22z" />
					<path id="Rectangle" class="shp1" d="M1398.49,141.71l7.83,-1.66l-0.62,-2.93l-7.83,1.66z" />
					<path id="Rectangle" class="shp1" d="M1377.95,146.08l7.83,-1.66l-0.62,-2.93l-7.83,1.66z" />
				</g>
			</g>
		</g>
		<g id="content">
		</g>
	</g>
</svg>