<svg xmlns="http://www.w3.org/2000/svg" viewBox="0 0 99 99" width="99" height="99">
	<style>
		tspan { white-space:pre }
		.shp0 { fill: #997362 } 
		.shp1 { fill: #ffffff } 
	</style>
	<g id="-e-ic_crafts">
		<path id="Oval" class="shp0" d="M50,99c27.06,0 49,-21.94 49,-49c0,-27.06 -21.94,-49 -49,-49c-27.06,0 -49,21.94 -49,49c0,27.06 21.94,49 49,49z" />
		<path id="Shape" class="shp1" d="M75.45,32.44c-0.01,-0.12 -0.02,-0.24 -0.02,-0.36c0,-2.07 1.69,-3.75 3.79,-3.75c2.09,0 3.79,1.68 3.79,3.75c0,2.07 -1.69,3.75 -3.79,3.75c-0.56,0 -1.09,-0.12 -1.57,-0.34l-16.08,11.39c1.6,2.84 2.51,6.11 2.51,9.59c0,3.05 -0.7,5.94 -1.95,8.52c-0.57,-9.55 -5.64,-17.89 -13.13,-22.98c1.02,-1.27 2.15,-2.44 3.38,-3.5c0.51,0.23 1.01,0.48 1.49,0.75l11.49,-15.95c-0.22,-0.47 -0.34,-1 -0.34,-1.56c0,-2.07 1.69,-3.75 3.79,-3.75c2.09,0 3.79,1.68 3.79,3.75c0,2.07 -1.69,3.75 -3.79,3.75c-0.12,0 -0.25,-0.01 -0.37,-0.02l-11.45,15.9c0.88,0.73 1.69,1.54 2.43,2.41zM27.08,67.03c-1.76,-2.97 -2.77,-6.45 -2.77,-10.17c0,-8.88 5.76,-16.39 13.68,-18.86c-5.05,5.39 -8.15,12.7 -8.15,20.74c0,5.51 1.46,10.68 4,15.12c-0.05,-0.03 -0.1,-0.06 -0.15,-0.09l-5.5,7.84c-0.29,0.42 -0.88,0.52 -1.29,0.21l-1.49,-1.08c-0.42,-0.31 -0.52,-0.89 -0.23,-1.31l5.54,-7.9c-0.51,-0.47 -0.99,-0.96 -1.45,-1.48l-7.76,5.64c-0.41,0.3 -0.99,0.2 -1.29,-0.23l-1.06,-1.51c-0.3,-0.43 -0.2,-1.02 0.21,-1.32zM51,73.94c0,0.45 -0.01,0.9 -0.03,1.34c-0.65,0.28 -1.31,0.52 -1.99,0.72c-3.73,-4.57 -5.98,-10.52 -5.98,-17.01c0,-1.35 0.1,-2.69 0.29,-3.98c4.75,4.76 7.71,11.49 7.71,18.94zM46.33,45c7.04,4.81 11.67,12.89 11.67,22.05c0,1.29 -0.09,2.55 -0.27,3.79c-0.81,0.79 -1.68,1.51 -2.61,2.16c-0.21,-9.18 -4.5,-17.36 -11.12,-22.82c0.6,-1.82 1.38,-3.56 2.34,-5.18zM48,37.39c-5.26,5.38 -8.51,12.78 -8.51,20.96c0,6.6 2.11,12.69 5.69,17.62c-0.37,0.02 -0.74,0.03 -1.12,0.03c-1.22,0 -2.41,-0.11 -3.56,-0.33c-4.04,-4.6 -6.5,-10.67 -6.5,-17.32c0,-8.84 4.34,-16.65 10.97,-21.35c1.03,0.05 2.04,0.18 3.03,0.39z" />
	</g>
</svg>