<svg xmlns="http://www.w3.org/2000/svg" viewBox="0 0 99 99" width="99" height="99">
	<style>
		tspan { white-space:pre }
		.shp0 { fill: #00a992 } 
		.shp1 { fill: #ffffff } 
	</style>
	<g id="-e-ic_artisan">
		<path id="Oval" class="shp0" d="M50,99c27.06,0 49,-21.94 49,-49c0,-27.06 -21.94,-49 -49,-49c-27.06,0 -49,21.94 -49,49c0,27.06 21.94,49 49,49z" />
		<path id="Shape" class="shp1" d="M51.96,23c3.34,0 6.64,0.44 10.1,1.31c1.14,0 2.04,10.4 2.78,10.96c0.76,0.42 2.04,1.34 3.61,2.46c0.67,9.39 -5.17,17.93 -13.68,19.53c-9.01,1.7 -17.51,-5.01 -19.04,-15.03c-0.23,-1.52 -0.28,-3.06 -0.17,-4.59c1.51,-1.09 2.73,-1.96 3.44,-2.38c0.77,-0.57 1.45,-10.96 2.63,-10.96c3.62,-0.87 7,-1.31 10.34,-1.31zM32.63,42.81c1.43,9.38 8.06,16.37 16.04,17.89l-2.68,2.98c-0.9,1 -0.9,2.69 0,3.69l4.35,4.84c0.9,1 2.42,1 3.32,0l4.35,-4.84c0.9,-1 0.9,-2.69 0,-3.69l-2.7,-2.98c9.3,-1.77 15.98,-10.59 16.33,-20.68c4.16,3.06 9.18,6.82 13.36,9.62c-2.87,43.15 -63.13,43.15 -66,0c4.21,-2.82 9.25,-6.61 13.39,-9.67c0.03,0.95 0.1,1.9 0.25,2.84zM55.21,65.54l-3.22,3.55l-3.19,-3.55l3.19,-3.58z" />
	</g>
</svg>