<?xml version="1.0" encoding="UTF-8"?>
<svg width="98px" height="98px" viewBox="0 0 98 98" version="1.1" xmlns="http://www.w3.org/2000/svg" xmlns:xlink="http://www.w3.org/1999/xlink">
    <!-- Generator: Sketch 53.2 (72643) - https://sketchapp.com -->
    <title>ic_duty free</title>
    <desc>Created with Sketch.</desc>
    <g id="desktop" stroke="none" stroke-width="1" fill="none" fill-rule="evenodd">
        <g id="shopping-1" transform="translate(-267.000000, -133.000000)" fill="#EF2947" fill-rule="nonzero">
            <g id="navigation" transform="translate(72.000000, 88.000000)">
                <g id="#1" transform="translate(183.000000, 33.000000)">
                    <g id="ic_duty-free" transform="translate(12.000000, 12.000000)">
                        <path d="M49,98 C21.9378954,98 0,76.0512083 0,48.9959997 C0,21.9287901 21.9388955,0 49,0 C76.0551043,0.00100008164 98,21.9287901 98,48.9959997 C98,76.0512083 76.0551043,98 49,98 Z M33.6193722,36.3939709 C34.0373893,36.3709691 34.349402,36.0189403 34.323401,35.5869051 C34.2573983,34.6368275 34.2303972,33.6807494 34.2303972,32.7176708 C34.2303972,30.1604621 34.4684069,27.6072537 34.9304257,25.0870479 C35.2954406,23.1238877 35.8964652,21.2257327 36.7064982,19.4155849 C37.4565288,17.7444485 38.5425732,16.2403257 39.8946284,15.0092252 C40.6556594,14.2981672 41.6547002,13.9091354 42.6977428,13.9091354 C43.732785,13.9091354 44.735826,14.2981672 45.5038573,15.0092252 C46.8489122,16.2403257 47.9339565,17.7444485 48.6879873,19.4155849 C49.5010204,21.2257327 50.0960447,23.1238877 50.4680599,25.0870479 C50.936079,27.6072537 51.1710886,30.1604621 51.1710886,32.7176708 C51.1710886,33.6807494 51.1350871,34.6368275 51.0680844,35.5869051 C51.0350831,36.0019389 51.3400955,36.3599682 51.7621127,36.3939709 C52.1701294,36.4229733 52.529144,36.1219487 52.5721458,35.6899135 C52.6381485,34.6968324 52.6721499,33.7107519 52.6721499,32.7176708 C52.6721499,30.0714548 52.43014,27.4182382 51.9451202,24.8050249 C51.549104,22.7368561 50.9250786,20.7236917 50.0550431,18.8115356 C49.2180089,16.9383827 48.01996,15.2712466 46.5158986,13.8901339 C45.4758562,12.9410564 44.1148006,12.4100131 42.6977428,12.4100131 C41.282685,12.4100131 39.9256296,12.9410564 38.8725866,13.8901339 C37.3785257,15.2712466 36.1734765,16.9383827 35.3324421,18.8115356 C34.4734071,20.7236917 33.8383812,22.7368561 33.4563656,24.8050249 C32.9723458,27.4182382 32.7263358,30.0714548 32.7263358,32.7176708 C32.7263358,33.711752 32.7633373,34.6968324 32.8253398,35.6899135 C32.8483407,36.1019471 33.2013552,36.4199731 33.6193722,36.3939709 Z M42.6977428,72.5819251 L65.5186742,72.5819251 C65.8636883,72.5819251 66.1497,72.2929015 66.1497,71.9408727 C66.1497,71.9228713 66.1497,71.8938689 66.1497,71.8648665 L61.2955019,33.5017348 C61.2454998,33.1927096 60.9774889,32.9536901 60.6644761,32.9536901 L53.9712029,32.9536901 C53.9642026,33.8907666 53.9312013,34.8408442 53.8651986,35.7659197 C53.778195,36.9320149 52.7891547,37.7750837 51.6671089,37.6920769 C50.5350627,37.6090701 49.6940283,36.6169891 49.7810319,35.4938975 C49.8210335,34.8668463 49.8470346,34.2257939 49.8670354,33.5977427 C49.8670354,33.2457139 49.5920242,32.9566903 49.24601,32.95269 C49.2290093,32.95269 42.6987428,32.95269 42.6987428,32.95269 L36.1744765,32.95269 C35.819462,32.95269 35.5324503,33.2387134 35.5324503,33.5807413 C35.5464509,34.2257939 35.5794522,34.8658462 35.6194539,35.4928974 C35.695457,36.6449914 34.8294216,37.6250714 33.7063758,37.6910768 C32.5713294,37.7570822 31.6022899,36.9010123 31.5352872,35.7649196 C31.4692845,34.838844 31.4262827,33.8887664 31.4262827,32.95269 L24.7360096,32.95269 C24.4239969,32.95269 24.1439855,33.1917095 24.1049839,33.5007348 L19.2487857,71.8648665 C19.1987836,72.2028941 19.4477938,72.5309209 19.7928079,72.5679239 C19.819809,72.5819251 19.8498102,72.5819251 19.8798114,72.5819251 L42.6977428,72.5819251 Z M66.9667333,28.653339 L72.9769787,28.653339 L72.9769787,26.5981713 L66.9667333,26.5981713 L66.9667333,28.653339 Z M68.550798,25.6260919 L71.3999143,25.6260919 L71.3999143,24.6920157 L68.550798,24.6920157 L68.550798,25.6260919 Z M65.3796686,47.4478733 L67.1227397,61.2179974 L67.693763,61.2179974 C67.693763,59.963895 68.7138046,58.9408115 69.9808564,58.9408115 C71.2369076,58.9408115 72.2519491,59.963895 72.2519491,61.2179974 L75.0340626,61.2179974 L75.0340626,67.4935097 L69.9798563,67.4935097 L67.9207723,67.4935097 L68.3567901,71.0077966 L69.9798563,71.0077966 L76.538124,71.0077966 C77.053145,71.0077966 77.4721621,70.5957629 77.4721621,70.081721 L77.4721621,58.8818067 C77.4721621,57.8777247 77.3291563,56.8716426 77.0471448,55.908564 L72.5809625,40.6373173 C72.2949508,39.677239 72.151945,38.6711568 72.151945,37.6620745 L72.151945,31.6715854 L72.151945,29.6224182 L69.9798563,29.6224182 L67.7987673,29.6224182 L67.7987673,31.6715854 L67.7987673,37.6620745 C67.7987673,38.6711568 67.6547614,39.677239 67.3667497,40.6373173 L65.3796686,47.4478733 Z" id="Shape"></path>
                    </g>
                </g>
            </g>
        </g>
    </g>
</svg>