<svg width="98px" height="98px" viewBox="0 0 98 98" version="1.1" xmlns="http://www.w3.org/2000/svg" xmlns:xlink="http://www.w3.org/1999/xlink">
   <g id="desktop" stroke="none" stroke-width="1" fill="none" fill-rule="evenodd">
       <g id="shopping-1" transform="translate(-1347.000000, -133.000000)">
           <g id="navigation" transform="translate(72.000000, 88.000000)">
               <g id="#4" transform="translate(1263.000000, 33.000000)">
                   <g id="ic_retails" transform="translate(12.000000, 12.000000)">
                       <circle id="Oval-Copy" fill="#EDA8CD" fill-rule="nonzero" cx="49" cy="49" r="49"></circle>
                       <path d="M78.1555556,70.6444444 L78.1555556,68.5111111 L73.1777778,68.5111111 L73.1777778,42.2 L76.0222222,42.2 L76.0222222,39.3555556 L73.1777778,30.8222222 L69.6222222,30.8222222 L69.6222222,27.2666667 L58.9555556,27.2666667 L58.9555556,23 L39.0444444,23 L39.0444444,27.2666667 L28.3777778,27.2666667 L28.3777778,30.8222222 L24.8222222,30.8222222 L21.9777778,39.3555556 L21.9777778,42.2 L24.8222222,42.2 L24.8222222,68.5111111 L19.8444444,68.5111111 L19.8444444,70.6444444 L17,70.6444444 L17,74.9111111 L81,74.9111111 L81,70.6444444 L78.1555556,70.6444444 Z M63.2222222,33.6666667 L66.7777778,33.6666667 L66.7777778,39.3555556 L63.2222222,39.3555556 L63.2222222,33.6666667 Z M56.8222222,33.6666667 L60.3777778,33.6666667 L60.3777778,39.3555556 L56.8222222,39.3555556 L56.8222222,33.6666667 Z M50.4222222,33.6666667 L53.9777778,33.6666667 L53.9777778,39.3555556 L50.4222222,39.3555556 L50.4222222,33.6666667 Z M37.6222222,33.6666667 L41.1777778,33.6666667 L41.1777778,39.3555556 L37.6222222,39.3555556 L37.6222222,33.6666667 Z M31.2222222,33.6666667 L34.7777778,33.6666667 L34.7777778,39.3555556 L31.2222222,39.3555556 L31.2222222,33.6666667 Z M26.8844444,33.6666667 L28.3777778,33.6666667 L28.3777778,39.3555556 L24.9644444,39.3555556 L26.8844444,33.6666667 Z M47.5777778,42.9111111 L47.5777778,43.6222222 L47.5777778,68.5111111 L33.3555556,68.5111111 L33.3555556,43.6222222 L28.3777778,43.6222222 L28.3777778,42.2 L31.2222222,42.2 L34.7777778,42.2 L37.6222222,42.2 L41.1777778,42.2 L44.0222222,42.2 L47.5777778,42.2 L47.5777778,42.9111111 Z M47.5777778,39.3555556 L44.0222222,39.3555556 L44.0222222,33.6666667 L47.5777778,33.6666667 L47.5777778,39.3555556 Z M69.6222222,43.6222222 L64.6444444,43.6222222 L64.6444444,68.5111111 L50.4222222,68.5111111 L50.4222222,43.6222222 L50.4222222,42.9111111 L50.4222222,42.2 L53.9777778,42.2 L56.8222222,42.2 L60.3777778,42.2 L63.2222222,42.2 L66.7777778,42.2 L69.6222222,42.2 L69.6222222,43.6222222 Z M69.6222222,39.3555556 L69.6222222,33.6666667 L71.1155556,33.6666667 L73.0355556,39.3555556 L69.6222222,39.3555556 Z" id="Shape" fill="#FFFFFF" fill-rule="nonzero"></path>
                       <rect id="Rectangle" fill="#FFFFFF" x="51.8444444" y="55" width="3.55555556" height="1.42222222"></rect>
                       <rect id="Rectangle" fill="#FFFFFF" x="42.6" y="55" width="3.55555556" height="1.42222222"></rect>
                   </g>
               </g>
           </g>
       </g>
   </g>
</svg>