<svg xmlns="http://www.w3.org/2000/svg" width="24" height="24" viewBox="0 0 24 24">
    <path fill="#D3D3D4" fill-rule="nonzero" d="M17.36 6.8V3.44a.48.48 0 0 0-.54-.476L4.206 4.528A1.439 1.439 0 0 0 2.96 5.955V7.28c.401-.301.9-.48 1.44-.48h12.96zm.96 0h1.44a2.4 2.4 0 0 1 2.4 2.4v9.6a2.4 2.4 0 0 1-2.4 2.4H4.4A2.4 2.4 0 0 1 2 18.8V5.955a2.4 2.4 0 0 1 2.083-2.38l12.62-1.564A1.44 1.44 0 0 1 18.32 3.44V6.8zm2.88 2.4a1.44 1.44 0 0 0-1.44-1.44H4.4A1.44 1.44 0 0 0 2.96 9.2v9.6c0 .795.645 1.44 1.44 1.44h15.36a1.44 1.44 0 0 0 1.44-1.44v-1.44h-4.32a3.36 3.36 0 0 1 0-6.72h4.32V9.2zm-4.32 2.4a2.4 2.4 0 1 0 0 4.8h4.32v-4.8h-4.32zm0 2.88a.48.48 0 1 1 0-.96.48.48 0 0 1 0 .96z"/>
</svg>
