<svg xmlns="http://www.w3.org/2000/svg" viewBox="0 0 316 313" width="316" height="313">
	<style>
		tspan { white-space:pre }
		.shp0 { fill: #ef2947 } 
	</style>
	<path id="-e-ic_duty free" class="shp0" d="M129.36,81.34c1.68,-4.29 3.45,-8.49 5.4,-12.66c5.18,-11.1 11.39,-21.75 18.53,-31.76c5.64,-7.93 12.23,-15.14 19.56,-21.48c7.18,-6.22 15.48,-10.86 24.42,-13.74c6.26,-1.93 12.97,-1.51 18.89,1.25c5.92,2.76 10.57,7.64 13.07,13.65c3.59,8.72 5.33,18.05 5.17,27.54c-0.1,9.72 -1.43,19.38 -3.82,28.82c-3.08,11.91 -7.26,23.5 -12.44,34.6c-1.94,4.17 -4.01,8.23 -6.23,12.27c-1.02,1.73 -3.11,2.29 -4.76,1.37c-1.7,-0.97 -2.27,-3.06 -1.32,-4.74c2.14,-3.85 4.16,-7.79 6.04,-11.83c5,-10.73 9.01,-21.89 11.98,-33.37c2.28,-8.96 3.51,-18.08 3.65,-27.26c0.12,-8.48 -1.48,-16.9 -4.69,-24.69c-1.82,-4.48 -5.25,-8.07 -9.58,-10.08c-4.36,-2.03 -9.3,-2.35 -13.87,-0.85c-8.06,2.53 -15.54,6.72 -21.95,12.27c-6.93,6.01 -13.15,12.8 -18.52,20.32c-6.86,9.67 -12.85,19.91 -17.85,30.64c-1.88,4.04 -3.64,8.1 -5.22,12.22c-0.74,1.86 -2.73,2.73 -4.52,2.01c-1.8,-0.71 -2.65,-2.73 -1.94,-4.5zM2.67,210.52c-0.13,-0.06 -0.25,-0.12 -0.34,-0.23c-1.37,-0.83 -1.77,-2.7 -0.9,-4.02l95.64,-151.94c0.77,-1.22 2.41,-1.68 3.72,-1.07l28.05,13.08c-1.84,3.94 -3.52,8.02 -5.06,12.05c-1.95,4.91 0.43,10.41 5.32,12.35c4.84,1.92 10.39,-0.51 12.33,-5.51c1.06,-2.72 2.18,-5.48 3.39,-8.22c0.67,-1.44 2.44,-2.08 3.92,-1.39l27.35,12.76c0,0 27.38,12.77 27.45,12.8c1.44,0.69 2.03,2.45 1.34,3.93c-1.32,2.6 -2.68,5.25 -4.08,7.81c-2.57,4.56 -0.99,10.37 3.59,12.94c4.54,2.54 10.34,0.93 13,-3.81c2.09,-3.76 4.09,-7.7 5.96,-11.63l28.06,13.09c1.31,0.61 1.97,2.14 1.57,3.54l-54.93,170.92c-0.06,0.12 -0.11,0.24 -0.15,0.32c-0.69,1.48 -2.46,2.14 -3.9,1.46l-95.68,-44.62zM290.88,108.46l24.47,11.41l-3.8,8.16l-24.47,-11.41zM301.31,103.38l11.78,5.49l-1.97,4.23l-11.78,-5.49zM264.46,167.25c3.07,-3.48 5.64,-7.44 7.61,-11.68l11.75,-25.19l4.02,-8.62l8.99,4.19l8.95,4.18l-4.02,8.62l-11.75,25.19c-1.98,4.24 -3.36,8.75 -4.07,13.33l-11.53,72.79c-0.73,4.59 -2.11,9.1 -4.08,13.32l-21.96,47.09c-1.01,2.16 -3.54,3.09 -5.67,2.1l-27.03,-12.61l-6.69,-3.12l5.09,-15.61l8.49,3.96l20.83,9.72l12.3,-26.39l-11.47,-5.35c2.46,-5.27 0.28,-11.53 -4.9,-13.94c-5.22,-2.44 -11.43,-0.09 -13.89,5.18l-2.35,-1.1l19.81,-61.25z" />
</svg>