<svg xmlns="http://www.w3.org/2000/svg" viewBox="0 0 1070 549" width="1070" height="549">
	<defs>
		<clipPath clipPathUnits="userSpaceOnUse" id="cp1">
			<path d="M95.37,492.03h974v-462h-974z" />
		</clipPath>
	</defs>
	<style>
		tspan { white-space:nowrap }
		.shp0 { opacity: 0.102;fill: #ef2947 } 
		.shp1 { opacity: 0.2;fill: #ef2947 } 
	</style>
	<g id="bg">
		<path id="Mask" class="shp0" d="M95.37,492.03h974v-462h-974z" />
		<g id="Mask by Mask" clip-path="url(#cp1)">
			<path id="Shape Copy 20" class="shp1" d="M939.71,362.06c0.07,-2.78 0.21,-5.53 0.45,-8.29c0.64,-7.36 1.97,-14.69 3.93,-21.84c1.55,-5.66 3.79,-11.11 6.61,-16.23c2.77,-5.01 6.48,-9.36 10.92,-12.84c3.12,-2.39 6.98,-3.54 10.87,-3.2c3.89,0.34 7.5,2.15 10.13,5.04c3.8,4.2 6.68,9.13 8.52,14.55c1.92,5.53 3.15,11.28 3.73,17.13c0.7,7.39 0.72,14.83 0.07,22.19c-0.24,2.76 -0.58,5.5 -1,8.25c-0.22,1.19 -1.28,1.94 -2.4,1.76c-1.15,-0.2 -1.9,-1.27 -1.71,-2.41c0.42,-2.63 0.75,-5.28 0.98,-7.96c0.62,-7.12 0.6,-14.28 -0.07,-21.4c-0.54,-5.55 -1.72,-10.98 -3.51,-16.21c-1.66,-4.83 -4.28,-9.28 -7.67,-13.03c-1.94,-2.16 -4.6,-3.49 -7.44,-3.74c-2.87,-0.25 -5.7,0.59 -7.97,2.39c-4.01,3.1 -7.36,7.02 -9.83,11.49c-2.67,4.84 -4.78,9.98 -6.26,15.36c-1.88,6.9 -3.16,13.95 -3.78,21.07c-0.23,2.68 -0.39,5.35 -0.44,8.01c-0.03,1.21 -0.98,2.11 -2.13,2.08c-1.15,-0.03 -2.05,-1 -2.01,-2.15zM895.13,464.21c-0.08,-0.01 -0.17,-0.01 -0.24,-0.06c-0.94,-0.19 -1.55,-1.16 -1.33,-2.09l22.77,-105.87c0.18,-0.85 1.01,-1.45 1.88,-1.38l18.47,1.62c-0.23,2.61 -0.34,5.27 -0.39,7.87c-0.09,3.19 2.37,5.81 5.52,5.9c3.12,0.09 5.75,-2.44 5.82,-5.67c0.04,-1.76 0.11,-3.55 0.23,-5.36c0.08,-0.95 0.95,-1.68 1.93,-1.6l18.01,1.58c0,0 18.03,1.58 18.08,1.58c0.95,0.1 1.64,0.97 1.56,1.95c-0.21,1.75 -0.44,3.53 -0.7,5.27c-0.51,3.11 1.57,6.08 4.67,6.59c3.08,0.5 6.01,-1.61 6.54,-4.84c0.41,-2.57 0.73,-5.21 0.98,-7.82l18.48,1.62c0.86,0.08 1.55,0.81 1.61,1.68l4.04,108.22c-0.01,0.08 -0.01,0.16 -0.02,0.21c-0.09,0.98 -0.95,1.72 -1.9,1.64l-63.01,-5.51zM1036.84,345.81l15.94,1.39l-0.44,4.98l-15.94,-1.39zM1040.99,341.18l7.97,0.7l-0.24,2.79l-7.97,-0.7zM1034.35,384.38c1.04,-2.63 1.69,-5.43 1.94,-8.27l1.48,-16.87l0.5,-5.77l6.11,0.53l6.08,0.53l-0.51,5.77l-1.48,16.87c-0.25,2.84 -0.1,5.71 0.47,8.48l8.75,44.1c0.55,2.78 0.71,5.65 0.46,8.48l-2.76,31.54c-0.13,1.45 -1.4,2.51 -2.84,2.38l-18.37,-1.61l-4.55,-0.4l-0.36,-10l5.77,0.5l14.16,1.24l1.55,-17.67l-7.79,-0.68c0.31,-3.53 -2.28,-6.66 -5.8,-6.97c-3.55,-0.31 -6.66,2.32 -6.97,5.85l-1.6,-0.14l-1.49,-39.21z" />
			<path id="Shape Copy 22" class="shp1" d="M639.23,67.11c1,-3.38 2.07,-6.71 3.28,-10.02c3.21,-8.81 7.23,-17.35 12,-25.47c3.77,-6.43 8.3,-12.37 13.45,-17.71c5.04,-5.23 11.04,-9.33 17.64,-12.14c4.62,-1.9 9.74,-2.04 14.41,-0.34c4.67,1.7 8.52,5.1 10.8,9.51c3.29,6.4 5.22,13.39 5.71,20.64c0.55,7.41 0.17,14.86 -1.03,22.23c-1.57,9.28 -3.99,18.41 -7.19,27.22c-1.2,3.31 -2.51,6.55 -3.93,9.78c-0.67,1.39 -2.21,1.96 -3.52,1.37c-1.35,-0.62 -1.92,-2.18 -1.31,-3.52c1.37,-3.08 2.65,-6.22 3.82,-9.43c3.1,-8.52 5.42,-17.3 6.93,-26.25c1.15,-6.98 1.49,-14.02 1,-21.02c-0.46,-6.47 -2.22,-12.78 -5.16,-18.5c-1.67,-3.29 -4.51,-5.79 -7.92,-7.03c-3.44,-1.25 -7.21,-1.16 -10.58,0.3c-5.95,2.48 -11.36,6.18 -15.85,10.85c-4.87,5.06 -9.15,10.66 -12.73,16.75c-4.58,7.84 -8.46,16.05 -11.56,24.57c-1.17,3.21 -2.24,6.42 -3.17,9.67c-0.44,1.47 -1.89,2.27 -3.3,1.84c-1.41,-0.41 -2.19,-1.9 -1.77,-3.3zM550.49,176c-0.1,-0.04 -0.2,-0.07 -0.27,-0.15c-1.1,-0.54 -1.53,-1.94 -0.95,-3.01l62.83,-122.39c0.51,-0.99 1.73,-1.45 2.77,-1.07l22.25,8.1c-1.14,3.13 -2.15,6.36 -3.06,9.53c-1.16,3.88 1.02,7.91 4.88,9.07c3.82,1.14 7.89,-1.09 9.04,-5.03c0.63,-2.15 1.3,-4.33 2.04,-6.5c0.42,-1.14 1.72,-1.75 2.9,-1.32l21.7,7.9c0,0 21.72,7.9 21.77,7.92c1.15,0.43 1.71,1.73 1.28,2.91c-0.83,2.08 -1.7,4.19 -2.59,6.24c-1.66,3.65 -0.07,7.98 3.6,9.63c3.63,1.64 7.95,0.01 9.65,-3.78c1.35,-3.01 2.61,-6.15 3.77,-9.27l22.26,8.1c1.04,0.38 1.64,1.5 1.43,2.6l-30.54,134.14c-0.04,0.1 -0.07,0.19 -0.09,0.25c-0.43,1.18 -1.73,1.8 -2.88,1.38l-75.89,-27.62zM764.27,78.66l18.79,6.84l-2.39,6.58l-18.79,-6.84zM770.25,74.34l9.4,3.42l-0.96,2.63l-9.4,-3.42zM748.25,125.41c2.14,-2.88 3.85,-6.08 5.08,-9.47l7.33,-20.13l2.51,-6.89l7.29,2.65l7.26,2.64l-2.51,6.89l-7.33,20.13c-1.23,3.39 -1.99,6.95 -2.21,10.52l-3.75,56.75c-0.24,3.58 -0.99,7.13 -2.22,10.51l-13.7,37.64c-0.63,1.73 -2.53,2.6 -4.25,1.98l-21.91,-7.98l-5.42,-1.97l2.84,-12.34l6.88,2.5l16.89,6.15l7.68,-21.09l-9.3,-3.38c1.53,-4.21 -0.61,-8.89 -4.8,-10.41c-4.23,-1.54 -8.89,0.66 -10.43,4.87l-1.91,-0.69l11.02,-48.39z" />
			<path id="Shape Copy 16" class="shp1" d="M572.63,525.76c-2.32,1.53 -4.65,3 -7.05,4.39c-6.4,3.7 -13.16,6.81 -20.15,9.31c-5.53,1.98 -11.28,3.27 -17.09,3.89c-5.69,0.61 -11.39,0.06 -16.79,-1.58c-3.75,-1.19 -6.9,-3.69 -8.85,-7.07c-1.95,-3.38 -2.55,-7.38 -1.68,-11.19c1.27,-5.52 3.65,-10.71 7.03,-15.33c3.43,-4.75 7.44,-9.05 11.89,-12.88c5.65,-4.81 11.74,-9.09 18.14,-12.79c2.4,-1.39 4.83,-2.68 7.33,-3.91c1.1,-0.5 2.33,-0.06 2.82,0.95c0.5,1.06 0.05,2.28 -1,2.78c-2.39,1.17 -4.75,2.42 -7.08,3.76c-6.19,3.57 -12.04,7.7 -17.49,12.34c-4.24,3.63 -8.01,7.7 -11.27,12.17c-3,4.13 -5.15,8.83 -6.27,13.76c-0.66,2.83 -0.22,5.77 1.21,8.24c1.44,2.49 3.76,4.33 6.53,5.16c4.84,1.51 9.98,2 15.05,1.46c5.5,-0.59 10.92,-1.81 16.17,-3.68c6.73,-2.42 13.24,-5.41 19.42,-8.99c2.33,-1.34 4.61,-2.74 6.81,-4.23c1.01,-0.67 2.29,-0.41 2.92,0.55c0.64,0.96 0.36,2.25 -0.61,2.88zM681.89,503.69c0.04,0.07 0.08,0.14 0.09,0.23c0.39,0.88 -0.06,1.94 -0.95,2.29l-99.79,42.07c-0.8,0.34 -1.77,0 -2.2,-0.75l-9.27,-16.06c2.27,-1.31 4.52,-2.74 6.67,-4.2c2.66,-1.75 3.4,-5.28 1.66,-7.91c-1.72,-2.6 -5.29,-3.31 -7.98,-1.51c-1.47,0.97 -2.97,1.95 -4.52,2.89c-0.83,0.48 -1.92,0.19 -2.41,-0.66l-9.04,-15.66c0,0 -9.05,-15.67 -9.07,-15.71c-0.47,-0.84 -0.15,-1.9 0.7,-2.39c1.55,-0.83 3.14,-1.67 4.72,-2.45c2.84,-1.36 4.09,-4.77 2.72,-7.61c-1.35,-2.81 -4.77,-4 -7.72,-2.58c-2.34,1.14 -4.69,2.39 -6.97,3.68l-9.27,-16.06c-0.43,-0.75 -0.23,-1.73 0.45,-2.28l86.33,-65.38c0.07,-0.04 0.14,-0.08 0.18,-0.11c0.85,-0.49 1.95,-0.21 2.43,0.62l31.62,54.77zM503.62,455.52l-8,-13.86l4.33,-2.5l8,13.86zM497.44,454.78l-4,-6.93l2.43,-1.4l4,6.93zM536.63,435.44c-2.76,0.66 -5.42,1.73 -7.89,3.15l-14.67,8.47l-5.02,2.9l-3.07,-5.31l-3.05,-5.29l5.02,-2.9l14.67,-8.47c2.47,-1.43 4.73,-3.2 6.68,-5.25l31.11,-32.46c1.96,-2.05 4.22,-3.82 6.68,-5.24l27.42,-15.83c1.26,-0.73 2.86,-0.29 3.58,0.97l9.22,15.97l2.28,3.95l-7.99,6.03l-2.89,-5.01l-7.11,-12.31l-15.36,8.87l3.91,6.77c-3.07,1.77 -4.15,5.69 -2.38,8.75c1.78,3.09 5.72,4.12 8.79,2.35l0.8,1.39l-31.26,23.71z" />
			<path id="Shape Copy 17" class="shp1" d="M1001.38,149.27c1.79,0.33 3.56,0.7 5.33,1.15c4.71,1.17 9.33,2.78 13.77,4.79c3.51,1.59 6.82,3.59 9.85,5.95c2.97,2.3 5.41,5.15 7.21,8.38c1.23,2.27 1.58,4.88 0.96,7.36c-0.62,2.48 -2.16,4.63 -4.3,6.03c-3.12,2.02 -6.61,3.38 -10.31,4.01c-3.78,0.67 -7.64,0.87 -11.49,0.65c-4.86,-0.31 -9.69,-1.06 -14.4,-2.24c-1.77,-0.44 -3.51,-0.94 -5.25,-1.49c-0.75,-0.27 -1.13,-1.03 -0.9,-1.73c0.24,-0.72 1.02,-1.1 1.74,-0.86c1.66,0.54 3.35,1.03 5.06,1.45c4.55,1.13 9.2,1.86 13.89,2.16c3.66,0.22 7.29,0.02 10.87,-0.6c3.3,-0.58 6.45,-1.81 9.23,-3.62c1.6,-1.03 2.73,-2.61 3.18,-4.43c0.46,-1.83 0.2,-3.75 -0.73,-5.4c-1.6,-2.91 -3.8,-5.48 -6.45,-7.54c-2.87,-2.22 -5.98,-4.12 -9.32,-5.63c-4.28,-1.93 -8.72,-3.48 -13.28,-4.61c-1.71,-0.43 -3.43,-0.8 -5.15,-1.11c-0.78,-0.15 -1.27,-0.85 -1.13,-1.59c0.14,-0.74 0.86,-1.22 1.6,-1.08zM939.25,110.12c0.01,-0.05 0.03,-0.11 0.06,-0.15c0.22,-0.59 0.91,-0.88 1.5,-0.64l66.44,25.63c0.54,0.21 0.84,0.81 0.7,1.35l-2.93,11.76c-1.67,-0.42 -3.39,-0.77 -5.07,-1.06c-2.06,-0.39 -4.01,0.93 -4.39,2.96c-0.37,2 1,3.96 3.09,4.34c1.14,0.21 2.3,0.44 3.46,0.7c0.61,0.15 1,0.78 0.84,1.41l-2.86,11.47c0,0 -2.86,11.48 -2.87,11.51c-0.16,0.61 -0.8,0.96 -1.43,0.8c-1.11,-0.32 -2.25,-0.65 -3.35,-1c-1.97,-0.65 -4.11,0.38 -4.76,2.34c-0.64,1.94 0.43,4.05 2.48,4.72c1.62,0.53 3.31,1.01 4.98,1.44l-2.93,11.77c-0.14,0.55 -0.68,0.92 -1.26,0.87l-70.7,-8.56c-0.05,-0.01 -0.1,-0.03 -0.14,-0.03c-0.63,-0.16 -1.02,-0.79 -0.87,-1.4l10,-40.12zM1001.83,213.58l-2.42,9.7l-2.91,-0.73l2.42,-9.7zM1004.17,216.37l-1.21,4.85l-1.81,-0.45l1.21,-4.85zM977.42,208.26c1.61,0.94 3.36,1.65 5.18,2.1l10.81,2.7l3.7,0.92l-0.96,3.85l-0.96,3.83l-3.7,-0.92l-10.81,-2.7c-1.82,-0.45 -3.7,-0.65 -5.56,-0.58l-29.53,1.01c-1.86,0.06 -3.74,-0.14 -5.55,-0.59l-20.22,-5.04c-0.93,-0.23 -1.49,-1.16 -1.26,-2.07l2.89,-11.58l0.71,-2.87l6.54,0.81l-0.91,3.63l-2.22,8.92l11.33,2.82l1.22,-4.91c2.26,0.56 4.56,-0.77 5.11,-2.98c0.56,-2.24 -0.84,-4.5 -3.1,-5.06l0.25,-1.01l25.63,3.12z" />
			<path id="Shape Copy 13" class="shp1" d="M173.19,84.38c0.41,2.03 0.78,4.06 1.06,6.11c0.77,5.46 1.04,11.01 0.81,16.54c-0.18,4.38 -0.89,8.72 -2.08,12.91c-1.17,4.11 -3.14,7.89 -5.78,11.17c-1.87,2.26 -4.48,3.74 -7.36,4.15c-2.88,0.41 -5.81,-0.3 -8.2,-1.96c-3.46,-2.42 -6.38,-5.52 -8.63,-9.15c-2.33,-3.7 -4.18,-7.68 -5.59,-11.83c-1.75,-5.26 -3.01,-10.66 -3.78,-16.13c-0.29,-2.05 -0.5,-4.1 -0.66,-6.16c-0.04,-0.9 0.61,-1.63 1.44,-1.68c0.87,-0.05 1.59,0.6 1.65,1.47c0.14,1.98 0.34,3.96 0.62,5.95c0.74,5.28 1.96,10.48 3.64,15.55c1.33,3.95 3.09,7.69 5.27,11.2c2.02,3.23 4.66,6.03 7.76,8.19c1.77,1.25 3.92,1.76 6.03,1.47c2.12,-0.3 4.04,-1.39 5.39,-3.07c2.4,-2.93 4.17,-6.34 5.21,-10.01c1.12,-3.97 1.8,-8.06 1.97,-12.22c0.21,-5.33 -0.05,-10.67 -0.79,-15.95c-0.28,-1.99 -0.61,-3.95 -1.02,-5.9c-0.18,-0.88 0.35,-1.7 1.2,-1.87c0.84,-0.17 1.65,0.38 1.82,1.23zM188.52,3.21c0.06,-0.01 0.12,-0.02 0.18,0c0.72,-0.02 1.32,0.59 1.32,1.3l1.24,80.97c0.01,0.65 -0.49,1.23 -1.13,1.32l-13.7,1.93c-0.27,-1.94 -0.64,-3.9 -1.04,-5.8c-0.47,-2.34 -2.7,-3.83 -5.01,-3.37c-2.28,0.46 -3.77,2.74 -3.28,5.11c0.26,1.29 0.52,2.61 0.74,3.94c0.1,0.71 -0.4,1.39 -1.13,1.49l-13.36,1.88c0,0 -13.37,1.88 -13.41,1.88c-0.71,0.09 -1.36,-0.43 -1.46,-1.16c-0.14,-1.31 -0.28,-2.65 -0.38,-3.96c-0.15,-2.35 -2.16,-4.17 -4.5,-4.02c-2.32,0.15 -4.1,2.18 -3.94,4.63c0.13,1.94 0.34,3.92 0.6,5.86l-13.71,1.93c-0.64,0.09 -1.26,-0.33 -1.45,-0.96l-21.12,-78.17c-0.01,-0.06 -0.02,-0.12 -0.02,-0.16c-0.1,-0.73 0.4,-1.41 1.11,-1.51l46.73,-6.57zM105.6,112.83l-11.88,1.67l-0.56,-3.96l11.88,-1.67zM103.61,116.52l-5.94,0.84l-0.26,-1.85l5.94,-0.83zM100.49,84.06c-0.31,2.08 -0.31,4.22 -0.01,6.32l1.75,12.47l0.6,4.27l-4.47,0.63l-4.45,0.62l-0.6,-4.27l-1.75,-12.47c-0.3,-2.1 -0.88,-4.15 -1.75,-6.07l-13.61,-30.51c-0.86,-1.92 -1.45,-3.98 -1.74,-6.07l-3.28,-23.32c-0.15,-1.07 0.59,-2.05 1.64,-2.2l13.43,-1.89l3.32,-0.47l1.92,7.19l-4.22,0.59l-10.35,1.45l1.84,13.06l5.7,-0.8c0.37,2.61 2.74,4.45 5.32,4.09c2.59,-0.36 4.38,-2.79 4.02,-5.4l1.17,-0.16l7.6,28.16z" />
			<path id="Shape Copy 18" class="shp1" d="M100.44,384.37c1.84,-2.08 3.71,-4.1 5.68,-6.06c5.23,-5.23 10.95,-9.99 17.05,-14.21c4.83,-3.34 10.04,-6.08 15.5,-8.18c5.34,-2.06 10.98,-3 16.62,-2.82c3.93,0.18 7.62,1.78 10.38,4.54c2.76,2.76 4.37,6.47 4.52,10.37c0.2,5.66 -0.75,11.29 -2.82,16.62c-2.08,5.47 -4.84,10.67 -8.15,15.52c-4.22,6.11 -8.98,11.82 -14.21,17.05c-1.96,1.96 -3.98,3.84 -6.07,5.68c-0.94,0.77 -2.23,0.66 -2.97,-0.19c-0.76,-0.89 -0.64,-2.19 0.24,-2.95c2.01,-1.75 3.97,-3.56 5.87,-5.47c5.05,-5.05 9.64,-10.55 13.7,-16.44c3.15,-4.6 5.74,-9.51 7.73,-14.67c1.83,-4.77 2.69,-9.86 2.49,-14.91c-0.09,-2.9 -1.28,-5.63 -3.3,-7.64c-2.03,-2.03 -4.75,-3.21 -7.64,-3.29c-5.07,-0.2 -10.16,0.65 -14.92,2.49c-5.15,2 -10.08,4.57 -14.67,7.74c-5.88,4.08 -11.39,8.66 -16.44,13.71c-1.9,1.9 -3.74,3.84 -5.49,5.85c-0.8,0.9 -2.11,0.99 -2.97,0.22c-0.87,-0.76 -0.93,-2.08 -0.16,-2.94zM0.62,433.97c-0.06,-0.06 -0.12,-0.12 -0.14,-0.2c-0.6,-0.75 -0.44,-1.89 0.33,-2.46l85.5,-66.47c0.69,-0.54 1.71,-0.46 2.32,0.15l13.11,13.11c-1.85,1.85 -3.65,3.82 -5.36,5.78c-2.12,2.38 -1.92,5.98 0.44,8.07c2.33,2.07 5.97,1.83 8.1,-0.6c1.16,-1.32 2.37,-2.65 3.62,-3.96c0.68,-0.68 1.81,-0.68 2.5,0.01l12.79,12.79c0,0 12.8,12.8 12.83,12.83c0.67,0.69 0.64,1.8 -0.06,2.49c-1.28,1.2 -2.6,2.42 -3.92,3.59c-2.4,2.05 -2.71,5.67 -0.66,8.05c2.03,2.36 5.64,2.63 8.12,0.49c1.96,-1.7 3.91,-3.52 5.78,-5.36l13.12,13.12c0.61,0.61 0.67,1.61 0.15,2.32l-66.47,85.49c-0.06,0.06 -0.11,0.11 -0.15,0.15c-0.7,0.7 -1.83,0.71 -2.51,0.03l-44.72,-44.72zM185.28,434.36l11.31,11.31l-3.54,3.54l-11.31,-11.31zM191.44,433.48l5.66,5.66l-1.98,1.98l-5.66,-5.66zM158.59,462.3c2.49,-1.35 4.79,-3.07 6.81,-5.09l11.98,-11.98l4.1,-4.1l4.34,4.34l4.32,4.32l-4.1,4.1l-11.98,11.98c-2.02,2.02 -3.74,4.31 -5.09,6.8l-21.65,39.41c-1.36,2.49 -3.09,4.78 -5.1,6.79l-22.39,22.39c-1.03,1.03 -2.68,1.02 -3.71,-0.01l-13.04,-13.04l-3.23,-3.23l6.16,-7.89l4.09,4.09l10.05,10.05l12.54,-12.55l-5.53,-5.53c2.51,-2.51 2.53,-6.57 0.04,-9.07c-2.52,-2.52 -6.59,-2.5 -9.1,0l-1.14,-1.13l24.06,-30.99z" />
			<path id="Shape Copy 2" class="shp1" d="M293.12,197.26c1,-3.38 2.07,-6.71 3.28,-10.02c3.21,-8.81 7.23,-17.35 12,-25.47c3.77,-6.43 8.3,-12.37 13.45,-17.71c5.04,-5.23 11.04,-9.33 17.64,-12.14c4.62,-1.9 9.74,-2.04 14.41,-0.34c4.67,1.7 8.52,5.1 10.8,9.51c3.29,6.4 5.22,13.39 5.71,20.64c0.55,7.41 0.17,14.87 -1.03,22.23c-1.57,9.28 -3.99,18.41 -7.19,27.22c-1.2,3.31 -2.51,6.55 -3.93,9.78c-0.67,1.39 -2.21,1.96 -3.52,1.37c-1.35,-0.62 -1.92,-2.18 -1.31,-3.52c1.37,-3.08 2.65,-6.22 3.82,-9.43c3.1,-8.52 5.42,-17.3 6.93,-26.25c1.15,-6.98 1.49,-14.02 1,-21.02c-0.46,-6.47 -2.22,-12.78 -5.16,-18.5c-1.67,-3.29 -4.51,-5.79 -7.92,-7.03c-3.44,-1.25 -7.21,-1.16 -10.58,0.3c-5.95,2.48 -11.36,6.18 -15.85,10.85c-4.87,5.06 -9.15,10.66 -12.73,16.75c-4.58,7.84 -8.46,16.05 -11.56,24.57c-1.17,3.21 -2.24,6.42 -3.17,9.67c-0.44,1.47 -1.89,2.27 -3.3,1.84c-1.41,-0.41 -2.19,-1.9 -1.77,-3.3zM204.38,306.16c-0.1,-0.04 -0.2,-0.07 -0.27,-0.15c-1.1,-0.54 -1.53,-1.94 -0.95,-3.01l62.83,-122.39c0.51,-0.99 1.73,-1.45 2.77,-1.07l22.25,8.1c-1.14,3.13 -2.15,6.36 -3.06,9.53c-1.16,3.88 1.02,7.91 4.88,9.07c3.82,1.14 7.89,-1.09 9.04,-5.03c0.63,-2.15 1.3,-4.33 2.04,-6.5c0.42,-1.14 1.72,-1.75 2.9,-1.32l21.7,7.9c0,0 21.72,7.9 21.77,7.92c1.15,0.43 1.71,1.73 1.28,2.91c-0.83,2.08 -1.7,4.19 -2.59,6.24c-1.66,3.65 -0.07,7.98 3.6,9.63c3.63,1.64 7.95,0.01 9.65,-3.78c1.35,-3.01 2.61,-6.15 3.77,-9.27l22.26,8.1c1.04,0.38 1.64,1.5 1.43,2.6l-30.54,134.14c-0.04,0.1 -0.07,0.19 -0.09,0.25c-0.43,1.18 -1.73,1.8 -2.88,1.38l-75.89,-27.62zM418.17,208.82l18.79,6.84l-2.39,6.58l-18.79,-6.84zM424.15,204.5l9.4,3.42l-0.96,2.63l-9.4,-3.42zM402.14,255.57c2.14,-2.88 3.85,-6.08 5.08,-9.47l7.33,-20.13l2.51,-6.89l7.29,2.65l7.26,2.64l-2.51,6.89l-7.33,20.13c-1.23,3.39 -1.99,6.95 -2.21,10.52l-3.75,56.75c-0.24,3.58 -0.99,7.13 -2.22,10.51l-13.7,37.64c-0.63,1.73 -2.53,2.6 -4.25,1.98l-21.91,-7.98l-5.42,-1.97l2.84,-12.34l6.88,2.5l16.89,6.15l7.68,-21.09l-9.3,-3.38c1.53,-4.21 -0.61,-8.89 -4.8,-10.41c-4.23,-1.54 -8.89,0.66 -10.43,4.87l-1.91,-0.69l11.02,-48.39z" />
		</g>
	</g>
</svg>