<svg xmlns="http://www.w3.org/2000/svg" viewBox="0 0 157 150" width="157" height="150">
	<defs>
		<clipPath clipPathUnits="userSpaceOnUse" id="cp1">
			<path d="M-99 -4435L1821 -4435L1821 359L-99 359Z" />
		</clipPath>
		<clipPath clipPathUnits="userSpaceOnUse" id="cp2">
			<path d="M-99,126.3h1920v-920h-1920z" />
		</clipPath>
	</defs>
	<style>
		tspan { white-space:pre }
		.shp0 { fill: #ffffff } 
	</style>
	<g id="shopping 1" clip-path="url(#cp1)">
		<g id="#5">
			<g id="bg">
				<g id="Mask by Mask" clip-path="url(#cp2)">
					<g id="Group" style="opacity: 0.302">
						<path id="Shape" class="shp0" d="M127.27,141.02l-4.69,8.11l-122.11,-70.5l4.68,-8.11l5.43,3.13l2.34,-4.06l9.5,5.48l28.89,-50.04l-5.43,-3.13l3.12,-5.41l14.8,-13.1l6.78,3.92l3.9,-6.76l20.35,11.75l4.68,-8.11l37.99,21.93l-4.68,8.11l20.35,11.75l-3.9,6.76l6.78,3.92l-3.94,19.36l-3.12,5.41l-5.43,-3.13l-28.89,50.04l9.5,5.48l-2.34,4.06zM127.71,61.93l6.78,3.92l6.25,-10.82l-6.78,-3.92zM115.5,54.88l6.78,3.92l6.25,-10.82l-6.78,-3.92zM103.29,47.83l6.78,3.92l6.25,-10.82l-6.78,-3.92zM78.86,33.73l6.78,3.92l6.25,-10.82l-6.78,-3.92zM66.65,26.68l6.78,3.92l6.25,-10.82l-6.78,-3.92zM54.71,19.79l6.51,3.76l6.25,-10.82l-2.85,-1.64zM94.74,50.11l-6.78,-3.92l-5.43,-3.13l-6.78,-3.92l-5.43,-3.13l-6.78,-3.92l-5.43,-3.13l-1.56,2.7l9.5,5.48l-27.33,47.33l27.14,15.67l27.33,-47.33l0.78,-1.35zM104.11,33.88l-6.78,-3.92l-6.25,10.82l6.78,3.92zM136.8,74.39l-5.43,-3.13l-6.78,-3.92l-5.43,-3.13l-6.78,-3.92l-5.43,-3.13l-6.78,-3.92l-1.56,2.7l-27.33,47.33l27.14,15.67l27.33,-47.33l9.5,5.48zM146.43,72.74l2.58,-12.93l-2.85,-1.64l-6.25,10.82z" />
						<path id="Rectangle" class="shp0" d="M87.66,81.63l6.93,4l1.5,-2.6l-6.93,-4z" />
						<path id="Rectangle" class="shp0" d="M69.47,71.13l6.93,4l1.5,-2.6l-6.93,-4z" />
					</g>
				</g>
			</g>
		</g>
	</g>
</svg>