<?xml version="1.0" encoding="UTF-8"?>
<svg width="21px" height="19px" viewBox="0 0 21 19" version="1.1" xmlns="http://www.w3.org/2000/svg" xmlns:xlink="http://www.w3.org/1999/xlink">
    <!-- Generator: Sketch 52.5 (67469) - http://www.bohemiancoding.com/sketch -->
    <title>icon/heart full</title>
    <desc>Created with Sketch.</desc>
    <defs>
        <linearGradient x1="-90.8472324%" y1="-201.143973%" x2="93.1938462%" y2="78.7039621%" id="linearGradient-1">
            <stop stop-color="#fff" offset="0%"></stop>
            <stop stop-color="#fff" offset="100%"></stop>
        </linearGradient>
    </defs>
    <g id="desktop" stroke="none" stroke-width="1" fill="none" fill-rule="evenodd">
        <g id="2" transform="translate(-1423.000000, -1152.000000)">
            <g id="#3" transform="translate(390.000000, 933.000000)">
                <g id="icon/heart-full" transform="translate(1031.000000, 216.000000)">
                    <g id="iconspace_Favourite-Love_25px-Copy-4">
                        <polygon id="Favourite-Love" points="0 0 25 0 25 25 0 25"></polygon>
                        <path d="M12.5,5.34618004 L13.0799345,4.74991129 C15.3492332,2.41669624 19.034399,2.41669624 21.3036976,4.74991129 C23.5654341,7.07535116 23.5654341,10.8400342 21.3036976,13.165474 L12.8584287,21.8486099 C12.6621048,22.0504634 12.3378952,22.0504634 12.1415713,21.8486099 L3.69630235,13.165474 C1.43456588,10.8400342 1.43456588,7.07535116 3.69630235,4.74991129 C5.96560102,2.41669624 9.65076685,2.41669624 11.9200655,4.74991129 L12.5,5.34618004 Z" id="Favourite-Love" fill="#497761"></path>
                    </g>
                </g>
            </g>
        </g>
    </g>
</svg>