<?xml version="1.0" encoding="UTF-8"?>
<svg width="21px" height="19px" viewBox="0 0 21 19" version="1.1" xmlns="http://www.w3.org/2000/svg" xmlns:xlink="http://www.w3.org/1999/xlink">
    <!-- Generator: Sketch 52.5 (67469) - http://www.bohemiancoding.com/sketch -->
    <title>icon/heart</title>
    <desc>Created with Sketch.</desc>
    <g id="desktop" stroke="none" stroke-width="1" fill="none" fill-rule="evenodd">
        <g id="2" transform="translate(-1423.000000, -1509.000000)">
            <g id="#4" transform="translate(390.000000, 1290.000000)">
                <g id="icon/heart" transform="translate(1031.000000, 216.000000)">
                    <g id="iconspace_Favourite-Love_25px">
                        <polygon id="IconSpace_Favourite-Love_24Px" points="0 0 25 0 25 25 0 25"></polygon>
                        <path d="M20.5868402,12.4682543 C22.4710533,10.530971 22.4710533,7.38441431 20.5868402,5.44713105 C18.7101893,3.51762298 15.6734428,3.51762298 13.7967919,5.44713105 L12.8584287,6.41192392 C12.6621048,6.61377742 12.3378952,6.61377742 12.1415713,6.41192392 L11.2032081,5.44713105 C9.32655718,3.51762298 6.28981068,3.51762298 4.4131598,5.44713105 C2.52894673,7.38441431 2.52894673,10.530971 4.4131598,12.4682543 L12.5,20.782866 L20.5868402,12.4682543 Z M13.0799345,4.74991129 C15.3492332,2.41669624 19.034399,2.41669624 21.3036976,4.74991129 C23.5654341,7.07535116 23.5654341,10.8400342 21.3036976,13.165474 L12.8584287,21.8486099 C12.6621048,22.0504634 12.3378952,22.0504634 12.1415713,21.8486099 L3.69630235,13.165474 C1.43456588,10.8400342 1.43456588,7.07535116 3.69630235,4.74991129 C5.96560102,2.41669624 9.65076685,2.41669624 11.9200655,4.74991129 L12.5,5.34618004 L13.0799345,4.74991129 Z" id="Favourite-Love" fill="#D3D3D4" fill-rule="nonzero"></path>
                    </g>
                </g>
            </g>
        </g>
    </g>
</svg>