<svg id="Layer_1" data-name="Layer 1" xmlns="http://www.w3.org/2000/svg" viewBox="0 0 49.73 48.06"><defs><style>.cls-1{fill:#fed100;}.cls-2{fill:#009b3a;}</style></defs><title>jamaicalove</title><g id="Final-concept"><g id="main-paig_1.1" data-name="main-paig 1.1"><g id="Group"><path id="Path-6-Copy-2" d="M47.94,35.38C43.75,42,34,42.8,32.75,35c-1.91-11.69-11.27-7.26-14.91-1.17S6.93,32.74,10.5,21.43,25.43-3.64,27.16,9.21,35.42,12.16,45,16.87Q54.67,21.58,47.94,35.38Z" transform="translate(-0.98 -0.59)"/><path id="Path-3-Copy" class="cls-1" d="M24.88,2.87c-3-6-12,1.44-15,3.74C2.64,12.37-4,25,6.25,32c2.87,2,4.66,3.77,5.91,2.08s-2.35-5.79,1.05-7.29c6.06-2.68,13.47-2,19.1-5.49C36.11,19,42,15.55,38.67,7.59S27.88,8.84,24.88,2.87Z" transform="translate(-0.98 -0.59)"/><path id="Path-8-Copy" class="cls-2" d="M21.26,15.48c-3.8,2.65-20.42,15.2-4.64,23.06C21.8,41.12,23.23,51.23,31.21,48c10.61-5.22-.2-12,1.09-19.69.72-4.24,14-12.11,3.47-15.67C30.94,11,25.06,12.83,21.26,15.48Z" transform="translate(-0.98 -0.59)"/></g></g></g></svg>