<?xml version="1.0" encoding="UTF-8"?>
<svg width="36px" height="35px" viewBox="0 0 36 35" version="1.1" xmlns="http://www.w3.org/2000/svg" xmlns:xlink="http://www.w3.org/1999/xlink">
    <!-- Generator: Sketch 51.3 (57544) - http://www.bohemiancoding.com/sketch -->
    <title>jamaica image</title>
    <desc>Created with Sketch.</desc>
    <defs></defs>
    <g id="mobile-ver." stroke="none" stroke-width="1" fill="none" fill-rule="evenodd">
        <g id="main-page_1" transform="translate(-288.000000, -718.000000)" fill-rule="nonzero">
            <g id="main-block" transform="translate(0.000000, 667.000000)">
                <g id="jamaica-image" transform="translate(306.373686, 68.705652) rotate(-17.000000) translate(-306.373686, -68.705652) translate(289.373686, 51.205652)">
                    <path d="M29.2807313,29.2358115 C25.1521616,32.8277263 18.5431702,31.3540615 19.2809246,25.8763102 C20.3875562,17.6596833 13.2733418,18.7110043 9.62109373,22.0421665 C5.96884569,25.3733286 2.60550858,19.0756717 7.26769379,12.2338001 C11.929879,5.39192857 22.2606485,-1.49587399 20.8021533,7.46400778 C19.3436581,16.4238895 25.6849934,11.1272138 31.1160295,16.2496119 C34.7367203,19.664544 34.1249542,23.9932772 29.2807313,29.2358115 Z" id="Path-6-Copy-2" fill="#000000"></path>
                    <path d="M20.5793317,2.7495363 C19.8015122,-1.8652624 12.2986907,1.25120367 9.89392161,2.19827004 C3.89028537,4.56267256 -3.07712436,11.6168896 2.30490661,18.4426473 C3.80779263,20.3486817 4.63185961,21.9148229 5.80600673,21.0403912 C6.92053671,20.2103587 5.42005227,16.6868699 7.98472866,16.3754826 C12.543611,15.8219711 17.3317943,17.7708794 21.7668815,16.611252 C24.7654357,15.82723 29.3915466,14.7550302 28.7675824,8.73469827 C28.1436181,2.71436639 21.3571511,7.364335 20.5793317,2.7495363 Z" id="Path-3-Copy" fill="#FED100"></path>
                    <path d="M15.617036,10.4515371 C12.5607183,11.4486893 -1.0136794,16.4505825 7.86277118,24.9379187 C10.7779294,27.7252859 9.67431458,34.78638 15.617036,34.2768533 C23.71443,32.955972 17.9184064,26.1930851 20.3346514,21.3224622 C21.669887,18.6309184 32.048087,16.0668306 25.8182423,11.5418696 C22.9442495,9.45438494 18.6733536,9.45438494 15.617036,10.4515371 Z" id="Path-8-Copy" fill="#009B3A"></path>
                </g>
            </g>
        </g>
    </g>
</svg>