<svg xmlns="http://www.w3.org/2000/svg" width="24" height="24" viewBox="0 0 24 24">
    <defs>
        <linearGradient id="a" x1="-90.847%" x2="93.194%" y1="-201.144%" y2="78.704%">
            <stop offset="0%" stop-color="#8559F0"/>
            <stop offset="100%" stop-color="#FF6CC9"/>
        </linearGradient>
    </defs>
    <g fill="none" fill-rule="evenodd">
        <path d="M0 0h24v24H0z"/>
        <path fill="url(#a)" fill-rule="nonzero" d="M14.4 5.429L8.64 2.925v15.363a.48.48 0 0 1 .232.037l5.528 2.382V5.429zm.96.377V21.12l5.76-2.661V3.196l-5.552 2.566a.48.48 0 0 1-.208.044zm-7.68-2.43l-4.8 2.258v15.264l4.83-2.215a.479.479 0 0 1-.03-.169V3.405v-.029zM2.6 22.082a.48.48 0 0 1-.68-.436V5.326a.48.48 0 0 1 .28-.437l6.234-2.925a.48.48 0 0 1 .39-.005L15.36 4.8 21.4 2.01a.48.48 0 0 1 .681.436v16.32a.48.48 0 0 1-.279.436l-6.233 2.88a.48.48 0 0 1-.391.005L8.688 19.29 2.6 22.082z"/>
    </g>
</svg>
