<?xml version="1.0" encoding="UTF-8"?>
<svg width="128px" height="149px" viewBox="0 0 128 149" version="1.1" xmlns="http://www.w3.org/2000/svg" xmlns:xlink="http://www.w3.org/1999/xlink">
    <!-- Generator: Sketch 53.2 (72643) - https://sketchapp.com -->
    <title>illo</title>
    <desc>Created with Sketch.</desc>
    <g id="desktop" stroke="none" stroke-width="1" fill="none" fill-rule="evenodd">
        <g id="shopping-1" transform="translate(-72.000000, -87.000000)">
            <g id="navigation" transform="translate(72.000000, 88.000000)">
                <g id="illo">
                    <circle id="Oval" fill="#FFFFFF" cx="64" cy="84" r="64"></circle>
                    <path d="M76.0766389,125.807003 L77.1536846,124.428447 L73.9841743,121.952155 L87.2677378,104.949969 L89.0788865,106.364993 L90.5149474,104.526919 L93.0119815,97.597672 L90.7480456,95.8288914 L92.5431217,93.5312987 L85.751314,88.2249569 L87.9054054,85.4678457 L75.2273644,75.5626745 L73.073273,78.3197857 L66.2814653,73.013444 L64.4863892,75.3110367 L62.2224533,73.5422561 L56.1031218,77.6414541 L54.6670609,79.4795283 L56.4782096,80.8945527 L43.1946461,97.8967387 L40.0251358,95.4204459 L38.9480901,96.7990015 L37.1369414,95.383977 L34.98285,98.1410883 L75.7336962,129.979139 L77.8877876,127.222027 L76.0766389,125.807003 Z M85.2369,94.4831605 L87.5008359,96.2519411 L84.6287141,99.9280894 L82.3647782,98.1593088 L85.2369,94.4831605 Z M81.1618154,91.2993555 L83.4257513,93.068136 L80.5536295,96.7442843 L78.2896936,94.9755038 L81.1618154,91.2993555 Z M77.0867308,88.1155504 L79.3506667,89.884331 L76.4785449,93.5604793 L74.214609,91.7916987 L77.0867308,88.1155504 Z M68.9365616,81.7479403 L71.2004975,83.5167209 L68.3283756,87.1928692 L66.0644397,85.4240887 L68.9365616,81.7479403 Z M64.861477,78.5641353 L67.1254129,80.3329159 L64.253291,84.0090642 L61.9893551,82.2402836 L64.861477,78.5641353 Z M62.0994752,76.406223 L63.0503282,77.1491108 L60.1782064,80.8252592 L58.0048279,79.1272298 L62.0994752,76.406223 Z M70.6083841,92.674267 L70.2493689,93.1337855 L57.6838358,109.216934 L48.6280922,102.141812 L61.1936253,86.0586632 L58.024115,83.5823704 L58.7421455,82.6633333 L60.5532942,84.0783578 L62.8172301,85.8471383 L64.6283788,87.2621628 L66.8923147,89.0309434 L68.7034634,90.4459678 L70.9673993,92.2147484 L70.6083841,92.674267 Z M72.4034603,90.3766743 L70.1395244,88.6078937 L73.0116462,84.9317454 L75.2755821,86.700526 L72.4034603,90.3766743 Z M84.2857714,104.100225 L81.1162612,101.623932 L68.5507281,117.707081 L59.4949846,110.631959 L72.0605176,94.54881 L72.4195328,94.0892914 L72.7785481,93.6297729 L75.042484,95.3985535 L76.8536327,96.8135779 L79.1175686,98.5823585 L80.9287173,99.997383 L83.1926532,101.766164 L85.0038019,103.181188 L84.2857714,104.100225 Z M86.4398628,101.343114 L89.3119847,97.6669655 L90.2628377,98.4098534 L88.6132413,103.041143 L86.4398628,101.343114 Z" id="Combined-Shape-Copy" fill="#000000"></path>
                    <path d="M57.7582547,63.4187852 C58.0291022,63.2129084 58.0747714,62.8272271 57.8553473,62.5396998 C57.3668727,61.9114156 56.9018672,61.2612522 56.4517794,60.5939696 C55.2566864,58.8221713 54.2237981,56.9449973 53.3572371,54.9889037 C52.6856607,53.4628439 52.2034518,51.8745853 51.903171,50.2523339 C51.6274356,48.7536625 51.6561084,47.2180301 51.9915743,45.7506943 C52.171935,44.9122284 52.6631276,44.1887355 53.3657731,43.7147951 C54.0630293,43.2444899 54.9205389,43.0582717 55.770231,43.2019582 C57.2516731,43.443774 58.685554,43.9929015 59.9745003,44.8081536 C61.3681595,45.6929119 62.6560866,46.7377067 63.8241633,47.9288729 C65.3172443,49.4623733 66.668782,51.1246156 67.863875,52.8964139 C68.3139628,53.5636965 68.7365266,54.2424872 69.1354021,54.9312067 C69.3071338,55.2337641 69.6799278,55.3432373 69.9801106,55.1750393 C70.2685251,55.0097384 70.3696936,54.6380392 70.1967532,54.3191582 C69.7771067,53.6010975 69.3391741,52.902428 68.8750648,52.2143577 C67.6383749,50.3808895 66.2353834,48.652536 64.6873835,47.0623187 C63.4540635,45.8093015 62.092851,44.6979985 60.6131193,43.7684631 C59.1738468,42.8509563 57.5876572,42.2402301 55.9289933,41.9667259 C54.7848243,41.7817214 53.6197701,42.0322205 52.6651691,42.6761069 C51.7119156,43.3190846 51.0459146,44.3036478 50.7800767,45.439714 C50.4190557,47.0755129 50.3863984,48.7781651 50.6952402,50.458157 C51.0101836,52.173352 51.5232362,53.8567461 52.2324352,55.4632874 C53.1276417,57.4938194 54.2018786,59.4439207 55.4385685,61.2773889 C55.9031452,61.9661521 56.3884414,62.6318662 56.8943187,63.2917636 C57.1023742,63.5667957 57.4888095,63.6267409 57.7582547,63.4187852 Z M80.7860771,84.3670675 L96.159396,73.997633 C96.3918148,73.8408646 96.4494134,73.5106518 96.2848953,73.2667437 C96.2764825,73.2542711 96.2629284,73.2341764 96.2493744,73.2140817 L75.0506119,48.8393064 C74.8725074,48.6479139 74.5802578,48.6040854 74.3693967,48.7463129 L69.8604737,51.7876199 C70.2936939,52.4400674 70.7154744,53.1133374 71.1033391,53.7842795 C71.5896953,54.6317579 71.3174304,55.6652929 70.5227717,56.1176185 C69.7213763,56.5744882 68.6911717,56.2692623 68.2249128,55.4515794 C67.9588121,54.9989421 67.6767365,54.5429655 67.3966949,54.0987232 C67.2321768,53.8548151 66.9118424,53.7795214 66.6768805,53.9339725 C66.665428,53.9416973 62.2663144,56.9089369 62.2663144,56.9089369 L57.8712428,59.8734501 C57.6320873,60.0347625 57.5724129,60.363351 57.7322571,60.6003298 C58.0431493,61.0409021 58.3645045,61.4693761 58.6844994,61.8856614 C59.2741217,62.6493715 59.1487504,63.7219452 58.4230577,64.2779705 C57.689281,64.8394486 56.6364095,64.6866232 56.0603284,63.9299101 C55.5830709,63.318256 55.1100909,62.6795206 54.6726224,62.0309468 L50.1657204,65.0708906 C49.955533,65.2126638 49.8786074,65.5055041 49.9967547,65.7373383 L64.6545767,94.5250418 C64.7788676,94.7819691 65.0999142,94.8961012 65.349626,94.7649709 C65.3743586,94.7624029 65.3945689,94.7487709 65.4147793,94.7351388 L80.7860771,84.3670675 Z M76.6051739,42.9031177 L80.6539753,40.1721668 L79.6935075,38.7482147 L75.6447061,41.4791657 L76.6051739,42.9031177 Z M76.2575169,40.0858753 L78.1768239,38.7912864 L77.7402901,38.1440984 L75.8209831,39.4386873 L76.2575169,40.0858753 Z M84.3195375,56.6463114 L91.9291252,65.3951154 L92.313795,65.1356524 C91.7276993,64.2667298 91.9367196,63.0943827 92.7902689,62.5186565 C93.6364078,61.9479286 94.7983211,62.1955693 95.3844167,63.0644919 L97.2585873,61.8003478 L100.191403,66.1484253 L96.7866369,68.4449688 L95.3995351,69.3805808 L97.335635,71.6173853 L98.4290135,70.8798922 L102.84699,67.8999294 C103.193934,67.6659128 103.283644,67.1900353 103.04341,66.8338741 L97.8092111,59.073855 C97.3399606,58.3781626 96.7734396,57.7460638 96.1333747,57.2069222 L85.9878246,48.6553785 C85.3464672,48.1201334 84.7799461,47.4880345 84.3083587,46.7888775 L81.508747,42.6382824 L80.5510835,41.2184879 L79.0878561,42.2054472 L77.6185657,43.1964961 L78.5762292,44.6162907 L81.3758409,48.7668858 C81.8474282,49.4660428 82.2206039,50.2285548 82.4752705,51.0246262 L84.3195375,56.6463114 Z" id="Combined-Shape-Copy" fill="#FFD100"></path>
                    <path d="M47.0025627,49.3923478 C44.3279863,48.9687365 41.5669164,48.8983982 38.553297,49.1535554 C37.6100571,49.0041608 35.7228098,57.4158553 35.0297032,57.7815913 C34.4047724,58.0303864 33.3151355,58.587319 31.9685448,59.2896244 C31.6795491,60.5293622 31.5227472,61.7907758 31.5115942,63.065659 C31.4378073,71.4529612 37.3754014,78.0190597 44.806119,77.7701684 C51.8270575,77.5361189 57.6110842,71.2900074 58.2907217,63.5273165 C57.1801681,62.4107329 56.274034,61.5007825 55.7183436,61.05835 C55.199127,60.5072463 55.8302574,51.8899571 54.9154204,51.7450611 C52.2652095,50.5928413 49.6771391,49.8159591 47.0025627,49.3923478 L47.0025627,49.3923478 Z M29.130787,60.7872616 C25.418754,62.7696153 20.8934303,65.2286235 17.1598129,67.0008137 C13.867772,102.661215 62.1136308,110.302609 70.0023841,75.3702548 C67.0177938,72.5487725 63.4873842,68.8382278 60.549996,65.8093546 C58.9570751,74.0225255 52.4689206,80.3867487 44.792815,80.6543676 L46.5702407,83.433067 C47.1593526,84.3622132 46.940055,85.7473742 46.0924521,86.4497055 L41.9851257,89.8535839 C41.1377509,90.5544746 39.9192121,90.3629537 39.3302142,89.4330872 L36.4757709,84.9265729 C35.886773,83.9967064 36.1060707,82.6115454 36.9535595,81.9099344 L39.4829922,79.8133743 C33.289168,77.5512889 28.8902993,70.9940974 28.9594044,63.1421137 C28.9662616,62.3516622 29.0310522,61.5689097 29.130787,60.7872616 Z M41.97499,81.2624669 L38.9548818,83.7841447 L41.0512425,87.0947787 L44.0877072,84.5971044 L41.97499,81.2624669 Z" id="Combined-Shape-Copy" fill="#009B39"></path>
                    <path d="M97.8898856,106.7928 L97.8898856,106.7928 C97.9860741,106.815957 98.0820366,106.843903 98.1774963,106.876772 C99.7962051,107.434138 100.657295,109.196159 100.100794,110.812355 C99.5442926,112.428552 97.7809366,113.286903 96.1622278,112.729537 C94.543519,112.172171 93.6824294,110.41015 94.2389305,108.793954 C94.3878462,108.361471 94.6231808,107.983254 94.9190358,107.67191 L90.3058483,92.1773115 C87.6641517,92.6493672 84.8678921,92.473892 82.1493439,91.5378207 C79.7675817,90.7177142 77.6982481,89.400829 76.0176204,87.7432501 C83.6215329,89.8678022 91.4853056,88.1949429 97.4551591,83.7730705 C98.1744825,84.8998086 98.7886219,86.0903457 99.2895365,87.3282274 C98.9757585,87.6604204 98.6488966,87.9782211 98.3100825,88.2810782 L107.70391,101.448597 C108.131884,101.407602 108.575397,101.455375 109.008552,101.604523 C110.627261,102.161889 111.488351,103.923909 110.93185,105.540106 C110.375349,107.156302 108.611993,108.014654 106.993284,107.457287 C105.374575,106.899921 104.513486,105.137901 105.069987,103.521704 C105.102805,103.426393 105.13982,103.333717 105.180756,103.243812 L95.815086,90.115763 C95.010579,90.5968567 94.1656857,91.0081267 93.2905264,91.3446468 L97.8898856,106.7928 Z M83.7601056,60.1063716 L83.7601056,60.1063716 C86.5460304,59.5460625 89.5314599,59.6998402 92.4355557,60.6998006 C99.3681661,63.0868898 103.697236,69.5591979 103.518548,76.3485614 C100.651939,70.9944008 95.7748186,66.6336781 89.4963424,64.4718254 C85.1937361,62.9903192 80.7739696,62.7277323 76.6303784,63.4990539 C76.6672183,63.4684478 76.7041937,63.4380128 76.7413038,63.4077509 L72.0828561,57.0485103 C71.8352457,56.7104973 71.9108097,56.2316995 72.2597396,55.9901511 L73.4998714,55.1316653 C73.8541575,54.8864093 74.3331864,54.9694001 74.5817756,55.3087485 L79.2766714,61.7177448 C79.7767166,61.4494439 80.2914405,61.2073372 80.8185136,60.9925205 L78.4777956,53.48054 C78.3544648,53.0847402 78.5862122,52.6618176 78.9983664,52.5453808 L80.4632029,52.1315517 C80.8816837,52.0133273 81.3116303,52.24857 81.4376467,52.6529897 L83.7601056,60.1063716 Z M88.8396666,75.8659922 C83.8546959,78.259004 77.8188575,78.741259 72.003662,76.7389266 C71.6519981,76.617839 71.3052914,76.4890944 70.9636875,76.3529665 C70.9182853,75.7796726 70.9064669,75.2023024 70.9295453,74.623358 C75.4935471,72.9703949 80.7333266,72.8267539 85.8052599,74.5731606 C86.8628757,74.9373269 87.8756449,75.3707473 88.8396666,75.8659922 L88.8396666,75.8659922 Z M95.8350533,80.9105821 C90.203117,85.0626971 82.6659549,86.4635311 75.519086,84.0026668 C74.5135017,83.6564164 73.5488965,83.2451649 72.6284052,82.7752857 C72.2261467,81.9390983 71.8942193,81.0694973 71.6373203,80.1760308 C78.8628294,82.4788036 86.3885688,81.3668358 92.4111265,77.7124975 C93.6744255,78.6621338 94.8197585,79.7363454 95.8350533,80.9105821 Z M101.333812,84.2438432 L101.333812,84.2438432 C98.5379648,78.7320732 93.6213367,74.2281141 87.2374143,72.0299533 C82.0885931,70.257072 76.7684672,70.2537504 71.9664518,71.6944493 C72.0481377,71.4024767 72.1388804,71.111194 72.2388343,70.8209067 C72.5628886,69.8797849 72.9696786,68.9900212 73.4486585,68.1565939 C78.1154887,66.2675137 83.50654,65.9988558 88.6985189,67.7865975 C95.597907,70.1622474 100.538653,75.615831 102.443326,82.0073 C102.130252,82.7926034 101.758193,83.5391666 101.333812,84.2438432 Z" id="Combined-Shape-Copy" fill="#000000"></path>
                    <path d="M57.0032546,0 C64.2751261,12.5937339 28.7374696,19.4775562 47.5763303,34.0577682 C53.1429287,38.3660004 46.4242058,43.3024192 51.3778287,46" id="Path-2" stroke="#997362" stroke-width="2"></path>
                </g>
            </g>
        </g>
    </g>
</svg>