<svg xmlns="http://www.w3.org/2000/svg" width="24" height="24" viewBox="0 0 24 24">
    <defs>
        <linearGradient id="a" x1="0%" x2="83.632%" y1="0%" y2="83.632%">
            <stop offset="0%" stop-color="#FF6CC9"/>
            <stop offset="100%" stop-color="#8559F0"/>
        </linearGradient>
    </defs>
    <g fill="none" fill-rule="evenodd">
        <path d="M0 0h24v24H0z"/>
        <path fill="url(#a)" fill-rule="nonzero" d="M9.128 11.195l3.349 3.526c.363.382 1.02.436 1.753.076 1.865-.771 2.485-.959 2.84-.586l3.85 4.052c.454.48.333 1.277-.176 1.813-2.643 2.782-6.938 2.782-9.58 0l-7.192-7.57c-2.63-2.768-2.63-7.246 0-10.013.52-.547 1.318-.682 1.79-.185l3.85 4.053c.333.351.155 1.005-.574 2.955-.339.76-.284 1.485.09 1.879zm7.069 3.89c-.367.11-.902.31-1.571.586-1.053.52-2.164.427-2.845-.29l-3.35-3.525c-.67-.705-.754-1.842-.281-2.903.275-.737.466-1.301.572-1.69.041-.15.069-.272.082-.358L5.066 2.97c-.035-.037-.217-.007-.398.184-2.277 2.397-2.277 6.293 0 8.69l7.192 7.57c2.264 2.384 5.924 2.384 8.188 0 .192-.201.227-.434.175-.49l-3.724-3.92a3.343 3.343 0 0 0-.302.08z"/>
    </g>
</svg>
