<?xml version="1.0" encoding="UTF-8"?>
<svg width="24px" height="24px" viewBox="0 0 24 24" version="1.1" xmlns="http://www.w3.org/2000/svg" xmlns:xlink="http://www.w3.org/1999/xlink">
    <!-- Generator: Sketch 51.3 (57544) - http://www.bohemiancoding.com/sketch -->
    <title>icon/twitter/blue</title>
    <desc>Created with Sketch.</desc>
    <defs></defs>
    <g id="icon/twitter/blue" stroke="none" stroke-width="1" fill="none" fill-rule="evenodd">
        <rect id="Rectangle" fill="#FFFFFF" fill-rule="nonzero" opacity="0" x="0" y="0" width="24" height="24"></rect>
        <g id="Group-3" transform="translate(0.000000, 3.000000)">
            <polygon id="Clip-2" points="0 0 24 0 24 19 0 19"></polygon>
            <path d="M24,2.24828132 C23.1159893,2.62973779 22.1679027,2.88750989 21.1723524,3.00310276 C22.1892613,2.41011133 22.968852,1.4703413 23.3366953,0.349090467 C22.3850489,0.899312527 21.3313557,1.29926386 20.2100267,1.51311066 C19.3117769,0.581432135 18.0326313,0 16.615841,0 C13.8973598,0 11.6914862,2.14655959 11.6914862,4.79594817 C11.6914862,5.17162499 11.7353901,5.53805439 11.8196381,5.88830078 C7.72827054,5.68948105 4.0984871,3.77873091 1.67072085,0.876193953 C1.24710768,1.58593417 1.00385642,2.41011133 1.00385642,3.28861714 C1.00385642,4.95315447 1.873628,6.42002799 3.19430436,7.28119487 C2.38742213,7.25576443 1.62800356,7.0407617 0.963512311,6.68126787 C0.963512311,6.70207459 0.963512311,6.72056945 0.963512311,6.74137616 C0.963512311,9.06479285 2.66152477,11.0044412 4.91367547,11.44485 C4.50074162,11.5546633 4.06526253,11.6136156 3.61554435,11.6136156 C3.29872441,11.6136156 2.99021062,11.5835615 2.69000297,11.526921 C3.31652329,13.4330474 5.13556808,14.8201618 7.28923168,14.8583075 C5.60427173,16.1448561 3.48145951,16.9123928 1.1747256,16.9123928 C0.777217443,16.9123928 0.385642243,16.8892742 0,16.844193 C2.17858202,18.205877 4.76653812,19 7.54790863,19 C16.6051617,19 21.5568081,11.6910628 21.5568081,5.35194987 C21.5568081,5.1438827 21.5520617,4.93697147 21.5437556,4.73006023 C22.5048947,4.05499787 23.3402551,3.21001399 24,2.24828132" id="Fill-1" fill="#5165FF"></path>
        </g>
    </g>
</svg>